<?xml version="1.0" encoding="utf-8"?>
<!-- Generator: Adobe Illustrator 16.0.0, SVG Export Plug-In . SVG Version: 6.00 Build 0)  -->
<!DOCTYPE svg PUBLIC "-//W3C//DTD SVG 1.1//EN" "http://www.w3.org/Graphics/SVG/1.1/DTD/svg11.dtd">
<svg version="1.1" id="Layer_1" xmlns="http://www.w3.org/2000/svg" xmlns:xlink="http://www.w3.org/1999/xlink" x="0px" y="0px"
	 width="200px" height="200px" viewBox="0 0 200 200" enable-background="new 0 0 200 200" xml:space="preserve">
<g>
	<polygon points="94.498,129.784 87.496,138.287 80.244,147.54 78.494,152.04 87.746,140.912 90.746,136.536 	"/>
	<polygon points="95.123,141.162 97,140.287 100.875,140.287 105.25,140.912 100,137.786 97,137.786 92.748,140.912 98.25,144.539 	
		"/>
	<polygon points="115.004,135.161 112.879,137.786 110.252,140.912 107.752,141.162 108.502,142.788 111.377,142.788 
		113.129,143.913 114.127,146.664 111.377,147.789 108.752,147.039 106.002,145.914 103.75,146.664 101.375,147.789 99,147.289 
		96.25,147.789 91.871,149.79 87.746,149.79 85.496,152.04 82.119,152.915 78.494,153.79 75.992,156.417 74.117,161.167 
		73.492,164.293 77.494,165.293 79.994,165.293 84.494,163.543 90.746,161.918 99,159.917 103.125,160.417 106.377,161.293 
		110.127,160.042 115.004,160.667 108.627,162.167 105.25,162.293 103.627,161.668 99,161.542 94.248,162.293 88.371,164.043 
		83.871,165.293 91.623,164.168 97,165.293 106.002,165.293 111.627,165.293 117.504,164.293 121.756,165.293 124.631,166.794 
		126.006,165.168 126.006,163.418 130.883,164.668 133.508,165.669 134.385,163.543 134.385,160.542 133.385,156.667 
		131.258,154.416 125.758,152.04 120.131,149.414 116.254,147.664 114.879,144.539 116.881,142.537 120.379,141.162 
		122.006,140.287 123.256,137.036 122.256,133.41 120.879,131.41 116.881,128.284 114.252,124.908 112.504,114.03 112.254,119.907 
		112.627,124.158 114.504,127.659 117.006,130.41 120.631,133.535 122.131,136.661 120.006,137.036 118.129,137.786 
		114.754,138.537 112.254,141.162 112.504,139.411 114.629,137.036 	"/>
	<path d="M92.061,99.984l-3.064-2.021l2.627-0.688l2.438-0.875v-1.125l1-0.812l-0.562-1.312l-6.627-1.375l-6.127-1.876h-6.252
		l-7.127,1.626l-5.375,4.751l-2.625,4.75h4.625l4.127-1.042h4.375l-0.625,1.042l-6.127,3.126l6.127-2.125l0.625,1.063l2.627,2.313
		l-1.814-2.813l-0.812-0.875l1.752-1.125l1.25-0.313l-0.062,2.751l1.438,1.938l3.127,1.063l2.25-0.562l1.75-0.938l0.625-2.001
		v-1.312l-1.127-1.812l3.127,0.937l1.752,1.376l0.562,1.062l-1.627,2.438l1.877-0.562l2.312-1.688l0.75-0.25l1.25,1.75l-0.938-2.438
		L92.061,99.984z M79.744,102.465h-1.125v-1.188l1.125-0.438l0.938,0.813L79.744,102.465z"/>
	<polygon points="78.869,106.903 81.059,107.278 83.432,106.903 82.307,108.154 85.121,108.154 86.684,108.154 83.309,109.404 
		80.244,109.404 76.494,109.404 74.932,108.154 78.119,108.716 80.244,108.716 79.244,107.716 	"/>
	<path d="M147.762,92.149l-4.375-3.5l-3.752-1.375l-1.25,0.625l-11.502,2l-5.377,1.375l-3.252,3.001l-3.25,2.626l-2.5,5.625
		l0.625,5.627l3.625-6.502l2.25-1.667l-1.125,2.042v4.001h1.877l4.625-0.875l-2.625-0.5l-2.625-1.125l1.248-2.376l2.627-1.167
		l0.053,2.115l0.572,0.928l1.875,1.25l2.502,0.125l2.5-0.75l1.375-1.5l0.25-2.876l-0.938-2l3.189,1.376l2.125,2l-1.377,2.25
		l-5,3.125l6.377-2.875l3.375-2.5l-3.25-1.876l2.25-0.812l3.377,2.813l4.625-0.792l3-5.085L147.762,92.149z M126.381,101.402h-1.25
		v-1.417h1.25l0.752,0.709L126.381,101.402z"/>
	<polygon points="151.264,116.114 148.762,123.616 145.762,127.284 142.262,137.786 141.26,147.456 142.094,157.792 
		143.594,144.539 145.096,135.452 148.096,132.952 151.264,128.117 151.264,121.948 	"/>
	<polygon points="181.271,88.835 177.771,83.522 178.021,70.269 174.52,66.268 172.77,66.017 168.268,52.264 166.518,44.261 
		162.516,39.594 157.016,32.008 152.264,25.257 146.012,20.255 138.01,12.003 127.258,9.253 118.254,8.001 109.752,2.75 100,0 
		89.998,0 80.744,4.25 70.242,6.501 56.988,10.252 45.902,15.254 41.984,23.506 33.232,32.258 30.23,38.76 21.729,49.013 
		21.729,52.514 19.229,59.016 19.229,72.269 21.229,87.773 16.729,93.775 20.729,101.277 27.73,125.533 31.23,133.285 
		32.732,140.787 36.232,145.789 38.984,154.291 46.486,159.792 46.486,148.539 46.324,141.279 46.734,143.122 48.902,152.04 
		52.404,161.293 56.404,169.962 62.238,176.797 58.404,169.962 51.736,154.791 50.234,147.456 46.734,134.786 46.115,137.352 
		43.484,138.787 40.734,135.536 36.982,132.535 32.982,125.283 31.732,119.782 37.984,122.782 39.484,127.534 43.736,127.783 
		48.236,130.452 51.902,124.783 45.902,113.366 50.57,102.443 45.902,100.109 51.902,88.835 51.902,83.772 51.902,79.104 
		51.902,69.436 51.902,61.1 55.57,52.097 60.738,46.095 73.408,44.762 86.412,41.761 91.914,41.761 105.416,41.761 119.422,39.594 
		130.424,40.428 139.426,42.928 143.928,48.096 149.764,56.765 150.596,67.768 152.43,74.27 152.43,85.022 153.432,98.109 
		154.264,115.113 153.264,124.115 154.264,128.784 153.098,142.287 149.93,154.624 143.928,169.293 139.594,173.295 138.76,163.793 
		135.592,172.295 131.592,178.797 125.256,183.632 124.424,188.799 120.422,192.466 113.42,194.801 106.418,196.468 97,196.468 
		90.414,195.802 81.244,191.8 72.41,185.799 65.908,180.297 72.41,188.633 80.244,194.634 88.914,197.635 97,199.969 
		109.752,199.969 120.254,196.636 126.424,190.3 133.092,184.965 140.76,176.629 144.93,169.293 150.93,155.124 153.098,148.455 
		157.766,146.539 162.016,140.287 164.268,133.535 164.268,129.285 169.268,123.533 174.52,119.782 176.521,113.366 
		179.521,104.933 183.271,96.525 	"/>
	<polygon points="65.24,85.272 72.242,83.438 82.244,84.356 87.912,84.356 81.578,85.272 72.41,84.356 	"/>
	<polygon points="74.932,74.103 85.246,72.77 94.498,74.103 99,74.103 94.498,75.436 85.078,74.103 	"/>
	<polygon points="111.92,75.436 120.756,75.436 131.195,74.103 137.594,72.77 143.928,74.103 135.76,70.935 129.758,73.185 
		121.756,74.103 	"/>
</g>
</svg>
