<?xml version="1.0" encoding="utf-8"?>
<!-- Generator: Adobe Illustrator 17.0.2, SVG Export Plug-In . SVG Version: 6.00 Build 0)  -->
<!DOCTYPE svg PUBLIC "-//W3C//DTD SVG 1.1//EN" "http://www.w3.org/Graphics/SVG/1.1/DTD/svg11.dtd">
<svg version="1.1" id="Layer_1" xmlns="http://www.w3.org/2000/svg" xmlns:xlink="http://www.w3.org/1999/xlink" x="0px" y="0px"
	 width="269.333px" height="322px" viewBox="0 0 269.333 322" enable-background="new 0 0 269.333 322" xml:space="preserve">
<path fill="#231F20" d="M262,218.667L261.333,202l-4.667-18.667L269.333,180l-16.667-28.667L260,146l-6.666-16.667L256.667,110
	l-3.333-12.667L264.667,96l-5.333-11.333L246,57.333V32l-6-11.333l-16.667-10.333L222.667,22v9.333H200l-21.333-21h-11.333L152,0
	l-11.333,4H130l-12-4h-9.333l-14,9.333l-9.333,2L66,26.667l-18,2L41.334,22l-1.667-11.667l-20,19l-8,32v17l-5,4.333L0,89.333h11.333
	l-6,11.333h3.333L4,129.333h6l-6,20h10L4.667,168v15.333L0,206l7.333,7.333L0,238l19.833,6.667v22.667L46.667,254v25.333L56,276
	l3.333,11.333l22.667-8L73.334,302l29.333-8.667V302v5.333l10-12l20,21.333V296L144,322l4.667-24.667L162,302v-12l22,4.667
	l-4.667-14l8,3.333l7.333-2.667L207.334,284v-11.333l16,2.667l6-12.667L240,264v-12.667l15.333,2v-18l14-1.333L258,222.667
	L262,218.667z M156.667,50L148,60.667l-6-13.333h-7.333h-11.333L116,60.667l-9.333-10l-8,4H87.334l14-20.667h64l9.333,26.667
	L156.667,50z"/>
</svg>
