<?xml version="1.0" encoding="utf-8"?>
<!-- Generator: Adobe Illustrator 17.0.2, SVG Export Plug-In . SVG Version: 6.00 Build 0)  -->
<!DOCTYPE svg PUBLIC "-//W3C//DTD SVG 1.1//EN" "http://www.w3.org/Graphics/SVG/1.1/DTD/svg11.dtd">
<svg version="1.1" id="Layer_1" xmlns="http://www.w3.org/2000/svg" xmlns:xlink="http://www.w3.org/1999/xlink" x="0px" y="0px"
	 width="291.37px" height="214.321px" viewBox="0 0 291.37 214.321" enable-background="new 0 0 291.37 214.321"
	 xml:space="preserve">
<polygon fill="#231F20" points="13.284,0 0,44.281 0,82.363 6.642,73.507 9.299,105.389 15.941,117.345 19.484,136.386 
	26.569,155.427 30.111,147.456 34.982,166.497 44.281,171.811 46.495,166.94 52.695,185.538 65.979,194.837 79.263,204.579 
	81.92,198.822 93.876,209.007 103.618,214.321 116.902,214.321 123.987,209.893 117.345,193.509 117.345,187.309 102.732,170.04 
	102.732,159.855 91.219,138.6 88.562,124.43 88.562,112.917 118.673,96.533 130.629,99.633 141.7,98.747 150.999,99.633 
	161.626,98.747 177.125,94.319 205.022,110.703 205.022,124.873 197.494,139.928 185.538,158.084 185.538,168.268 176.239,178.453 
	173.139,194.394 168.268,207.679 193.066,214.321 234.247,191.737 242.218,178.896 242.218,184.21 257.273,162.955 261.259,167.826 
	272.329,136.829 281.628,121.33 281.628,102.732 289.156,84.577 291.37,88.119 291.37,55.794 291.37,28.34 277.643,0 
	278.086,25.683 273.215,36.311 270.558,65.093 264.358,83.691 236.461,97.861 195.28,69.079 169.26,64.348 148.219,66.517 
	126.601,62.048 107.16,64.208 92.99,72.621 73.064,89.005 57.565,104.503 34.982,88.562 23.026,70.407 16.384,37.639 "/>
</svg>
