<?xml version="1.0" encoding="utf-8"?>
<!-- Generator: Adobe Illustrator 16.0.0, SVG Export Plug-In . SVG Version: 6.00 Build 0)  -->
<!DOCTYPE svg PUBLIC "-//W3C//DTD SVG 1.1//EN" "http://www.w3.org/Graphics/SVG/1.1/DTD/svg11.dtd">
<svg version="1.1" id="Layer_1" xmlns="http://www.w3.org/2000/svg" xmlns:xlink="http://www.w3.org/1999/xlink" x="0px" y="0px"
	 width="200px" height="200px" viewBox="0 0 200 200" enable-background="new 0 0 200 200" xml:space="preserve">
<g>
	<polygon points="174.982,78.002 170.134,73.588 172.177,70.236 162.479,69.593 151.506,65.331 134.409,62.329 126.497,59.717 
		115.271,56.655 104.042,56.655 85.668,54.103 71.634,52.572 58.619,49.765 51.729,46.959 42.542,45.682 31.824,46.959 
		25.955,49.255 24.679,53.593 26.721,58.186 31.058,63.545 35.907,67.385 38.458,69.593 35.142,78.002 32.844,84.707 34.887,89.904 
		37.948,94.432 41.265,98.425 42.797,101.824 44.252,103.157 42.031,111.775 42.031,117.645 43.143,113.562 44.252,109.146 
		45.851,104.624 45.858,104.629 47.39,109.146 47.39,116.113 44.329,119.941 43.307,123.55 44.584,125.691 49.432,129.61 
		46.369,125.334 47.9,120.452 50.706,112.795 49.688,106.445 52.494,101.568 52.494,98.425 54.535,93.032 59.128,88.339 
		55.046,86.384 57.853,82.473 61.681,81.048 60.404,79.288 63.722,73.168 68.826,68.489 75.716,65.331 85.668,65.331 97.661,67.385 
		103.021,68.489 115.017,70.236 126.497,74.399 129.049,75.879 131.346,81.048 137.728,84.707 141.299,91.168 141.299,95.575 
		143.85,103.354 145.894,107.692 144.361,118.155 144.361,126.543 145.894,131.104 147.422,132.587 147.422,127.697 
		145.637,126.543 146.147,118.411 149.466,111.775 154.313,103.864 158.906,103.098 163.501,100.464 164.774,94.432 164.774,89.904 
		166.053,86.384 162.734,84.707 171.155,82.194 176.771,78.17 179.321,73.588 	"/>
	<polygon points="149.21,121.763 150.741,119.941 149.976,115.858 152.271,121.763 150.741,125.225 149.21,129.61 149.21,123.906 
		150.741,122.735 	"/>
	<polyline points="83.457,138.314 80.225,143.929 81.075,148.691 80.225,153.115 76.651,159.239 76.651,162.981 80.054,163.833 
		82.775,163.833 89.922,163.833 91.792,163.152 96.556,163.833 100.469,164.854 104.382,164.854 107.614,164.854 109.485,164.854 
		109.485,156.688 104.892,151.584 105.912,148.862 102.851,148.691 99.276,150.903 97.066,151.584 93.069,151.584 90.432,148.862 
		87.539,147.842 83.627,146.486 83.116,144.95 83.116,142.398 84.308,139.676 	"/>
	<polyline points="76.651,169.448 85.156,164.854 87.88,164.854 85.668,167.151 90.091,167.916 93.069,168.427 96.725,167.916 
		102,168.256 104.042,169.448 107.103,171.999 105.742,171.999 100.81,171.999 96.385,171.999 93.069,172.679 87.88,171.828 
		84.308,170.298 76.651,170.127 	"/>
	<polygon points="95.57,180.083 97.917,179.145 99.958,177.103 104.211,175.912 102,174.892 98.257,176.763 96.725,179.145 
		93.665,179.145 91.113,179.145 86.858,178.294 84.478,175.4 86.858,175.4 84.817,174.551 79.373,172.679 81.926,174.892 
		85.156,178.804 85.769,179.123 80.734,180.846 78.353,181.867 82.061,183.058 85.769,183.058 90.432,183.058 94.854,183.058 
		96.896,183.058 100.81,184.079 97.066,181.601 	"/>
	<polygon points="53.514,153.796 58.448,167.066 62.021,176.252 66.953,184.079 71.206,191.053 77.673,195.646 86.178,199.049 
		93.665,199.9 100.469,199.9 107.103,197.008 113.737,191.394 120.544,184.079 127.008,179.315 130.751,172.679 125.646,178.379 
		121.733,181.697 119.012,184.079 113.059,190.033 106.253,196.156 102,196.328 98.597,198.029 93.665,197.518 91.282,197.518 
		85.838,195.646 80.054,194.114 76.651,190.543 74.78,186.119 73.759,179.996 73.759,175.572 70.527,175.912 66.953,173.36 
		64.062,168.767 60.829,163.833 57.938,160.941 55.386,155.498 53.514,152.605 52.832,150.053 	"/>
	<path d="M91.282,112.456l-6.126-6.634l-3.742-2.551l-3.062-1.702l-3.403-0.511l-3.571-1.872l-2.893,0.682v-0.682h-3.913
		l-4.764,2.042l-3.572,6.125l3.275,0.468l3.062-0.512l1.659,0.64l3.316-1.021l5.615-0.127l6.251,4.21l-2.764-0.892l-3.615-0.129
		l-4.722,0.383l-2.807,1.403l-4.082,2.296l2.169,0.383l-2.807,4.084l1.785,2.423l3.956,3.189l3.444,0.383l4.722,1.022l5.996-2.821
		l-2.339-0.879l2.723-1.659l-3.572,1.021l-2.682,0.892l-3.316-0.253l-3.19-1.022l-2.296-1.275l-0.383-1.914l2.679,1.148
		l-1.657-2.042l0.892-0.893l3.7-1.659l-1.021,1.02l-0.383,2.043l0.766,1.785l1.786,1.404l2.68-0.255l2.426-1.404l0.85-2.935
		l-0.595-1.659l2.679,1.659l2.169,2.296l1.532,2.297l2.04,1.361l1.532,3.743l3.572-2.821l0.596-6.195L91.282,112.456z
		 M76.651,116.496l-1.702-0.637l1.149-0.893l1.147,0.893L76.651,116.496z"/>
	<path d="M134.919,115.093l4.211,1.531l-0.639-1.405l-1.914-5.102l-3.572-1.659l-6.508-1.021v0.638l-5.104-0.638l1.151,1.276h-3.701
		h-2.298l-3.954,1.276l-4.211,1.659l2.211,0.723l-0.256,0.511l2.808-0.511l-1.529,1.53l2.637,0.767l-1.533,1.191l-4.337,2.552h2.807
		v2.126l-2.127,1.105l1.446,0.17l2.211,1.446l-0.85-1.446l0.425-1.276l2.297-1.787l1.701-0.852l1.617,0.086l-1.872,1.786v2.297
		l1.02,1.957l1.873,1.021h1.361l1.53-0.511l1.445-1.361l0.489-0.851v-1.871l-0.913-1.702l0.913,0.085l2.574,1.617l0.68,1.531
		l0.851,0.17l1.617,0.582l1.275-0.582l-2.211-1.701l-4.255-2.807l-3.486-0.765l-3.657,0.255l1.616-1.276h3.488l2.975,0.851
		l3.147,1.531l2.298,1.531l1.318,1.447l-0.127-1.277l-2.425-2.296l-4.338-1.787h3.828L134.919,115.093z M120.628,119.431h1.618
		v1.446h-0.682l-0.937-0.765V119.431z"/>
	<polygon points="110.506,125.556 112.803,127.342 115.186,127.342 119.012,129.61 123.181,129.61 128.285,126.916 132.367,124.195 
		129.646,123.684 127.094,125.045 122.16,126.747 118.843,126.647 115.1,125.045 113.568,126.066 	"/>
	<polygon points="142.064,138.08 145.382,137.147 142.064,142.311 142.064,143.721 145.382,142.311 142.064,146.486 139.13,148.875 
		136.705,157.969 139.13,147.227 141.044,141.377 	"/>
	<polygon points="45.349,131.104 46.88,135.554 51.473,139.53 51.473,145.333 51.473,135.554 51.473,127.697 49.94,135.334 	"/>
	<polygon points="110.506,115.008 108.38,115.008 105.403,115.008 102,114.157 105.232,117.049 107.103,116.242 110.506,116.242 	
		"/>
	<polygon points="179.321,71.702 174.728,69.593 166.307,67.385 155.589,64.566 153.549,63.035 153.549,57.931 153.549,40.834 
		152.271,28.074 147.678,17.611 141.044,11.488 121.437,3.065 102,0.003 85.156,1.535 71.123,6.638 61.17,18.123 56.236,35.854 
		54.28,45.682 64.741,48.744 84.138,52.062 100.214,53.848 114.759,54.613 127.008,58.441 152.271,64.693 155.334,65.714 
		158.906,66.48 165.669,68.266 173.196,70.179 	"/>
</g>
</svg>
