<?xml version="1.0" encoding="utf-8"?>
<!-- Generator: Adobe Illustrator 17.0.2, SVG Export Plug-In . SVG Version: 6.00 Build 0)  -->
<!DOCTYPE svg PUBLIC "-//W3C//DTD SVG 1.1//EN" "http://www.w3.org/Graphics/SVG/1.1/DTD/svg11.dtd">
<svg version="1.1" id="Layer_1" xmlns="http://www.w3.org/2000/svg" xmlns:xlink="http://www.w3.org/1999/xlink" x="0px" y="0px"
	 width="401.898px" height="152.333px" viewBox="0 0 401.898 152.333" enable-background="new 0 0 401.898 152.333"
	 xml:space="preserve">
<path fill="#231F20" d="M372.898,0c-15,0-350,0-350,0c-17,0-24.333,21.667-22.667,33.667c1.667,12,19,114.667,19,114.667
	l7.667,5.333l4.333-89.333c0,0,0-5.667,5-5.667s4.667,4.667,4.667,4.667l2.667,86.333l2,4h4L54.231,64c0,0,1.333-6,6-6
	c4.667,0,4.667,6.333,4.667,6.333l2,85.333l4,4l2.667-2.333l5.667-87c0,0,0-6.333,4.333-6.333c4.333,0,5,8,5,8l2,84.667l3.333,3
	h4.333l4-88.333c0,0,2.667-5.333,6-5.667c3.333-0.333,4.667,6,4.667,6l3,85l2.333,3h3.333l5.333-90.333c0,0,0.667-4,5.333-4.333
	c4.667-0.333,4.667,7,4.667,7l1.667,84.333l4,3.333l3-2L150.231,67c0,0,1.667-7,5-7c3.333,0,4.667,5.333,4.667,5.333l2.333,83.333
	l2.667,5l4.667-2l5.333-88c0,0,1-4,4.667-4.667c3.667-0.667,4.667,4.333,4.667,4.333l3,87.333l2.667,3l3.667-1.333L198.898,64
	c0,0,0.667-6.333,4.667-6.333s4.333,6,4.333,6l2.333,85.667l2.167,4.333l5.5-2.667l4.333-88.333c0,0,2-4.333,5-4.333
	s4,5.667,4,5.667l3,85.667l3.333,4l3.333-2.333L246.231,63c0,0-0.667-3.667,4-3.667c4.667,0,6,4,6,4l2,86.667l4.333,2.333
	l2.667-2.333l5.333-87.333c0,0,0.667-2.667,4-3c3.333-0.333,5,4.333,5,4.333l2,84.667l5,3.667l3-0.333l5.333-88c0,0-0.667-5,3.667-5
	c4.333,0,3.667,4.667,3.667,4.667L304.898,149l3,4.667l4.333-2l7-89c0,0,1-4,3.667-4.667s5.333,5.333,5.333,5.333l1.333,85l2,5.333
	l4.667-1.667l6-88.667c0,0,0.667-4.667,4.333-5.333c3.667-0.667,4.667,5.667,4.667,5.667l3.333,90h5.333l7.333-89
	c0,0-0.333-5.667,3.667-5.667s4.667,10,4.667,10l7.333,82c0,0,19-110,19-123S387.898,0,372.898,0z M252.352,24.192
	c-0.477,2.806-1.206,5.555-2.428,8.142c-2.638,5.567-6.644,9.756-12.29,12.353c-3.013,1.385-6.18,2.205-9.44,2.407
	c-2.712,0.168-5.446,0.12-8.174-0.422c-4.904-0.972-9.203-3.148-13.136-6.114c-1.747-1.316-3.424-2.73-5.06-4.181
	c-0.672-0.596-1.113-0.652-1.825-0.082c-2.22,1.787-4.44,3.583-6.763,5.231c-3.463,2.458-7.24,4.238-11.448,5.108
	c-3.384,0.699-6.775,0.724-10.137,0.218c-4.096-0.615-7.893-2.119-11.326-4.507c-4.474-3.115-7.69-7.216-9.473-12.346
	c-0.709-2.041-1.028-4.223-1.468-6.352c-0.158-0.769,0.561-1.375,1.307-1.033c0.761,0.351,1.498,0.866,2.077,1.469
	c1.511,1.571,3.048,3.069,5.073,3.98c2.653,1.193,5.198,0.728,7.415-0.884c2.534-1.841,4.879-3.944,7.262-5.984
	c2.882-2.465,5.846-4.794,9.593-5.767c5.885-1.527,11.103-0.183,15.583,3.903c1.056,0.964,1.968,2.084,2.67,2.833
	c1.033-0.838,2.061-1.595,3.001-2.448c2.475-2.24,5.268-3.96,8.546-4.598c4.936-0.961,9.529,0.041,13.462,3.24
	c2.571,2.092,4.931,4.444,7.425,6.63c1.844,1.615,3.764,3.134,6.217,3.763c2.271,0.583,4.43,0.406,6.269-1.116
	c1.71-1.416,3.277-2.998,4.926-4.486c0.521-0.474,1.077-1.156,1.861-0.764C252.838,22.769,252.452,23.616,252.352,24.192z"/>
</svg>
