<?xml version="1.0" encoding="utf-8"?>
<!-- Generator: Adobe Illustrator 17.0.2, SVG Export Plug-In . SVG Version: 6.00 Build 0)  -->
<!DOCTYPE svg PUBLIC "-//W3C//DTD SVG 1.1//EN" "http://www.w3.org/Graphics/SVG/1.1/DTD/svg11.dtd">
<svg version="1.1" id="Layer_1" xmlns="http://www.w3.org/2000/svg" xmlns:xlink="http://www.w3.org/1999/xlink" x="0px" y="0px"
	 width="200px" height="89.995px" viewBox="0 0 200 89.995" enable-background="new 0 0 200 89.995" xml:space="preserve">
<g>
	<g>
		<path fill="#020202" d="M90.795,58.146l-3.392,2.326l-5.232,0.871l5.522-4.457l2.616-2.326l0.485-1.744l-3.198,2.81l-3.779,1.938
			l-3.876,0.195l1.938-2.133l5.62-2.906l3.004-0.582l-1.551-0.582l-4.554,1.26l-5.33,2.424l-3.392,2.615l-2.034-0.193l2.034-2.713
			l3.586-2.228l6.104-1.357l4.264-0.291l-7.219-0.193l-2.762,0.389l1.744-0.873l2.374-0.387l4.603-0.227h-6.977l-5.685,1.809
			l-6.461,5.686L58.14,68.386l-9.303,2.842l-9.302-1.291l-10.078-4.395l-11.369-8.525l-7.235-8.787l-4.651-9.818l-5.684-17.57
			l6.718,25.193l5.426,9.689l11.628,10.854l11.628,6.459l13.954,1.809l12.145-1.291l15.504-4.393l8.269-6.203l6.46-3.1v-5.426
			L90.795,58.146z M76.114,62.265l0.969-2.229l2.277-1.406l3.876-0.436l1.938-0.389l-1.599,0.775l-2.762,1.891l-2.858,1.744
			l-1.211,1.309l-2.423,0.338L76.114,62.265z M66.667,69.435l-2.907,0.92l-6.299,1.164l7.364-3.73l3.925-3.102l3.488-3.537
			l-3.295,4.312l-2.131,1.646l-1.018,0.969l3.488-0.775l3.634-2.324l-3.246,2.762L66.667,69.435z M82.703,63.96l-2.034,1.018
			l-2.156,0.969l-1.865,1.404l-3.73,1.115l3.73-2.422l2.132-2.182l2.374-0.727l2.955-0.582L82.703,63.96z"/>
	</g>
	<g>
		<path fill="#020202" d="M195.348,34.019l-4.134,9.301l-6.072,9.432l-5.814,5.686l-5.685,5.168l-3.747,2.584l-6.977,3.102
			l-7.364,2.195l-7.622-0.389l-5.943-2.195l-2.584-2.584l-4.135-4.521l-5.556-4.135l-3.488-3.23l-4.393-3.617l-4.005-1.422
			l-3.746-0.129l-3.424,1.035l5.297-0.389l3.553,1.162l-5.813-0.258l-2.003,0.193l4.069,0.84l4.717,1.164l3.617,2.324l1.421,2.713
			l-2.52-0.387l-1.68-2.197l-4.069-1.744l-3.23-0.451l-3.035-1.164l1.679,1.94l5.749,1.68l0.97,1.42l-2.39-0.129l-2.326-0.258
			l-2.325-1.293l-2.067-1.744l1.292,2.133l2.907,1.615l2.648,0.904l3.94,0.516l2.261,3.166l2.325,3.037l2.585,2.26l-4.006-2.26
			l-2.584-2.326l-2.906-1.422l-2.068-1.355l-2.906-1.164l-2.713-1.549l-1.68-2.779l1.485,3.23l1.615,1.227l3.165,1.744l1.68,1.035
			l-2.196-0.193l-1.939-0.906l-2.261-0.709l-1.356-2.197l-0.84-2.195l-0.388-1.486l0.064-1.809l-1.809,2.195l0.904,4.393
			l3.876,3.231h1.292l3.488,3.746l5.556,3.49l5.814,2.842l8.656,1.42l9.818,1.293h6.977l5.557-1.162l7.881-1.939l5.942-3.617
			l7.752-6.459l4.78-4.652l2.455-3.359l4.393-7.752l3.488-8.527l2.455-7.363l1.809-9.172L195.348,34.019z M124.16,68.126
			l-3.165-1.486l-2.326-1.68l-3.424-1.937l4.07,0.389l1.873,1.355l2.455,2.004l3.101,1.744L124.16,68.126z M135.917,63.669
			l2.003,2.1l-2.713-1.002l-1.938-3.166L135.917,63.669z M139.922,71.421l-4.845-1.808l-2.972-1.098l2.003-0.453l-3.295-1.938
			l-4.069-3.617l3.359,1.613l2.52,2.197l2.972,1.809l3.101,1.873l4.586,1.422H139.922z"/>
	</g>
</g>
</svg>
