<?xml version="1.0" encoding="utf-8"?>
<!-- Generator: Adobe Illustrator 16.0.0, SVG Export Plug-In . SVG Version: 6.00 Build 0)  -->
<!DOCTYPE svg PUBLIC "-//W3C//DTD SVG 1.1//EN" "http://www.w3.org/Graphics/SVG/1.1/DTD/svg11.dtd">
<svg version="1.1" id="Layer_1" xmlns="http://www.w3.org/2000/svg" xmlns:xlink="http://www.w3.org/1999/xlink" x="0px" y="0px"
	 width="200px" height="200px" viewBox="0 0 200 200" enable-background="new 0 0 200 200" xml:space="preserve">
<g>
	<polygon points="97.818,114.847 97.818,119.795 78.17,123.197 70.748,125.981 65.49,125.981 57.139,121.651 46.211,113.404 
		55.078,123.094 61.881,125.981 70.336,129.279 77.346,130.516 83.119,127.425 92.604,124.95 96.314,124.744 97.818,125.981 
		99.82,124.95 106.211,126.188 112.809,128.662 118.377,130.516 126.213,129.074 139.201,122.889 145.387,115.259 138.789,121.96 
		126.623,127.012 115.49,124.331 103.736,120.826 98.994,120.208 	"/>
	<polygon points="71.984,142.27 78.789,133.816 91.367,128.868 97.818,130.516 103.531,128.868 112.189,132.167 115.078,132.991 
		120.025,133.61 124.975,136.91 128.48,144.951 121.057,139.383 117.758,136.084 114.254,135.054 109.305,133.816 104.562,134.641 
		100.232,135.878 97.818,135.981 95.799,135.362 93.221,135.26 91.676,135.26 88.893,134.847 85.283,135.568 83.426,134.745 
		79.406,136.91 78.48,137.837 75.488,141.341 	"/>
	<polygon points="82.396,139.279 90.645,141.341 94.355,141.341 98.377,140.723 104.047,140.723 110.025,139.279 114.975,137.424 
		106.314,141.341 107.346,142.167 108.479,144.951 104.871,145.464 103.736,147.012 102.398,144.434 100.232,144.331 
		97.818,144.951 96.52,145.774 94.045,147.012 90.025,148.558 89.201,146.496 91.469,142.167 	"/>
	<polygon points="75.9,155.054 82.396,153.197 87.861,150.105 92.809,149.795 98.686,149.487 107.861,150.105 111.779,152.579 
		116.109,152.579 116.729,155.054 114.975,153.61 111.572,153.12 107.705,150.647 98.686,150.028 92.859,150.26 87.99,150.801 
		82.396,153.816 	"/>
	<polygon points="55.902,148.558 64.768,162.682 71.984,167.836 83.736,171.136 89.51,167.218 92.396,170.105 92.396,165.362 
		94.871,167.836 94.871,166.806 97.818,169.692 101.057,171.136 101.057,166.599 102.912,164.951 102.912,167.836 105.387,171.136 
		109.717,167.012 108.066,171.136 112.189,171.136 119.82,168.868 126.004,166.393 132.809,163.095 138.789,158.352 128.48,167.631 
		115.902,174.229 106.418,179.178 104.975,182.476 101.264,182.476 102.5,187.836 98.686,190.724 100.232,197.94 95.799,200.001 
		94.871,190.518 88.479,187.22 88.479,181.239 86.006,178.766 82.396,176.497 74.664,174.28 69.51,170.724 64.768,165.57 
		60.85,159.589 	"/>
	<path d="M47.035,111.135c0,0-3.094,1.546-3.094,2.269c0,0.721,0,5.669,0,5.669v3.402l2.27-0.515l1.65,0.515l1.029-2.783
		l-2.475-1.855l-0.205-2.887L47.035,111.135z"/>
	<path d="M50.746,127.218v4.123l-1.855,2.269l-1.855,1.65l-2.475-1.135l-0.619-2.577v3.712l2.475,0.825c0,0,2.062,0.309,2.475,0
		c0.412-0.31,2.682-2.989,2.682-2.989l0.721-2.579L50.746,127.218z"/>
	<polygon points="47.551,108.042 43.941,104.537 42.705,98.558 41.26,99.073 38.994,105.877 38.994,108.765 40.23,112.166 
		40.127,114.743 42.293,119.485 42.293,122.475 44.664,127.218 47.551,125.569 45.387,127.733 44.457,127.733 41.984,123.506 
		41.469,121.96 41.469,119.897 39.818,116.806 37.758,115.464 39.201,119.073 36.004,113.404 34.768,110.414 35.592,105.362 
		36.623,99.794 39.096,97.32 41.16,97.939 43.324,97.733 44.664,103.919 	"/>
	<polygon points="47.551,101.856 46.211,97.733 44.664,95.156 40.127,95.156 40.643,94.125 36.312,80.826 36.312,74.64 
		38.377,70.516 39.613,57.32 41.16,49.073 39.406,43.918 41.16,41.65 41.932,38.557 43.941,33.814 44.768,32.578 44.973,29.279 
		48.891,27.217 50.334,23.712 54.664,22.475 58.582,17.526 63.324,16.496 68.273,12.166 71.984,9.072 75.49,9.072 79.201,4.743 
		80.85,7.835 83.531,4.743 84.77,6.599 88.273,3.505 91.367,3.505 92.398,5.567 95.799,2.269 103.738,2.269 107.861,0 113.223,1.65 
		118.584,2.887 121.883,6.187 124.77,9.897 125.594,9.072 129.924,12.372 134.666,14.846 139.201,19.176 141.264,19.794 
		143.943,22.269 145.387,25.155 148.688,25.568 151.779,30.516 151.779,34.64 154.254,35.258 156.727,38.557 156.727,43.506 
		158.172,45.362 158.172,47.836 158.172,52.166 158.996,54.846 157.141,57.114 158.996,59.176 158.996,62.27 160.027,63.918 
		157.76,67.835 160.027,74.229 158.996,78.559 157.965,82.682 156.316,85.98 156.316,89.485 156.418,90.723 160.541,90.62 
		163.326,92.373 158.893,91.857 154.871,91.651 153.016,93.61 152.604,98.868 150.645,91.445 150.336,80.62 150.748,68.867 
		149.408,61.238 150.645,60.62 149.408,57.527 146.213,47.114 139.512,36.599 134.252,30.31 126.418,24.125 118.48,19.691 
		110.955,18.351 106.109,19.278 92.604,18.454 86.83,18.248 80.439,19.278 72.396,22.372 64.047,29.073 55.594,38.558 
		50.955,47.836 48.582,52.991 48.582,56.909 46.83,59.795 48.994,60.105 46.934,62.475 47.551,68.559 47.551,75.053 46.727,80.414 
		47.035,85.672 47.035,90.31 47.551,96.806 	"/>
	<polygon points="153.789,101.856 157.037,94.589 159.82,93.352 161.984,93.352 163.996,96.444 165.232,102.63 165.232,107.733 
		162.449,114.073 160.594,116.806 160.131,121.96 157.811,124.125 157.811,127.733 155.646,125.516 158.428,121.574 
		159.512,118.712 159.512,115.621 160.516,113.404 160.516,110.981 161.83,108.274 161.908,104.95 163.326,102.785 162.682,98.764 
		161.059,96.058 159.512,94.279 157.578,95.052 	"/>
	<polygon points="157.27,129.383 155.799,131.548 153.789,132.785 152.166,132.167 152.166,128.868 150.463,124.589 
		150.463,123.197 148.764,127.991 148.764,130.516 150.541,132.785 152.32,133.558 154.176,133.558 155.258,132.939 
		156.572,131.935 	"/>
	<polygon points="151.857,107.191 153.016,109.202 153.016,112.681 151.238,114.847 151.238,115.774 152.127,116.779 
		152.127,118.016 151.238,118.945 152.127,119.331 153.789,119.331 155.723,119.718 157.27,119.718 157.27,115.697 158.273,112.527 
		156.418,114.073 156.496,109.667 154.756,111.831 153.789,109.279 	"/>
	<polygon points="123.943,113.456 114.975,99.691 114.975,104.795 109.098,97.32 109.098,98.764 111.264,101.856 114.047,105.387 
		113.893,108.662 110.953,111.135 109.098,112.527 109.871,114.692 111.264,112.527 114.047,110.542 114.975,107.191 
		116.729,106.006 121.779,116.806 123.943,121.96 122.861,115.621 	"/>
	<polygon points="82.396,100.002 78.48,106.496 74.924,112.527 73.686,118.712 78.041,114.692 80.799,109.64 83.893,112.527 
		82.396,109.64 82.396,106.496 84.51,101.856 86.365,100.002 83.736,100.002 84.818,97.32 	"/>
	<polygon points="94.252,108.017 88.84,105.104 86.365,106.561 85.592,108.017 86.365,109.64 88.686,109.64 91.934,109.64 	"/>
	<polygon points="91.006,111.135 88.375,112.527 86.365,112.527 87.758,111.831 	"/>
	<polygon points="103.066,107.115 104.768,105.104 106.623,105.104 109.098,106.496 109.717,108.996 106.701,109.64 
		104.613,109.022 	"/>
	<polygon points="52.293,71.393 51.416,68.3 52.293,65.516 53.117,62.732 55.902,60.876 58.066,57.011 61.006,55.31 66.881,52.99 
		65.953,55.464 69.201,52.99 72.912,52.99 76.469,52.99 79.252,52.99 81.881,52.217 85.592,53.455 87.914,54.381 89.924,53.455 
		91.006,56.856 92.859,57.011 88.686,62.887 82.965,60.104 79.098,61.805 75.695,60.259 75.23,61.805 71.984,60.259 69.355,61.805 
		68.117,59.794 65.18,60.723 63.324,59.485 62.242,61.805 59.613,61.805 57.139,65.053 54.355,64.897 54.664,67.217 53.891,69.228 	
		"/>
	<polygon points="56.83,74.331 60.695,70.31 65.645,67.835 60.541,71.393 	"/>
	<polygon points="62.551,80.749 66.262,81.831 64.406,80.362 63.711,78.815 61.777,79.976 	"/>
	<g>
		<path d="M89.924,76.96l-2.477-1.005l0.852-1.624l1.006-2.397v-2.242l-3.713-3.712h-3.246l2.629,0.851l0.617,2.629l-2.938,0.85
			l-1.855,1.083l-1.855-0.927l-0.541-0.851l-3.791-0.773l-3.4-0.619l-2.475,0.31l-3.092,0.619l-2.629,1.392l-2.32,2.165
			l-2.164,2.938l-0.465,2.474l0.85-1.933l2.32-3.093l1.934-2.01l2.475-1.161l3.016-0.773l3.479-0.232l1.934,0.619l0.154,1.005
			l-3.635,0.851l-5.566,1.005l-3.789,2.552l-0.85,2.088l-0.928,3.866l1.777-2.707l1.238-0.155l1.391-2.319l3.557-2.011
			c0,0,1.855-0.541,0.309,0.619c-1.545,1.16-1.699,2.707-1.699,4.253s2.164,2.861,2.164,2.861l6.494-0.464l3.791-1.777l0.926,0.618
			l4.949-1.778l0.078-1.082l-0.928-1.237l2.859,1.237H89.924z M67.963,76.844h-0.85V75.8l0.85-0.387l0.311,0.715L67.963,76.844z
			 M73.994,77.423l-0.309-0.463l0.309-0.696h0.93v0.581L73.994,77.423z M78.633,78.197l-2.396,1.237h-1.391
			c0,0,1.547-1.392,1.236-2.474c-0.311-1.083-0.617-3.402-2.396-3.866l3.941,1.237l2.398,2.32L78.633,78.197z"/>
	</g>
	<polygon points="85.076,83.093 80.025,88.558 74.975,90.825 68.686,92.269 77.861,87.217 68.17,89.279 81.881,83.093 
		83.943,81.444 85.076,79.691 	"/>
	<polygon points="67.346,82.784 72.139,82.784 77.756,80.323 73.686,83.3 71.365,83.3 	"/>
	<polygon points="109.098,61.805 106.391,57.32 109.717,56.392 109.717,53.918 115.902,50.928 119.613,50.928 121.779,52.217 
		125.334,50.928 126.418,50.928 132.139,50.928 134.924,52.217 138.789,52.99 138.016,55.31 142.5,56.367 142.5,58.402 
		143.893,61.805 143.893,64.28 141.109,61.805 138.48,59.485 136.314,57.604 131.83,56.392 127.809,56.856 125.143,56.392 
		122.553,58.249 118.068,59.64 114.82,59.021 113.273,61.805 	"/>
	<g>
		<path d="M133.531,71.084l-3.195-1.701l-5.98-0.722l-3.814,1.855l-1.648-0.309l3.402-2.372l4.639-0.825l5.465,1.65l5.051,2.732
			l2.268,2.938l-1.236-3.247l-5.67-3.893l-6.289-1.211l-4.639,1.211l-6.701,3.428l-2.062-0.722l3.916-3.918l4.848-2.989h-5.363
			l-7.936,5.773v1.855l-2.193,0.773h2.088l0.414,1.134l-1.754,1.186l1.959-0.722v2.783v1.238l0.619,2.68l1.34-4.33l2.475-2.268
			l6.494-1.186l-7.01,3.661l-0.104,1.443l5.361,0.928h1.443l4.227,0.876l3.713,0.876h1.752l-5.053,0.632l-5.154-1.508l4.742,2.011
			h5.67l3.918-1.758l1.34-2.468l-2.473,2.216c0,0-4.021,0.567-2.887,0c1.133-0.566,1.443-2.525,1.34-4.484s-2.783-3.428-2.783-3.428
			l2.988,0.49l3.402,2.938l1.648,1.238l2.373,3.247l-1.959-4.484L133.531,71.084z M120.928,77.037
			c-1.029,0.57-2.475-0.619-2.475-0.619l-0.695-1.133l0.773-1.573l1.934-1.16h1.234C121.699,72.552,120.113,74.515,120.928,77.037z
			 M128.273,74.331l0.773,0.542l0.852-0.542l0.385,0.657l-0.385,0.657h-0.619l-0.387-0.386h-0.619l-0.387-0.658L128.273,74.331z"/>
	</g>
	<polygon points="110.953,80.323 115.283,85.98 120.232,88.558 126.727,90.723 123.055,88.248 120.695,85.98 115.748,83.3 
		119.459,83.3 123.055,83.919 119.768,81.444 115.438,81.444 113.273,80.826 	"/>
	<polygon points="56.83,45.567 62.861,41.083 68.17,38.454 73.686,35.516 75.695,35.516 72.551,37.681 68.17,39.691 64.02,42.01 	
		"/>
	<polygon points="56.83,51.599 61.777,45.567 68.17,43.557 73.686,42.629 82.5,41.547 73.686,44.33 68.17,44.485 62.551,46.573 	"/>
	<polygon points="136.623,41.547 129.664,36.907 125.143,35.516 129.512,38.531 	"/>
	<polygon points="115.594,41.547 123.055,42.166 126.727,42.166 132.758,44.176 135.543,45.567 136.623,46.573 138.016,48.97 
		134.615,46.573 130.883,45.258 125.801,43.711 121.314,43.248 	"/>
</g>
</svg>
