<?xml version="1.0" encoding="utf-8"?>
<!-- Generator: Adobe Illustrator 16.0.0, SVG Export Plug-In . SVG Version: 6.00 Build 0)  -->
<!DOCTYPE svg PUBLIC "-//W3C//DTD SVG 1.1//EN" "http://www.w3.org/Graphics/SVG/1.1/DTD/svg11.dtd">
<svg version="1.1" id="Layer_1" xmlns="http://www.w3.org/2000/svg" xmlns:xlink="http://www.w3.org/1999/xlink" x="0px" y="0px"
	 width="200px" height="200px" viewBox="0 0 200 200" enable-background="new 0 0 200 200" xml:space="preserve">
<g>
	<path d="M94.832,112.034l2.951-3.281l-3.443,1.968l-8.529-4.265l1.803,3.937l-1.641-1.312l-4.92-1.804h-3.773l-4.264,0.656
		l-2.459,1.64l-2.297,4.593l-4.102,4.593l-2.625,0.82h3.527l3.525-3.445l1.477-3.116l2.133-1.558l2.707-1.804l4.182,0.083
		l5.004,0.983l3.689,4.922l3.199,3.116l2.871,0.819l0.164-5.413h3.771l-2.131-1.148l2.131-1.148L94.832,112.034z M91.715,114.824
		l-2.705-0.329l-3.281-3.362l3.115,1.394l0.574-1.886l2.707,2.707L91.715,114.824z"/>
	<path d="M141.828,125.896l-5.66-1.067l-1.559-3.363l3.938,1.805l-2.297-2.378l-1.312-5.413l0.656-0.984l3.363,2.789l-2.871-4.061
		l-2.871-1.271l-5.986-3.362l-6.562-2.134l-3.525,2.297l-5.168,2.214l-1.721-0.656l0.982,1.64l-5.74-3.199l4.758,4.264l-2.871,4.429
		l1.229,2.543l1.314,0.902l3.115-0.902l4.02,2.707l-0.246-3.118c0,0,0.738-0.409,2.051-1.393c0.162,2.707,1.475,3.28,1.803,3.937
		s2.953,1.067,4.43,0.656c1.477-0.41,2.707-3.2,2.707-3.2l2.131,1.724l2.789,0.327l2.133,4.347l5.332,0.82l3.197-1.64
		L141.828,125.896z M122.883,117.284c0,0-1.066,0.574-1.396,0c-0.328-0.575,0.656-1.15,0.656-1.15
		C123.127,116.052,122.883,117.284,122.883,117.284z M132.969,119.579l-4.266-3.449l-3.115-0.651h-4.168l-6.166,3.117l6.166-3.773
		h1.953h4.02l2.789,0.656l2.787,1.722V119.579z"/>
	<path d="M87.941,117.079l-4.51-3.567c0,0-1.887-1.559-2.133-1.559s-4.182,0-4.182,0l-3.691,1.641l-5.578,4.92l-2.705,3.199
		l-1.561,0.492h-4.428l4.102,0.657h2.541l1.889-2.296l2.705-2.625h1.477L74,119.579l-1.559-2.5c0,0,1.654-3.784,2.092-1.435
		c0.438,2.348,2.746,4.264,4.223,4.264s2.955-0.819,3.773-1.64c0.82-0.82,1.066-3.116,1.066-3.116l2.707,1.927l0.164,1.6
		l-0.082,1.476l1.229-1.887l2.299,0.574L87.941,117.079z M79.166,114.741c-0.82,0.738-0.82-0.575-0.82-0.575
		c0.494-0.985,1.395-0.409,1.395-0.409S80.014,113.979,79.166,114.741z"/>
	<polygon points="71.375,120.483 75.395,122.861 81.627,122.861 84.826,122.861 86.385,122.861 84.498,125.157 78.512,125.896 
		74.533,125.403 72.277,122.861 	"/>
	<polygon points="116.32,123.845 119.848,124.502 122.471,125.896 126.326,125.896 129.605,124.87 130.592,124.255 132.23,126.306 
		130.098,125.404 127.229,126.797 123.127,127.372 120.012,126.797 117.633,126.306 	"/>
	<polygon points="72.359,99.403 68.586,102.192 68.586,104.325 70.473,104.325 71.375,105.636 73.508,104.325 74.533,104.325 
		74.533,105.636 75.477,104.325 77.117,104.325 77.771,105.636 78.879,104.489 82.859,106.457 80.725,103.833 82.859,102.93 
		79.66,101.536 79.66,99.403 78.264,99.403 75.723,100.552 	"/>
	<polygon points="110.578,124.829 114.68,130.898 117.357,133.932 119.602,136.475 122.227,137.951 124.439,138.935 
		127.146,139.756 129.115,139.756 130.756,139.756 127.475,138.772 124.275,137.951 120.668,135.819 	"/>
	<polygon points="119.561,132.292 123.619,132.292 126.078,134.342 130.018,134.342 134.814,139.756 129.771,135.45 
		126.201,135.326 123.742,133.358 	"/>
	<polygon points="139.365,119.579 139.98,122.861 143.385,118.964 140.352,120.912 	"/>
	<polygon points="90.896,123.189 86.385,128.56 82.037,132.292 75.723,133.973 69.365,136.803 65.922,143.569 68.586,136.024 
		75.723,133.379 81.053,132.292 84.006,128.806 86.385,126.797 	"/>
	<polygon points="114.023,154.764 114.023,149.966 111.934,145.783 111.439,143.569 112.73,142.216 115.498,146.891 116.32,151.319 
		118.33,154.764 121.527,158.946 124.275,160.854 126.324,163.007 121.896,160.854 119.561,159.193 117.838,155.871 116.32,152.611 
		115.008,152.057 	"/>
	<g>
		<polygon points="89.631,173.224 88.805,172.233 88.848,172.674 89.42,173.504 		"/>
		<path d="M129.156,169.158l-2.707-3.322l-3.199-3.937l-4.797-0.246l-6.52,0.492l-3.324-2.706l3.814-3.322l-1.107-0.492
			l-0.738,0.492l-4.059,3.691l-1.025,0.615v-2.091l-4.92,0.492l-4.635-0.615l-2.953-3.691v-3.691l-0.738-2.46l0.369-4.798
			l-0.984-1.353h-3.197l-1.107,2.215l-1.479,2.707l-11.316,14.762l11.852-13.779l2.051-1.599l-2.051,3.322l0.82,4.182l1.23,2.337
			l2.461,1.846l2.09,0.246l-3.074,2.337h-3.527h-3.525l-3.199,0.246l-1.252-0.37l-1.66,0.37l-2.215,2.214l-3.158,3.199v4.429
			l2.42,2.583l2.584,2.091l-0.656-2.091l2.686,2.091l1.252,0.369l-1.252-2.214l2.398,1.23l0.492-1.6l2.84,2.385l0.236,0.198
			l-0.738-3.444l2.748,2.83v-2.214l2.787,2.829l-0.324-3.25l-0.043-0.44l0.826,0.99l2.248,2.7l1.107-1.599l1.23,3.444l0.738-1.723
			l1.107,1.723l1.107-1.6l1.229,0.984l0.863-1.845l2.092,1.23l1.844,0.123l0.615,2.092l1.682-1.846l0.902,0.492l1.6-0.738v1.477
			l2.582-1.477l-0.615,2.83l0.801-0.739l2.398-2.214l1.107,2.953l2.051-2.707l1.393,0.246l1.109-1.107l0.445,1.562l0.293,1.022
			l1.721,0.983l1.602-3.445h1.393l1.436-2.583l1.475,0.862v-1.599l2.586,0.737L129.156,169.158z M92.125,155.994l-2.213-1.23
			l-1.354-1.23l-0.984-3.076l0.984-1.599l1.354-3.69l0.984-0.861l0.49,0.615v3.567l0.492,3.384l0.123,2.89l3.199,4.675
			L92.125,155.994z"/>
	</g>
	<polygon points="84.498,179.492 90.896,183.798 99.262,183.798 108.857,183.798 110.088,181.645 106.643,182.444 99.262,182.567 
		92.986,182.936 89.217,181.645 	"/>
	<polygon points="68.586,93.744 75.723,90.545 78.879,92.145 90.896,93.744 97.293,95.098 87.205,95.098 79.66,93.99 76.623,92.822 
		74.533,92.822 	"/>
	<polygon points="111.439,95.098 124.275,92.822 136.414,97.25 124.275,95.037 	"/>
	<polygon points="63.994,87.102 70.557,83.493 82.939,82.672 93.027,82.672 90.896,84.149 97.783,84.313 102.707,86.282 
		110.088,85.953 119.561,87.102 119.561,85.215 126.324,86.609 134.814,87.758 141.375,91.531 134.814,89.234 127.186,88.578 
		121.242,87.102 120.668,88.578 110.578,87.102 102.684,88.085 97.783,85.79 90.896,85.625 87.941,84.969 89.912,83.738 
		82.859,83.656 71.375,84.477 	"/>
	<polygon points="61.533,81.852 69.9,75.455 83.678,72.174 70.719,77.013 	"/>
	<polygon points="74.533,78.735 86.385,77.013 93.355,77.013 102.684,77.874 108.447,77.874 119.561,77.874 124.439,80.54 
		118.123,78.776 106.314,79.884 97.783,78.776 90.896,78.776 	"/>
	<polygon points="122.389,77.751 133.379,79.884 132.23,78.244 141.375,82.672 146.338,89.562 140.598,84.477 134.363,80.54 
		134.363,82.672 	"/>
	<polygon points="79.66,87.102 83.678,88.085 90.896,88.085 97.293,92.822 90.896,89.562 83.678,89.562 	"/>
	<polygon points="109.924,105.636 109.924,98.42 118.287,98.42 110.578,99.403 	"/>
	<polygon points="99.262,95.63 99.262,102.93 100.574,95.63 99.916,93.827 	"/>
	<polygon points="52.678,152.611 51.201,160.854 48.248,156.732 44.475,163.007 41.686,160.854 41.686,164.196 39.062,157.471 
		33.812,164.196 31.189,160.854 28.893,167.148 24.463,167.969 27.908,164.032 27.908,160.854 24.463,158.783 19.051,157.799 
		22.494,153.698 17.738,152.611 14.129,152.611 21.674,145.333 19.379,142.216 20.199,138.443 15.934,138.443 16.59,133.379 
		15.441,130.242 19.051,123.845 14.129,123.845 21.184,116.134 27.416,108.589 24.793,106.457 28.4,102.027 24.955,102.93 
		27.25,98.42 25.119,97.25 25.611,92.822 21.02,100.552 23.809,90.545 21.348,89.961 23.479,83.656 24.463,78.776 26.268,75.947 
		24.463,71.519 26.76,71.519 27.252,65.777 26.596,61.02 30.697,60.2 30.533,54.951 30.533,51.342 37.26,45.601 40.703,41.664 
		44.969,40.516 45.461,36.743 51.203,28.213 61.533,18.536 72.605,12.138 79.66,13.123 82.039,8.857 85.158,9.678 83.678,3.772 
		89.912,7.873 89.912,1.968 94.014,5.577 95.654,1.968 99.262,4.921 101.889,2.952 97.293,0 106.316,0 109.924,4.101 111.439,6.561 
		113.041,3.608 115.994,9.349 115.994,7.709 118.287,10.662 122.389,11.646 122.389,16.403 125.836,8.53 124.439,17.551 
		125.836,21.98 129.281,19.191 131.25,23.128 131.25,16.895 134.363,21.16 148.801,20.503 140.436,22.144 150.934,24.276 
		158.807,29.197 157.328,31.001 163.234,34.938 159.955,38.383 166.188,40.679 164.713,43.467 173.24,53.146 169.141,53.31 
		170.617,56.426 169.469,58.066 177.998,64.792 173.732,64.792 178.818,70.86 173.896,70.533 174.881,74.633 176.357,78.776 
		174.881,78.776 176.686,83.984 173.242,85.623 180.295,99.403 181.605,106.457 180.295,109.08 181.605,115.149 184.887,121.875 
		181.443,120.912 185.871,138.277 182.918,140.901 185.871,149.596 183.082,152.611 183.738,156.977 179.146,156.813 
		178.816,164.194 179.146,168.788 172.42,163.007 172.42,170.592 165.039,160.854 162.742,160.854 160.609,158.618 158.643,161.734 
		155.197,157.633 152.08,163.703 147.98,159.766 145.52,153.532 143.385,153.696 143.385,147.136 143.385,143.569 145.355,146.643 
		148.307,143.569 148.801,136.024 149.785,126.797 152.736,123.845 148.307,125.608 149.455,117.407 150.768,111.049 
		148.801,106.457 151.752,106.457 149.129,102.93 151.752,102.93 148.307,98.378 152.9,101.042 149.621,95.098 152.244,96.121 
		150.604,92.822 155.033,95.037 150.604,89.961 153.557,89.562 152.244,83.656 150.439,80.54 152.408,79.718 148.637,68.072 
		144.535,64.299 139.365,59.175 134.363,59.175 128.625,59.175 122.389,59.175 116.32,61.183 112.385,64.463 110.578,61.019 
		109.924,62.987 108.119,61.839 107.135,64.955 105.494,62.167 102.684,64.463 101.395,62.495 99.262,63.315 97.293,62.002 
		90.896,59.175 86.385,59.175 75.723,61.511 67.77,60.034 57.926,70.533 53.17,77.013 55.465,77.013 53.498,80.54 55.631,80.54 
		53.17,85.296 56.285,85.296 53.99,92.822 55.959,92.822 54.975,95.098 56.123,98.378 52.186,102.027 50.053,108.751 
		48.248,115.477 46.443,120.912 44.639,117.407 44.639,113.018 42.344,113.018 40.375,113.018 40.375,115.313 42.344,122.861 
		44.969,126.797 45.623,124.829 45.133,132.292 46.443,139.756 49.068,142.216 51.037,142.216 	"/>
	<polygon points="59.154,170.592 65.922,176.908 69.488,179.492 65.922,172.868 74.533,183.798 82.859,192.163 89.217,195.854 
		93.602,195.854 93.602,194.378 100.574,192.163 100.574,194.624 105.494,193.886 105.494,195.854 109.924,195.854 114.105,193.394 
		120.668,187.488 124.439,183.798 129.771,179.492 126.324,186.75 118.883,194.378 108.857,198.314 102.684,200.037 93.355,200.037 
		81.053,198.314 72.605,189.703 69.734,183.798 65.922,180.599 61.533,176.908 	"/>
</g>
</svg>
