<?xml version="1.0" encoding="utf-8"?>
<!-- Generator: Adobe Illustrator 17.0.2, SVG Export Plug-In . SVG Version: 6.00 Build 0)  -->
<!DOCTYPE svg PUBLIC "-//W3C//DTD SVG 1.1//EN" "http://www.w3.org/Graphics/SVG/1.1/DTD/svg11.dtd">
<svg version="1.1" id="Layer_1" xmlns="http://www.w3.org/2000/svg" xmlns:xlink="http://www.w3.org/1999/xlink" x="0px" y="0px"
	 width="200px" height="54.004px" viewBox="0 0 200 54.004" enable-background="new 0 0 200 54.004" xml:space="preserve">
<g>
	<polygon fill="none" points="65.506,27.002 67.291,26.148 65.506,33.445 69.076,24.75 67.887,25.06 69.076,21.957 	"/>
	<path fill="#020202" d="M179.932,17.453l-6.055,3.416l-7.918,1.088h-5.279l-5.9-1.865l0.934,2.641l-5.746-3.727l-4.658-1.088
		l1.553,2.174l-6.986-4.346l-2.639,1.396l-3.416-4.191l-3.57-0.311l-4.504-1.088l-1.707,1.553l-4.191-1.553L115.5,9.225h-7.918
		l-4.504,1.242l-4.035,0.467l-3.727-1.709h-4.812h-6.057L79.945,10l-6.211,2.484l-1.553,3.262l-0.932-2.33l-2.225,1.295
		l-4.555,7.246l-1.656-3.623l-4.969,5.484v-4.553l-5.795,4.553l-2.484-4.553l-5.383,4.553l-7.453,3.727h-10.35l-7.453-5.588
		l-4.139-5.176l2.482,10.764l7.867,12.422l9.523,3.311l7.244-1.604l-1.863,2.328l9.937-1.086l-0.621,1.863h2.949l4.348-1.088
		l4.969-0.154l7.4-1.086l8.902-1.709l8.693-2.018l6.211-2.641l4.812-7.451l5.279,6.83l6.521,2.174l7.918,1.553l7.762,1.088
		l-1.397-2.02l6.832,2.484l1.242-1.396l7.451,3.105l1.398-1.865l5.898,0.777v-2.174l8.695,0.156l8.539-0.311l8.229-3.883
		l6.832-5.408l4.502-7.787l1.863-10.404L179.932,17.453z M36.314,35.637l-6.844-1.453l-7.053-4.77l6.639,3.691h2.799h3.631h-3.631
		l3.631,1.287l5.807-1.287L36.314,35.637z M69.076,24.75L63.9,31.902l3.391-5.754l-1.785,0.854l3.57-5.045l-1.189,3.103
		L69.076,24.75z M176.109,25.266l-6.43,1.736h-4.355l-6.439-1.736h7.475l7.883-1.867l4.562-2.902l-4.979,4.77H176.109z"/>
</g>
</svg>
