<?xml version="1.0" encoding="utf-8"?>
<!-- Generator: Adobe Illustrator 16.0.0, SVG Export Plug-In . SVG Version: 6.00 Build 0)  -->
<!DOCTYPE svg PUBLIC "-//W3C//DTD SVG 1.1//EN" "http://www.w3.org/Graphics/SVG/1.1/DTD/svg11.dtd">
<svg version="1.1" id="Layer_1" xmlns="http://www.w3.org/2000/svg" xmlns:xlink="http://www.w3.org/1999/xlink" x="0px" y="0px"
	 width="200px" height="200px" viewBox="0 0 200 200" enable-background="new 0 0 200 200" xml:space="preserve">
<g>
	<polygon points="100.777,112.066 95.578,110.506 92.459,105.469 85.443,102.471 75.043,101.171 69.584,101.171 63.863,104.032 
		59.443,110.506 66.463,105.838 73.223,105.838 82.322,106.891 86.742,110.506 92.982,115.99 95.322,123.529 95.322,130.029 
		96.623,121.711 96.623,117.291 91.422,111.831 95.582,112.872 100.777,114.432 105.463,113.65 108.773,112.352 105.721,118.071 
		104.941,126.648 104.941,135.75 107.281,138.609 110.662,140.689 107.541,135.488 106.5,133.408 106.762,125.35 107.281,120.93 
		108.773,117.291 113.002,111.572 118.98,109.751 127.82,108.451 133.801,107.671 139.002,108.191 143.68,111.311 139.781,106.111 
		134.322,104.293 122.361,102.99 114.301,104.293 108.773,106.34 105.238,110.237 	"/>
	<polygon points="91.418,138.869 88.039,142.248 87.129,144.979 88.82,146.016 95.838,146.928 98.699,149.787 101.562,149.787 
		106.092,147.838 108.773,145.887 110.529,145.887 111.438,147.188 108.773,149.787 106.758,149.787 101.562,152.646 
		101.562,158.107 99.738,160.186 98.178,158.367 98.178,152.646 95.838,149.527 92.199,147.447 87.391,147.182 85.928,144.752 
		86.738,142.248 	"/>
	<polygon points="65.486,120.93 72.311,118.004 77.574,118.004 81.865,118.004 85.928,120.93 81.084,119.467 80.5,122.293 
		78.354,124.828 75.705,124.828 73.676,122.879 73.09,120.93 70.945,120.93 	"/>
	<polygon points="68.021,124.828 72.895,127.754 76.988,127.754 81.865,126.291 84.01,124.828 79.523,126.291 75.705,126.291 
		73.09,126.291 	"/>
	<polygon points="88.301,118.004 84.01,115.078 79.328,113.52 74.844,113.52 69.775,113.52 67.045,115.762 70.555,114.689 
		74.26,114.689 79.135,114.689 83.035,115.762 	"/>
	<polygon points="118.719,126.291 122.814,127.754 126.557,128.047 129.248,127.023 132.369,124.828 129.639,128.924 
		125.545,128.924 121.84,128.924 	"/>
	<polygon points="135.781,121.418 131.588,118.59 127.785,118.004 123.107,118.004 118.719,119.176 115.891,120.344 
		113.355,121.904 118.719,120.93 120.863,120.93 121.449,123.756 123.01,124.828 125.545,124.828 127.98,123.658 128.762,121.418 
		128.859,120.344 131.002,120.344 	"/>
	<polygon points="113.355,119.176 118.719,115.762 125.545,114.3 131.588,115.762 135.781,118.004 130.223,116.736 125.545,115.762 
		118.719,116.736 	"/>
	<polygon points="77.672,167.725 79.676,163.027 94.93,154.076 94.93,157.586 91.42,158.562 84.01,162.852 	"/>
	<polygon points="104.68,154.076 104.68,157.781 106.238,157.781 111.438,160.186 114.975,162.711 121.449,166.555 121.449,163.826 
			"/>
	<polygon points="110.334,163.826 104.68,161.877 99.609,163.631 97.27,161.877 93.369,161.877 88.301,164.801 84.01,166.555 
		90.834,166.359 94.93,165.387 97.27,166.555 100.973,167.725 106.434,167.725 109.75,167.725 110.139,170.064 104.68,172.6 
		100.293,172.6 95.709,172.6 92.783,171.234 93.369,169.285 98.049,167.725 89.078,167.238 86.301,167.725 88.301,169.676 
		90.834,172.6 94.93,174.355 100.293,174.355 106.238,174.355 109.945,172.209 113.355,169.869 117.939,168.115 	"/>
	<polygon points="137.178,174.355 127.297,185.664 117.939,194.244 108.773,196.062 98.684,197.365 86.301,195.803 79.199,191.643 
		70.359,183.062 62.822,171.885 59.443,164.346 57.621,156.787 57.621,146.406 54.5,154.076 50.861,156.787 47.221,152.127 
		49.301,148.227 47.221,144.328 44.361,141.986 42.803,136.527 42.803,130.807 42.803,124.828 44.361,121.418 46.961,126.291 
		45.662,121.418 42.803,120.93 39.682,122.49 39.682,128.924 41.242,135.748 43.58,143.287 45.4,148.227 47.48,156.787 
		50.6,159.146 53.201,158.107 55.281,156.787 57.361,164.605 60.74,172.924 68.021,183.844 76.016,191.904 82.32,195.541 
		88.301,197.365 94.93,199.963 103.379,199.963 111.438,198.145 118.719,196.844 124.568,191.383 130.678,184.623 	"/>
	<polygon points="94.93,177.344 100.973,176.043 104.68,176.693 101.562,178.904 	"/>
	<polygon points="37.08,124.828 38.121,119.176 40.98,116.736 45.922,118.004 49.301,122.49 50.861,131.848 48.26,138.869 
		50.861,144.85 52.682,143.027 50.342,138.869 50.861,135.748 54.24,140.689 55.801,143.809 55.801,138.869 52.939,134.447 
		52.42,126.291 52.42,114.3 53.201,104.55 55.801,89.729 59.443,77.25 72.961,63.21 80.24,64.251 88.43,65.812 94.93,64.771 
		98.684,61.65 98.684,54.631 99.803,51.252 101.562,47.352 101.562,54.631 101.562,57.751 101.562,61.131 103.381,63.471 
		108.773,63.991 118.719,63.731 127.818,64.511 132.369,66.851 137.178,73.351 141.859,81.93 145.498,87.91 147.578,97.27 
		147.578,105.852 150.959,114.3 148.879,124.828 146.537,133.406 146.537,140.689 146.537,149.527 148.621,140.689 148.621,131.328 
		150.959,126.875 153.299,133.148 153.299,138.869 150.959,142.248 153.299,142.508 155.9,136.008 154.338,126.875 155.9,122.23 
		157.979,126.291 157.979,130.549 161.359,126.875 161.359,122.49 158.238,120.93 154.078,120.93 153.037,124.828 151.219,124.828 
		155.9,115.762 158.76,114.3 161.359,103.51 161.359,96.229 161.359,90.511 163.697,95.971 163.697,103.51 165.52,94.671 
		165.52,85.83 164.219,82.19 159.279,75.431 159.279,69.191 163.697,73.609 165.52,80.37 167.598,80.891 167.598,72.052 
		165.779,66.331 167.598,61.912 167.598,52.812 165.779,47.352 162.139,41.892 163.439,38.771 159.018,33.832 153.299,30.193 
		147.84,26.812 145.76,29.933 138.221,30.974 135.781,34.353 132.369,35.393 133.539,36.951 135.781,41.112 130.418,41.893 
		124.568,41.893 114.82,38.771 105.979,37.732 97.4,33.053 89.6,26.812 84.01,26.812 77.672,26.812 85.928,31.492 92.98,36.951 
		93.5,39.553 88.301,41.633 80.5,43.192 74.521,43.192 59.443,43.972 56.582,40.593 58.4,35.393 65.486,35.393 69.062,32.272 
		62.301,30.451 61.262,26.812 59.443,23.692 55.021,25.253 50.08,25.253 46.701,32.272 45.141,39.032 45.402,43.452 39.682,48.132 
		37.08,52.292 33.963,60.352 33.963,68.152 33.963,75.432 32.402,81.931 41.242,76.47 45.141,77.51 39.682,82.19 32.402,85.571 
		32.402,89.99 34.742,96.229 38.643,101.171 41.762,110.79 41.502,114.3 37.797,118.004 	"/>
	<polygon points="61.586,37.203 76.016,34.668 81.475,32.326 77.672,36.424 70.555,39.153 63.924,39.153 	"/>
	<path d="M85.928,18.946l-1.918,3.12l-1.17,1.626h3.088l9.002,3.055l6.633,4.094l7.211,2.925l11.115,3.414l-6.533-3.414
		l-5.947-3.118l-5.846-3.9l-4.098-3.055l-5.656-1.235c0,0-3.639-0.585-3.379-1.169C88.689,20.701,85.928,18.946,85.928,18.946z"/>
	<polygon points="84.01,13.487 91.809,14.657 100.002,21.288 107.02,23.692 112.088,27.137 116.574,32.012 119.889,30.841 
		119.889,27.331 122.035,25.382 125.545,25.382 123.594,29.477 121.449,32.012 118.719,33.766 114.428,32.402 111.311,28.063 
		106.045,26.356 102.533,24.603 97.465,21.482 91.42,17.778 86.74,15.632 84.01,15.632 	"/>
	<polygon points="115.988,16.216 111.504,16.216 109.945,18.946 104.775,16.216 95.32,10.952 88.43,9.586 94.344,12.512 
		100.002,16.216 106.629,18.946 110.92,22.066 112.088,18.946 	"/>
	<polygon points="115.988,14.852 115.988,9.586 117.744,6.663 115.016,8.223 113.355,10.757 107.994,9.586 97.27,5.298 
		89.469,2.957 88.301,4.908 91.029,5.493 95.709,6.273 101.365,8.904 110.334,11.733 114.623,13.487 	"/>
	<polygon points="164.738,37.18 161.812,31.427 157.133,25.772 147.969,24.603 145.822,24.603 151.479,23.627 157.523,24.797 
		162.398,29.282 	"/>
	<polygon points="164.738,28.063 160.641,20.507 156.354,16.997 153.037,15.827 144.652,15.827 141.922,17.582 138.803,18.946 
		132.369,18.168 139.389,17.192 142.508,14.852 149.725,13.487 157.133,14.852 162.203,18.946 	"/>
	<polygon points="161.812,15.827 155.279,12.123 148.555,12.123 139.193,12.123 134.514,15.827 138.803,9.586 146.797,9.586 
		154.404,9.586 159.473,10.562 	"/>
	<polygon points="155.279,6.273 145.822,4.712 137.828,6.273 130.809,8.904 130.809,13.487 132.369,14.852 132.369,11.733 
		132.369,9.782 140.754,7.637 145.822,7.051 154.207,7.637 157.133,8.904 	"/>
	<polygon points="129.053,7.832 125.545,5.883 127.297,3.738 132.369,3.738 138.803,2.957 146.992,2.957 152.648,4.712 
		145.822,0.032 137.438,0.032 129.834,1.397 125.545,3.932 120.863,5.883 123.594,6.273 	"/>
	<polygon points="128.469,16.997 125.545,20.775 129.248,22.066 130.809,29.671 130.809,22.066 131.588,16.997 	"/>
	<polygon points="125.545,16.997 122.814,13.487 119.889,12.707 122.715,18.946 119.889,18.946 117.744,18.946 120.863,20.775 
		122.619,20.775 	"/>
	<polygon points="73.09,28.063 70.752,30.403 74.453,29.233 	"/>
	<polygon points="62.949,9.586 55.539,12.707 51.445,13.487 42.477,18.946 37.602,28.063 36.041,39.153 34.676,29.233 
		37.016,22.066 41.695,16.742 50.861,11.148 55.932,11.148 	"/>
	<polygon points="60.414,6.273 51.445,6.857 45.986,8.904 39.941,14.852 36.625,18.946 36.625,20.775 34.676,17.778 38.381,12.707 
		45.986,6.857 55.346,3.932 62.949,4.712 67.24,7.832 68.215,9.782 63.924,7.832 	"/>
	<polygon points="72.602,4.712 70.752,8.904 69.385,6.808 66.264,3.932 59.443,1.202 50.08,2.957 40.525,8.904 45.596,3.932 
		51.445,1.202 59.443,0.032 66.264,0.032 72.602,1.397 	"/>
	<polygon points="74.453,3.932 80.109,2.957 84.789,4.469 86.74,6.467 87.52,3.932 84.789,2.957 81.475,1.788 78.549,1.788 	"/>
	<polyline points="67.045,14.852 69.58,18.946 72.602,23.692 75.625,24.37 75.625,18.946 70.752,14.852 69.775,11.148 
		67.045,13.487 	"/>
	<polygon points="84.789,6.467 81.475,12.354 82.84,17.759 81.475,20.775 79.328,17.759 79.328,14.852 79.328,11.148 	"/>
	<polygon points="50.469,17.759 50.469,22.066 54.957,20.775 61.586,20.775 62.949,26.552 68.215,26.552 63.924,24.37 
		61.586,18.361 56.564,18.946 52.811,18.946 	"/>
	<polygon points="40.525,42.735 37.602,39.153 39.062,33.766 42.086,26.552 46.57,22.066 43.256,28.063 42.086,32.402 40.525,37.18 
			"/>
</g>
</svg>
