<?xml version="1.0" encoding="utf-8"?>
<!-- Generator: Adobe Illustrator 16.0.0, SVG Export Plug-In . SVG Version: 6.00 Build 0)  -->
<!DOCTYPE svg PUBLIC "-//W3C//DTD SVG 1.1//EN" "http://www.w3.org/Graphics/SVG/1.1/DTD/svg11.dtd">
<svg version="1.1" id="Layer_1" xmlns="http://www.w3.org/2000/svg" xmlns:xlink="http://www.w3.org/1999/xlink" x="0px" y="0px"
	 width="200px" height="200px" viewBox="0 0 200 200" enable-background="new 0 0 200 200" xml:space="preserve">
<g>
	<polygon points="110.007,145.008 110.007,148.608 113.208,151.277 121.212,154.346 123.078,160.083 123.078,172.088 
		122.545,184.228 123.078,187.698 125.745,181.025 128.28,172.355 130.148,163.416 129.216,157.013 126.68,151.277 121.212,147.409 
		116.008,145.941 	"/>
	<polygon points="101.002,165.483 93.797,165.483 88.795,165.483 87.192,161.682 88.928,159.079 88.996,159.079 95.397,159.079 
		101.601,160.28 105.404,158.68 112.406,160.28 120.077,159.079 110.007,154.477 104.603,152.877 101.002,154.877 95.797,152.877 
		91.198,154.477 83.991,155.978 79.789,159.079 79.789,168.685 81.39,179.69 88.595,179.69 92.197,172.488 99.935,171.687 
		105.204,173.088 112.809,170.287 107.605,166.352 	"/>
	<path d="M186.445,55.225l-7.601-9.206l-9.608-8.403l-10.404-2.803l-6.803-2.4l-9.205-3.602l-8.405-3.603l-15.21-0.801l-11.204-1.6
		l-11.206,0.8l-11.606-1.6l-19.609-0.401l-19.211,4.002L29.563,30.41l9.605-7.202l22.41-5.604l19.611-2l24.014,1.601l27.613,2
		l23.215,5.604l17.606,7.604l12.807,14.007l6.404,9.205l-6.003-19.212L175.24,25.208l-24.013-8.004L137.621,7.6l-25.614-7.605
		H69.985L57.176,7.6L44.771,11.2l-17.208,5.203L13.555,35.214L7.15,48.421l3.603,26.414l6.803,11.206l6.004,12.006l5.603,9.205
		l8.804,7.203v12.408v13.208l4.002,5.203l3.47,3.602h8.004v15.476l6.403,11.738l9.871,11.076L84.925,198.5l17.208,1.471
		l20.544-0.534l13.875-7.738l3.201-7.872l1.869-6.805l-6.67,10.675l-7.207,2.533l-6.533,1.601l-4.135,0.133l-5.872-9.873v5.736
		l-2.934,4.803l-4.669-1.868l-13.342-7.87l-6.535,5.203l-8.538-2.136l-1.068-3.603l4.536,1.602l-0.533-2.668l-1.067-10.807
		l-0.399-10.003l2-7.605l7.072-4.937l4.803-3.869l9.469-4.268l6.538-1.868l4.27,2.134l2.669-4.537l-3.469-3.735l-3.47,2.136
		l-6.538,1.333l-5.467-2.402l-2.936-4.803l2.133-5.869l0.803-13.074l2.936-11.74l-3.202-4.269l-7.471-7.203l-8.806-1.869
		l-13.074,1.068l3.469-2.935l9.339-4.27l14.941-2.935l24.812,2.669l12.54,4.802l13.339,8.54l7.206,10.049l0.799,21.434l1.871,2.936
		l3.734,4.802l-1.336-5.87l-2.398-5.603l-0.537-3.469l3.736,1.601l4.001,9.873l-0.267,11.207l-3.734,9.072l6.137-9.605V125.93
		l-2.935-5.336l5.201-4.137l10.406-12.807l11.205-16.008l6.404-7.203l-2.8-11.606L186.445,55.225z M68.785,94.045h8.605
		l10.603,3.802v6.002l-2,11.808l-4.001,12.206l-8.204,9.805h-6.206l-6.003-4.203l-4.602-7.403l-1.201-12.207l2.603,0.201
		l5.003-2.201l6.604-0.201l11.004-4.001h-9.104l-1.1-2.8H62.98l2.402-3.002l5.402-1.867l1.1,2.266l3.901,0.601l3.002-1l1.001-1.867
		l5.203,1.867l-7.403-5.403h-5.704l-4.902,2l-3.801-2L68.785,94.045z"/>
	<polygon points="138.422,153.877 144.625,145.008 144.625,139.27 147.627,135.867 154.63,133.465 150.028,138.869 149.628,140.869 
		156.232,139.67 150.028,143.672 147.326,143.672 143.622,149.674 	"/>
	<polygon points="142.824,168.486 145.824,155.678 147.326,148.673 152.628,147.673 147.727,151.675 	"/>
	<polygon points="107.605,95.646 110.007,91.244 113.607,88.843 125.813,88.843 136.618,89.843 142.824,93.645 142.824,97.646 
		136.618,94.846 130.148,93.845 118.413,95.847 114.607,97.646 111.205,98.648 	"/>
	<polygon points="137.887,106.185 131.752,99.982 128.948,99.249 125.214,97.915 120.077,99.116 116.408,99.982 114.142,103.117 
		114.142,104.984 121.212,110.987 127.882,110.987 132.684,109.12 126.015,109.521 121.212,108.853 115.608,104.451 
		117.343,102.449 120.679,101.249 121.745,103.518 124.28,104.451 126.015,104.451 128.148,104.451 128.815,101.783 132.149,103.65 
		133.883,105.519 	"/>
	<polygon points="103.002,143.672 103.002,149.074 99.999,150.875 99.935,149.475 99.935,146.074 	"/>
	<polygon points="116.408,131.264 118.21,137.068 120.077,139.27 122.612,145.008 124.214,147.272 124.214,141.271 122.012,139.27 
		121.212,136.668 	"/>
</g>
</svg>
