<?xml version="1.0" encoding="utf-8"?>
<!-- Generator: Adobe Illustrator 17.0.2, SVG Export Plug-In . SVG Version: 6.00 Build 0)  -->
<!DOCTYPE svg PUBLIC "-//W3C//DTD SVG 1.1//EN" "http://www.w3.org/Graphics/SVG/1.1/DTD/svg11.dtd">
<svg version="1.1" id="Layer_1" xmlns="http://www.w3.org/2000/svg" xmlns:xlink="http://www.w3.org/1999/xlink" x="0px" y="0px"
	 width="200px" height="200px" viewBox="0 0 200 200" enable-background="new 0 0 200 200" xml:space="preserve">
<g>
	<polygon fill="none" stroke="#020202" stroke-width="1.2238" stroke-miterlimit="10" points="59.308,11.171 49.109,16.678 
		42.582,24.43 54.412,15.657 	"/>
	<g>
		<path fill="#020202" d="M67.466,24.43l-13.054,3.058l13.258-7.343l8.567-1.223l-11.016-2.244l-4.69,1.02l7.343-2.856l11.421,1.428
			l-10.81-3.467l-7.344,1.018l9.179-2.65l9.996-0.204L65.63,7.295l-13.054,3.672l-14.686,15.91l-3.263,9.381l-5.305,15.91
			l-2.447,13.056l-2.448,19.581l-2.038,24.883l-2.04,17.544v24.067v20.805L17.9,194.949l4.08-17.135l3.265-9.789l2.038-20.805
			l1.225-24.479l5.305-21.621l3.671-17.133l4.895-16.318l6.732-26.924l7.138-9.79l12.239-4.079l11.831-3.672v-4.283l-3.876,2.855
			L67.466,24.43z M25.037,124.579l-1.225,8.158l1.225,15.91l-2.449,12.441v-8.362V129.68l2.449-17.339V124.579z M39.113,68.282
			l-6.731,23.049l4.487-25.7l4.691-17.134L39.113,68.282z"/>
	</g>
	<g>
		<path fill="#020202" d="M179.345,178.223v-22.335v-24.782l-5.812-45.282V71.735l-3.059-17.426l-2.753-11.625l-7.039-13.769
			l-2.753-4.486l-7.955-13.259l-3.364-3.673l-14.382-2.447L121.52,9.945l9.308-2.65h5.378l8.567,3.876l5.2,6.63l-4.895-3.265
			L133.145,9.64l-8.567,3.366l7.956-1.835l10.095,6.63l-8.87-2.959l-8.875,1.224l9.486,1.735l3.977,1.63h-12.544l-5.507-1.63
			l1.224,4.384l11.32-0.612l4.588,2.857l9.181,7.239l5.201,11.016l5.507,29.051l7.954,22.961l3.98,27.232l0.916,25.394l1.836,18.052
			L182.1,191.38L179.345,178.223z M141.51,24.43l6.118,2.447l2.651,6.119L141.51,24.43z M160.273,75.424l-1.836-10.811
			l-1.631-16.114l6.527,19.582l1.225,11.626l2.446,14.073L160.273,75.424z M163.947,52.171l-3.876-17.746l6.934,15.909l1.429,13.259
			L163.947,52.171z M175.778,161.093l-2.244-9.587l1.123-35.287l1.121,32.228V161.093z"/>
	</g>
</g>
</svg>
