<?xml version="1.0" encoding="utf-8"?>
<!-- Generator: Adobe Illustrator 17.0.2, SVG Export Plug-In . SVG Version: 6.00 Build 0)  -->
<!DOCTYPE svg PUBLIC "-//W3C//DTD SVG 1.1//EN" "http://www.w3.org/Graphics/SVG/1.1/DTD/svg11.dtd">
<svg version="1.1" id="Layer_1" xmlns="http://www.w3.org/2000/svg" xmlns:xlink="http://www.w3.org/1999/xlink" x="0px" y="0px"
	 width="319.009px" height="391.641px" viewBox="0 0 319.009 391.641" enable-background="new 0 0 319.009 391.641"
	 xml:space="preserve">
<g>
	<g>
		<polygon fill="none" points="110.596,366.435 113.127,365.225 110.596,375.571 115.658,363.242 113.971,363.682 115.658,359.282 
					"/>
		<path fill="#020202" d="M272.838,352.896l-8.585,4.844l-11.227,1.543h-7.485l-8.366-2.645l1.324,3.744l-8.147-5.284l-6.605-1.543
			l2.202,3.082l-9.906-6.162l-3.741,1.98l-4.844-5.943l-5.062-0.44l-6.386-1.543l-2.42,2.202l-5.943-2.202l-6.165-3.301h-11.227
			l-6.386,1.761l-5.721,0.662l-5.284-2.423h-6.824h-8.588l-6.383,1.099l-8.806,3.522l-2.202,4.625l-1.321-3.304l-3.154,1.836
			l-6.458,10.274l-2.348-5.137l-7.045,7.776v-6.455l-8.217,6.455l-3.523-6.455l-7.632,6.455l-10.568,5.284H55.121l-10.568-7.923
			l-5.868-7.339l3.52,15.262l11.155,17.613l13.503,4.694l10.271-2.274l-2.642,3.301l14.09-1.54l-0.881,2.642h4.182l6.165-1.543
			l7.045-0.219l10.493-1.54l12.622-2.423l12.326-2.861l8.806-3.744l6.824-10.565l7.485,9.684l9.247,3.082l11.227,2.202l11.005,1.543
			l-1.98-2.863l9.687,3.523l1.761-1.98l10.565,4.403l1.983-2.645l8.363,1.102v-3.082l12.329,0.222l12.107-0.44l11.667-5.505
			l9.687-7.668l6.383-11.041l2.642-14.752L272.838,352.896z M69.205,378.678l-9.704-2.06l-10-6.763l9.413,5.234h3.969h5.148h-5.148
			l5.148,1.825l8.233-1.825L69.205,378.678z M115.658,363.242l-7.339,10.141l4.808-8.158l-2.531,1.21l5.062-7.153l-1.687,4.4
			L115.658,363.242z M267.419,363.973l-9.117,2.462h-6.176l-9.13-2.462h10.598l11.177-2.647l6.469-4.115l-7.059,6.763H267.419z"/>
	</g>
	<circle fill="none" stroke="#231F20" stroke-width="9" stroke-miterlimit="10" cx="229.15" cy="279.493" r="35.091"/>
	<g>
		<path fill="#231F20" d="M159.505,181.432c45.875,0,80.002-3.408,102.21-7.443l9.098-155.626C270.812,8.222,216.1,0,155.61,0
			C95.121,0,40.408,8.222,40.408,18.363l8.627,153.983C70.59,177.054,107.5,181.432,159.505,181.432z"/>
		<path fill="#231F20" d="M260.757,194.852l0.027-0.593c-27.197,4.529-63.139,7.023-101.279,7.023
			c-38.309,0-74.407-2.515-101.646-7.082c-2.773-0.465-5.405-0.945-7.927-1.438l0.165,3.774C19.256,199.656,0,204.079,0,208.984
			c0,9.448,71.413,17.107,159.505,17.107s159.504-7.659,159.504-17.107C319.009,203.113,302.778,197.933,260.757,194.852z"/>
	</g>
</g>
</svg>
