<?xml version="1.0" encoding="utf-8"?>
<!-- Generator: Adobe Illustrator 16.0.0, SVG Export Plug-In . SVG Version: 6.00 Build 0)  -->
<!DOCTYPE svg PUBLIC "-//W3C//DTD SVG 1.1//EN" "http://www.w3.org/Graphics/SVG/1.1/DTD/svg11.dtd">
<svg version="1.1" id="Layer_1" xmlns="http://www.w3.org/2000/svg" xmlns:xlink="http://www.w3.org/1999/xlink" x="0px" y="0px"
	 width="200px" height="200px" viewBox="0 0 200 200" enable-background="new 0 0 200 200" xml:space="preserve">
<g>
	<polygon points="146.568,163.034 148.511,163.21 144.449,155.616 144.978,152.437 141.445,147.844 141.445,142.015 
		139.149,135.303 134.91,130.534 129.257,124.353 122.369,117.817 117.424,114.991 123.606,121.173 129.788,126.825 134.91,133.36 
		132.438,133.36 127.139,130.887 123.253,130.534 119.014,130.534 114.951,134.066 110.535,137.6 106.473,139.013 103.117,137.953 
		99.584,135.479 95.875,135.479 93.226,134.42 88.986,132.477 87.926,128.945 88.986,125.765 90.929,121.703 92.872,120.112 
		90.753,120.112 86.867,126.118 81.566,135.479 75.386,146.43 73.797,153.672 76.092,152.79 75.033,159.501 76.092,160.561 
		74.68,165.86 74.68,170.981 73.797,178.754 78.389,178.754 81.921,179.637 85.454,182.815 92.872,189.529 100.644,194.297 
		110.005,195.358 119.544,193.944 117.248,190.941 114.598,192.354 104.706,191.824 98.877,191.118 92.342,187.056 85.454,180.344 
		83.335,175.398 83.511,166.744 81.921,160.385 84.747,156.5 81.392,152.26 88.027,147.932 87.043,151.377 87.043,155.173 
		90.918,159.326 94.792,160.385 90.918,157.912 90.918,155.173 91.46,152.966 92.872,152.966 94.792,155.173 94.792,153.319 
		92.696,150.669 92.696,146.961 93.578,146.961 96.67,147.844 101.351,148.374 107.003,148.374 108.769,147.668 111.065,148.198 
		114.421,147.137 117.601,145.548 119.544,145.371 123.076,141.309 126.608,139.189 131.378,141.662 135.087,143.428 
		137.736,147.491 137.736,150.493 140.386,155.263 140.386,159.148 140.386,166.567 140.386,171.335 139.325,174.514 
		138.442,180.874 138.442,184.053 143.212,179.637 143.212,174.692 147.804,175.398 147.804,171.865 149.747,169.569 	"/>
	<polygon points="126.079,155.173 126.079,151.377 128.729,150.14 128.729,146.432 127.402,144.664 126.079,144.664 
		126.079,142.722 127.402,141.485 132.261,143.781 133.144,145.548 131.906,150.317 128.022,155.173 	"/>
	<polygon points="97.288,154.114 98.967,155.88 99.32,158.794 99.938,155.173 101.528,155.173 103.294,155.173 103.294,156.455 
		104.354,155.173 106.738,155.173 107.092,156.455 108.151,155.173 110.536,155.173 110.978,156.058 111.771,154.731 
		113.804,154.114 113.804,154.82 114.599,152.966 117.071,152.966 118.483,151.907 121.311,151.907 122.37,149.346 124.842,149.346 
		124.842,147.049 126.079,145.548 123.607,146.696 122.724,148.329 121.222,149.256 120.781,150.493 119.367,150.405 
		118.483,151.288 116.629,152.171 114.688,152.171 114.599,150.935 113.804,152.966 111.771,154.026 110.271,154.114 
		109.389,153.584 108.24,154.556 104.178,154.556 103.118,154.202 101.439,154.556 99.674,153.672 98.525,154.114 97.288,152.171 
		95.258,149.433 96.582,152.171 	"/>
	<polygon points="106.474,160.031 107.356,158.177 108.062,159.104 110.978,158.177 112.303,159.104 114.599,157.029 
		116.188,157.559 118.927,156.322 120.427,156.322 122.459,155.173 124.842,155.173 122.459,156.852 116.982,158.794 
		111.771,159.589 	"/>
	<polygon points="143.39,124.705 144.626,130.357 146.215,134.419 147.275,138.659 147.275,144.311 149.747,153.142 
		149.747,160.031 151.162,150.669 149.747,142.369 149.747,136.716 147.275,131.947 145.332,128.59 	"/>
	<polygon points="72.914,164.27 68.321,152.171 67.262,138.835 67.262,152.171 70.087,163.21 63.905,156.322 61.08,149.256 
		58.431,140.071 57.017,131.063 56.135,127.354 54.19,130.534 49.951,130.534 46.066,128.414 46.066,122.938 45.183,118.346 
		44.123,123.998 45.359,129.474 49.775,133.006 52.247,132.829 51.896,173.808 51.542,179.989 54.896,174.869 54.896,182.463 
		54.19,192.531 54.19,199.95 57.547,196.24 59.666,199.95 62.669,196.24 64.081,198.006 67.968,192.531 71.5,182.286 
		72.914,193.238 73.797,199.243 75.74,192.354 77.683,198.89 79.273,196.77 81.039,195.358 80.155,192.354 76.8,179.989 
		73.797,180.344 72.914,176.634 74.856,170.628 74.68,167.096 	"/>
	<polygon points="62.58,114.637 66.818,109.515 71.941,109.515 78.124,109.515 84.57,106.513 88.986,102.803 86.249,107.042 
		83.688,108.72 79.272,111.281 73.797,111.546 69.027,111.546 66.466,112.253 	"/>
	<polygon points="69.911,113.489 67.173,114.196 64.965,116.933 67.438,114.991 	"/>
	<g>
		<path d="M84.306,85.317l-4.593-2.562l18.812-4.327l-22.345,3.974l-8.036,3.003l-8.212,2.737l-5.92,3.356l-2.736,3.356
			l-3.533,3.267l-3.62,3.357l-4.593,3.18l-1.324,3.091l0.529,6.182l2.297,5.651l-0.176-2.561l1.854-0.267l-1.943-1.765v-5.124
			l0.971-3.533h2.385v5.21v4.151l2.649-0.705l3.71,6.711v3.003l2.297,1.942l1.589-2.826v-3.356l-2.473-3.974l-0.883-4.328
			l-5.123,1.06l0.531-3.356l2.825,0.707l-0.883-4.24l0.176-4.238l1.766-3.886l5.652-3.18l4.24-1.06l4.062-2.473l5.653-2.65h7.595
			l4.77,1.59l-3.709,0.354l-7.949,2.649l-5.476,3.709l-2.562,2.296l1.855,2.826l2.649-0.883l0.178-2.474l5.122-3.002
			c0,0-1.591,1.855-0.708,3.975c0.884,2.119,2.562,3.179,4.416,2.826s4.151-2.208,3.886-4.24c-0.15-1.163-0.42-2.266-0.92-2.998
			c-1.293-0.5-2.115-0.888-1.554-0.888c0.681,0,1.182,0.341,1.554,0.888c2.364,0.913,6.307,2.204,6.307,2.204l-7.947-4.769
			l5.475-1.059l3.445,0.265l2.561,0.088v-2.561l-0.884-2.12L84.306,85.317z M74.238,97.681v0.706h-1.061v-1.413h1.061V97.681z
			 M77.858,97.681l0.442,1.589h-0.796l-0.353-0.883L77.858,97.681z"/>
		<path d="M77.505,94.589c-0.562,0,0.261,0.387,1.554,0.888C78.687,94.931,78.186,94.589,77.505,94.589z"/>
	</g>
	<polygon points="68.232,102.803 75.121,103.775 77.683,103.289 82.716,101.301 83.688,101.301 82.099,102.096 77.771,103.775 
		74.149,104.569 	"/>
	<path d="M187.944,158.794l-1.06-3.621l-5.828-8.521l-3.18-5.167l-3.18-6.226l-9.538-21.77l-2.252-3.268l0.971-4.77l-0.838-4.151
		l-0.266-4.062l-1.722,1.192l-0.266,4.372l1.723,3.974l-4.637,1.943l-1.722,2.826l4.106-0.132l0.661,3.224l-2.78,1.413h-3.18
		l-1.503-1.413l-1.147-10.598l0.354-10.774l1.766-1.413l2.472,2.737v3.268l-1.323,3.443l0.528,4.152l0.354-3.356l2.209-2.738
		l0.44-4.326l-1.235-2.562l-2.032-3.091l0.088-5.741l1.944,0.177l2.914,2.296l1.325,3.797l1.767,2.826l-1.148-5.476l-1.854-3.709
		l-5.21-1.944l-8.921-4.592l-5.917-2.473l-7.418-1.237l-11.656,0.53l-6.096,0.441l-6.623,2.208l3.886-0.883l8.833-1.325
		l-5.124,3.444l-3.003,3.975l-1.501,4.769l-1.767,3.268l-3.355,3.532l-2.737,1.768l-5.211,0.444l-5.739-0.888l5.739,1.679
		l5.476-0.53l3.268-2.296l3.973-3.887l1.681-1.767l2.648-2.649l-2.031,5.21l3.976-1.59l3.531-0.971c0,0-1.053,1.065-1.06,2.296
		c-0.007,1.062,0.794,3.621,3.267,3.974c2.712,0.386,4.646-0.815,5.035-2.562c0.374-1.677-0.177-3.355-0.177-3.355l3.181,1.324
		l2.56,1.501l-1.677,1.855l-5.653,3.09l6.093-2.119l4.77-4.24l-4.77-0.529l-1.589-4.062l-5.476-1.06l-6.535,1.589l1.412-3.355
		l5.123-4.062l5.653-0.707l5.827,1.591l5.83,1.942h3.18l4.593,3.709v6.182v5.652l-0.708,6.492l0.708,5.167l-1.415,12.541
		l2.827,6.889l-0.354,7.242l2.65,7.596l-0.885,13.601l2.475-4.77l1.412,0.972c0,0,0.266,8.125,0.133,8.522
		c-0.133,0.396,4.504,9.007,4.504,9.007l-0.795-17.53l5.564,16.603l4.504,6.756l2.119-7.154l1.987,2.649l2.384-3.974l5.564-3.18
		l-0.266-6.271L187.944,158.794z M125.284,90.44l0.884-0.619v1.766h-0.884V90.44z"/>
	<polygon points="111.331,93 110.095,98.563 106.827,97.062 110.095,101.301 116.188,102.803 123.519,102.803 132.969,100.595 
		137.473,99.711 140.629,101.655 138.443,98.829 136.412,99.094 132.438,100.065 123.342,101.743 116.807,101.301 112.92,99.359 
		113.362,97.15 116.012,95.738 120.957,95.384 117.69,94.06 119.191,91.322 115.834,93.619 113.273,93.53 113.186,91.322 	"/>
	<polygon points="135.088,175.531 126.079,189.705 124.842,193.15 135.088,187.321 129.966,187.321 	"/>
	<polygon points="38.206,101.301 39.884,93.265 36.352,87.26 38.118,78.429 36.352,75.425 36.352,67.653 35.114,62.001 
		36.527,54.936 35.114,49.638 35.114,44.338 38.206,46.104 39.884,40.099 41.474,35.684 54.368,17.491 64.965,9.189 78.193,3.537 
		62.58,6.893 54.545,12.722 46.421,21.023 37.059,33.21 34.056,38.863 34.056,45.751 34.056,51.227 34.939,54.936 34.056,60.588 
		35.293,66.771 34.763,75.778 36.353,78.429 35.469,85.847 37.059,91.322 38.206,95.477 	"/>
	<polygon points="46.197,37.097 48.318,35.904 51.365,33.52 52.293,35.308 50.438,43.455 49.246,52.198 49.246,56.835 
		50.835,59.219 50.438,63.724 48.186,65.976 49.907,70.877 50.57,75.911 52.293,78.429 51.233,74.454 50.701,67.83 52.293,64.916 
		52.293,59.087 52.293,56.703 51.233,55.113 51.365,49.814 52.293,46.104 53.616,41.865 56.125,34.844 56.664,31.532 54.545,31.532 
		54.147,29.545 48.98,32.592 47.921,34.447 	"/>
	<polygon points="45.403,95.477 46.197,89.556 45.8,87.038 44.343,84.521 44.343,80.68 41.164,77.103 44.123,72.069 46.729,78.429 
		49.775,83.064 52.027,81.873 50.305,88.231 49.511,85.316 47.523,82.667 45.139,78.429 45.271,83.329 47.523,87.568 	"/>
	<polygon points="38.206,86.508 38.913,89.556 41.164,93 42.092,89.158 43.152,88.628 43.152,84.392 40.679,82.667 40.679,86.508 
		38.206,85.316 	"/>
	<polygon points="41.164,66.373 39.441,62.134 40.679,59.882 41.164,57.1 40.304,51.138 38.206,53.214 41.164,48.091 42.357,51.138 
		42.357,56.305 41.164,61.471 43.152,64.386 43.152,61.736 43.152,66.373 41.827,67.697 	"/>
	<polygon points="63.729,36.39 72.561,33.21 77.326,32.328 75.961,37.626 75.961,44.161 75.783,51.58 75.961,59.706 77.326,64.474 
		78.193,69.243 68.365,73.306 62.58,76.485 57.723,80.194 54.896,79.311 54.896,75.425 53.307,70.303 53.307,77.545 54.367,81.254 
		55.074,83.773 56.664,84.963 59.313,82.667 68.232,78.429 75.961,73.306 79.802,70.656 81.039,66.594 80.155,63.414 85.278,69.95 
		81.039,59.706 79.979,51.05 81.039,43.102 81.039,35.153 83.688,31.268 80.155,33.387 78.193,30.208 73.797,31.621 66.379,34.447 	
		"/>
	<polygon points="52.027,55.113 53.307,46.811 55.074,43.102 58.783,40.452 53.616,41.865 51.432,47.783 	"/>
	<polygon points="64.965,42.572 59.844,46.988 58.783,51.05 59.489,55.113 59.489,58.821 58.783,58.821 56.664,61.825 58.783,68.36 
		60.02,69.419 64.965,66.594 62.58,65.71 60.814,63.414 62.58,56.703 62.58,49.814 64.965,46.635 64.965,48.091 64.965,53.214 
		64.965,57.895 66.202,60.588 67.438,64.474 66.202,65.534 68.365,64.474 68.365,60.059 67.438,57.585 67.438,49.461 67.438,42.572 
			"/>
	<path d="M88.986,69.419l5.806-3.002l3.733-0.883l6.358-2.296l0.001,4.459l1.942,0.663l-1.768,1.059l-1.941-1.722l-5.211,1.722
		l-4.592,4.593l-5.212-0.706c0,0-2.472-2.562-2.384-2.826C85.809,70.214,88.986,69.419,88.986,69.419z"/>
	<path d="M112.214,23.496l-1.501-2.384l-3.004-1.061h-3.179l-2.738,1.148v2.208l-3.355,2.561h-3.645l-4.303,1.854l-3.621,2.385
		l3.621-1.59l4.303-1.766l4.264-0.089l2.736-1.589l1.326-3.445l3.709-0.353l3.621,2.649l-0.178,7.595l-0.353,4.681l-1.148,0.971
		l-1.942,0.442l-0.531,0.265l-0.97-2.119v-1.679l-3.709-0.883l-3.887,1.767l-7.241,3.621l-1.414,2.473v6.625l-0.707,7.33
		l-0.441,5.563h3.092l3.773-1.147l5.058-2.296l3.269-2.738l-2.032-1.28l-4.813,1.898l-1.48-2.649v-2.297l5.499-4.238l-3.62,1.059
		l-3.355,1.679v-6.094l4.415-3.268l5.476-2.826l1.413,1.854l2.208,1.148l5.21-0.353l2.031-0.266l0.53-4.503l1.06-7.684v-2.562
		L112.214,23.496z M94.021,57.1h3.709l-2.385,1.545l-3.091,0.442v-3.974L94.021,57.1z"/>
	<path d="M125.637,24.114h-3.531l-2.562,1.767l-1.412,0.882l-0.177,2.783v12.232l-1.679,0.795l-0.971-2.12l-6.712,1.325l-5.3,2.472
		l8.125-2.208l2.474-0.264l1.147,0.795l-5.122,3.179v2.032v7.33l0.441,4.416l1.06,2.473l-0.706,2.296l-0.795,3.002l-1.678,0.397
		h2.119l0.618,2.429h1.59l0.884-1.501l1.059-2.561l-0.795-4.947v-6.005h3.268v3.797l1.679,3.003l0.617,2.473h1.148v-2.473
		l-1.943-2.473l-0.087-3.974l-1.679-2.251c0,0-3.532,0.044-3.532,0c0-0.044,0.618-1.988,0.618-1.988l4.504-3.135l0.796-3.223
		l0.617-5.917l0.178-8.39l-0.267-2.296h1.854l1.591-1.766h2.56l2.121,0.883L125.637,24.114z M116.718,47.12l-2.385,1.987l1.325-2.65
		l1.06-0.441V47.12z"/>
	<polygon points="120.338,65.093 122.724,63.944 122.724,54.406 127.051,53.214 131.379,53.214 132.35,56.879 135.088,59.064 
		137.737,62.62 140.209,65.976 141.094,68.625 138.003,65.888 136.501,62.708 133.939,59.882 130.318,57.585 127.229,56.614 
		126.785,58.822 126.168,63.238 126.168,67.212 125.108,68.625 122.812,66.947 	"/>
	<polygon points="139.768,63.238 138.886,57.056 140.629,59.175 140.209,57.056 138.886,53.214 138.886,50.255 137.913,46.635 
		136.766,44.074 136.766,39.746 135.087,38.952 134.381,33.917 132.879,31.71 131.201,27.912 129.17,27.206 127.758,27.735 
		128.729,30.738 130.318,34.447 132.703,39.746 134.193,44.25 135.44,46.37 136.501,46.37 136.854,48.401 137.118,50.697 
		135.264,51.492 135.794,53.214 136.766,54.229 136.942,56.703 137.737,57.585 138.797,61.648 	"/>
	<path d="M128.904,40.806l-2.119-5.388l-0.971-0.883h-0.973l-0.617,5.21l-0.884,3.974l1.501,1.501l2.387,0.441l2.206-2.296
		L128.904,40.806z M127.758,43.456l-0.973,0.619l-0.397-0.619v-1.501h1.37V43.456z"/>
	<polygon points="140.629,60.919 143.035,63.238 143.477,62.078 143.477,58.38 142.053,55.025 141.535,51.227 141.535,47.12 
		143.477,51.934 145.598,55.555 146.038,59.175 147.01,63.856 147.452,65.357 145.95,62.355 144.89,58.646 144.625,57.585 
		144.714,62.62 145.95,65.357 146.569,68.095 146.569,70.126 146.304,71.275 145.066,68.625 144.041,65.888 141.977,64.651 	"/>
	<polygon points="148.775,67.831 153.191,71.981 152.043,67.919 152.22,65.976 152.663,63.238 151.868,60.919 154.163,63.238 
		154.163,68.625 154.871,72.776 156.725,75.69 156.725,78.429 153.545,75.514 151.69,72.334 	"/>
	<polygon points="151.247,59.794 151.247,54.23 151.247,53.214 152.309,51.581 150.542,50.08 148.775,52.641 149.218,54.451 
		149.659,56.261 150.102,58.822 	"/>
	<polygon points="147.01,54.23 145.861,50.875 145.861,46.282 147.01,46.282 147.01,43.632 149.129,45.663 148.775,47.12 
		147.01,47.607 147.099,51.757 	"/>
	<path d="M144.89,44.339l-0.849-2.737v-2.208l-2.947-2.296l-0.465-2.562l-0.684-3.268v-4.062l1.943,1.854l2.152,3.798
		c0,0,0.673,4.504,0.849,4.945c0.177,0.442,0,2.561,0,2.561l1.854,1.678v-3.797v-3.002l-1.941-2.827l-1.457-3.356l-0.398-1.413
		l-1.854-1.943l-0.465-2.032l-2.45,1.767v2.12l0.617,3.268l0.972,3.179l-1.148-0.53l-1.854-1.59l-2.571-0.353l-1.314,0.177
		l0.618,2.296l1.943-0.619l1.678,0.619l2.031,1.236l0.662,0.265l0.817,2.826v1.766l1.611,1.414L144.89,44.339z"/>
	<path d="M83.688,2.477l14.837-2.649h12.363l9.449,2.12l10.378,6.124l10.378,10.656l2.947,4.946l3.411,1.943l1.677,4.592
		l1.413,5.652v4.592l2.208,7.331l1.414,4.327v3.886l1.06,4.68l3.18,4.681v3.268l0.706,3.444c0,0,0.177,2.826,0,3.356
		s2.826,5.653,2.826,5.653l-3.003-1.236l-1.06-5.83l-1.148-4.593v-4.062l-3.975-7.771l-1.503-4.371l0.09-6.094l-2.562-6.668v-7.771
		l-2.914-4.239l-2.648-3.002l-3.401-4.593l-5.618,1.767l-4.759-3.533l-11.303-4.77l-14.838,0.707l13.602-3.002l7.946,1.237
		l5.874,4.945l-6.987-10.126l-13.016-0.825l9.625-0.883l6.05,1.708l-10.729-5.417l-9.892,0.883L97.466,3.89L83.688,2.477z"/>
	<polygon points="112.832,116.933 115.659,124.418 117.335,127.973 118.927,126.647 115.879,122.454 	"/>
	<polygon points="97.466,122.454 96.272,130.622 98.525,132.211 98.525,127.973 	"/>
</g>
</svg>
