<?xml version="1.0" encoding="utf-8"?>
<!-- Generator: Adobe Illustrator 16.0.0, SVG Export Plug-In . SVG Version: 6.00 Build 0)  -->
<!DOCTYPE svg PUBLIC "-//W3C//DTD SVG 1.1//EN" "http://www.w3.org/Graphics/SVG/1.1/DTD/svg11.dtd">
<svg version="1.1" id="Layer_1" xmlns="http://www.w3.org/2000/svg" xmlns:xlink="http://www.w3.org/1999/xlink" x="0px" y="0px"
	 width="200px" height="200px" viewBox="0 0 200 200" enable-background="new 0 0 200 200" xml:space="preserve">
<g>
	<polygon points="75.282,112.527 89.543,111.483 98.066,112.527 108.646,117.745 110.761,121.571 115.284,148.703 112.849,156.355 
		112.327,158.965 114.067,161.226 116.849,162.618 112.849,162.618 111.458,159.835 109.371,158.965 108.646,156.182 
		103.458,154.963 101.023,155.313 105.369,153.92 107.458,154.444 107.458,150.095 102.239,149.226 100.848,148.877 98.935,151.487 
		98.587,148.877 99.979,145.92 102.065,145.92 105.893,145.051 105.544,124.876 105.196,119.833 102.064,117.572 98.066,116.354 
		93.716,114.093 86.238,114.441 77.369,114.441 73.891,114.441 	"/>
	<g>
		<polygon points="89.579,115.484 89.588,115.484 89.587,115.484 		"/>
		<polygon points="75.804,116.527 73.891,119.658 76.673,119.462 77.718,117.766 79.543,116.202 89.579,115.484 79.282,115.484 		
			"/>
		<path d="M98.762,120.702l-2.262-1.044l-2.955-2.956l-3.653-1.218h-0.304l2.804,0.914l1.108,0.521l2.586,3.497l2.11,1.2
			l1.043,1.043l-2.674-0.196l-4.891,1.24c0,0-3.327-0.111-2.544-0.13c0.783-0.022,4.436-1.436,2.805-5.088
			c-1.491-3.338-7.24-2.282-7.697,0.458c-0.432,2.6,1.305,4.348,1.305,4.348l-1.89-0.305l-2.806-4.021l-3.478,1.043h2.434
			l3.85,4.087l7.455,0.435l7.828-1.239h3.479L98.762,120.702z M89.064,120.006l1.5-0.414l0.784-0.522v1.957h-1.11h-1.174V120.006z"
			/>
	</g>
	<polygon points="121.284,161.269 123.502,156.964 124.284,152.008 122.784,143.66 126.241,149.66 128.458,144.834 131.589,151.747 
		128.718,147.963 127.676,149.66 126.436,151.356 125.067,154.486 124.545,157.617 	"/>
	<polygon points="97.369,148.528 91.283,152.464 89.892,154.789 83.63,160.355 81.735,163.833 81.735,168.007 84.499,164.355 
		88.5,164.702 86.238,161.269 90.587,156.18 91.978,153.571 	"/>
	<polygon points="133.458,146.615 138.242,148.875 141.807,151.659 145.024,153.659 147.547,156.877 148.156,160.356 147.2,162.618 
		147.024,159.312 146.156,156.442 143.721,153.92 140.807,152.464 137.895,149.312 	"/>
	<path d="M90.935,165.311l5.653,0.956l4.783,0.958l5.826,0.782h6.87l4.783-0.521l6.521-1.219l5.566-0.956l5.305-3.043l2.261-0.999
		l-2.348,3.369l-4.567,2.152l-7.695,2.087l-6.436,1.565l-5.739,0.348l-6-0.609c0,0-7.741-0.957-7.741-1.478
		C97.978,168.18,90.935,165.311,90.935,165.311z"/>
	<polygon points="116.849,181.4 107.284,181.4 100.674,178.271 95.37,172.53 92.326,168.704 97.369,169.922 102.414,172.01 
		112.849,174.27 120.328,173.749 125.371,171.835 130.24,169.574 124.85,173.4 116.849,176.01 111.282,176.01 102.414,174.095 
		97.369,172.357 100.848,176.705 105.718,178.966 108.646,180.184 	"/>
	<polygon points="133.458,192.88 122.936,197.402 109.371,198.793 99.284,195.837 94.24,186.619 87.283,175.052 81.735,170.789 
		85.891,179.836 80.847,176.878 76.15,170.789 73.021,160.182 74.76,172.53 72.5,170.789 68.672,158.267 69.716,151.138 
		72.5,143.66 68.672,149.573 66.585,157.399 65.542,152.464 65.542,137.572 59.455,132.354 57.02,133.224 59.629,141.225 
		62.759,151.487 66.063,163.487 72.151,173.574 78.935,178.966 86.064,185.749 90.935,189.401 95.239,194.271 99.979,197.922 
		104.327,199.315 110.065,200.011 115.98,200.011 123.807,198.445 	"/>
	<polygon points="53.889,133.747 51.281,136.355 46.933,136.355 42.41,129.224 40.324,123.29 40.324,117.572 44.67,119.658 
		48.846,123.29 47.107,118.268 47.107,112.527 49.716,107.658 47.977,107.658 46.063,102.614 44.67,108.354 44.845,112.527 
		46.063,113.397 46.063,117.572 42.932,117.572 40.324,115.484 38.41,118.615 35.976,113.224 35.279,109.224 35.279,100.702 
		38.931,92.701 44.585,97.745 37.714,88.353 34.41,86.44 37.019,90.092 34.41,94.961 33.541,104.528 35.105,114.267 37.541,120.006 
		40.149,126.79 42.41,131.311 46.584,137.572 51.976,137.572 	"/>
	<polygon points="162.245,79.831 163.636,85.222 166.071,84.004 166.071,90.788 162.245,87.135 161.028,85.309 	"/>
	<path d="M151.984,106.266l-0.438-1.391l-4.956,1.999l-5.783,1.044l-5.435,1.74l-4.347,0.782l-0.871,2.697l-3.043,4.436l2-2.088
		l2-1.478l2.348-1.479c0,0-1.869,1.652-1.347,3.913c0.273,1.187,1.347,2,1.347,2l-3.217,0.087l-1.044-0.955l-4.26,3.39h3.566
		l4.521-0.956l3.913-0.349h3.479l2.349-1.544l3.043-2.63l2.349-0.695l-2.435-0.958l-0.955,1.654c0,0-2.067,1.596-3.959,2.435
		c1.609-3.306,0-5.74,0-5.74h3.959l2.084,1.044l1.305-0.696l-1.563-1.023c0,0-4.676-1.759-4.522-0.542c0.153,1.218-4.522,0-4.522,0
		l10.607-2.956L151.984,106.266z M138.068,116.005l0.392-1.044h0.824v2l-0.824,0.611l-1.611-0.958L138.068,116.005z"/>
	<path d="M166.418,97.745l-1.217-3.827l0.173,4.174l1.044,4.872l-0.87,3.826v3.478l-1.391,4h-1.217l-0.87-2.261l0.175-3.652
		l0.695-1.913l1.044-2.434l-2.609-4.697l-2.435-0.174l0.349-13.739l1.913-8.522l2.435-1.739l1.913,1.739l-1.043-4.349l-2.782,0.87
		l-1.217-5.043l1.217-13.392v-8.696l-2.26-8.174l-2.957-8.522l-4.348-7.479l-6.782-6.087l-9.045-5.566h-4.349l-1.217-2.782
		l-5.391-5.044L114.415,0h-11.652l-12.87,1.217l-11.828,4L68.5,9.044L54.76,17.74l-11.044,12l-4.608,10.088l0.173,9.914
		L38.411,62.09l3.652,8.696l0.869,11.826H40.67h-3.303h-3.827l-1.043,7.479l1.043-5.913h4.696l5.479,2.261l1.129,5.042l5.392,11.48
		l1.568-0.695l1.216-5.565v-7.306l0.868-4.694l1.394-7.827l-1.394,0.174l2.263-6.088l-2.263,1.218l3.131-5.914l-3.131,1.043
		l4.002-4.608h-1.914l1.914-3.218l0.695-3.131l4.522-2.608l2.956-6.609l3.306-5.218l6.957-1.739h6.085l5.915,0.348l4,1.913
		l0.87-2.261l1.217,2.783l3.305,2.261l0.87-4l1.391,4.696l1.219-4.174l1.215,3.651l3.48,3.827l4.174-0.696l0.695-4.696l0.869,5.566
		l1.217,0.174v-6.262l1.566,6.088l2.433-1.739l2.785-0.87l-0.696-6.435l2.086,5.739l1.044-0.174v-4.522l1.566,3.478l5.043-2.261
		l0.521-3.479l6.088-2.956l9.216,4l6.437,10.087l3.827,8.87l3.13,5.044L155.46,62.7l-0.347,2.87l3.13,4.348l-2.609-1.739
		l0.174,3.304l2.087,3.306l-1.565-0.522v4.521l-0.175,6.262l1.043,2.784l-1.217-0.523v6.436l1.044,8.869l1.565,12.87l0.348-10.783
		l0.869-2.608l2.088,2.956l-1.218,3.305l-0.173,4.173l1.564,2.957l0.522,2.088l-1.914,5.717l-2.435,2.108h2.956l1.915-5.392
		l1.565-4.522l1.913-4.347v-3.827l0.87-3.479L166.418,97.745z M134.85,16.087l-4.609,1.043l4.609,2.61l-3.261,0.782v1.304
		l-1.696,2.609l4.957,2.348l-4.609,0.783l3.218,1.827l-3.218,0.783l1.349,2.348l-5.153-1.043l1.153-2.348v-4.696l-1.153-2.87
		l2.413-2.087l-3.913-4.957h5.304l-3.804-3.392l3.804,1.826h4.609l-3.261,0.522L134.85,16.087z"/>
	<polygon points="89.551,85.309 102.414,82.352 108.646,82.352 118.937,79.831 116.849,79.831 126.436,78.438 134.85,79.831 
		124.937,79.831 118.676,81.874 108.646,84.178 102.414,83.917 	"/>
	<polygon points="86.848,93.047 99.979,94.092 109.805,90.788 108.646,94.092 121.284,89.396 129.111,89.396 140.807,87.309 
		128.589,90.788 121.284,90.788 106.935,96.439 107.458,93.309 99.979,96.439 	"/>
	<polygon points="97.369,102.44 108.646,102.44 111.282,101.135 109.168,103.831 	"/>
	<polygon points="113.828,101.135 123.372,101.135 127.807,97.744 134.85,97.744 128.328,99.439 123.632,102.787 	"/>
</g>
</svg>
