<?xml version="1.0" encoding="utf-8"?>
<!-- Generator: Adobe Illustrator 17.0.2, SVG Export Plug-In . SVG Version: 6.00 Build 0)  -->
<!DOCTYPE svg PUBLIC "-//W3C//DTD SVG 1.1//EN" "http://www.w3.org/Graphics/SVG/1.1/DTD/svg11.dtd">
<svg version="1.1" id="Layer_1" xmlns="http://www.w3.org/2000/svg" xmlns:xlink="http://www.w3.org/1999/xlink" x="0px" y="0px"
	 width="269.065px" height="89.995px" viewBox="0 0 269.065 89.995" enable-background="new 0 0 269.065 89.995"
	 xml:space="preserve">
<g id="Xs5J9b_2_">
	<g>
		<path fill-rule="evenodd" clip-rule="evenodd" d="M133.042,22.594c2.623-2.129,5.234-4.051,7.623-6.217
			c6.287-5.691,13.381-10.059,21.708-11.68c12.537-2.44,24.204,0.105,34.194,8.231c6.531,5.313,12.524,11.287,18.859,16.839
			c4.684,4.101,9.56,7.96,15.791,9.557c5.767,1.48,11.253,1.03,15.924-2.835c4.343-3.596,8.323-7.616,12.512-11.395
			c1.322-1.203,2.734-2.937,4.726-1.941c1.954,0.979,0.973,3.131,0.717,4.594c-1.212,7.128-3.063,14.109-6.168,20.68
			c-6.701,14.141-16.875,24.779-31.217,31.376c-7.653,3.517-15.698,5.601-23.978,6.113c-6.889,0.426-13.834,0.305-20.761-1.071
			c-12.456-2.47-23.376-7.996-33.366-15.529c-4.436-3.342-8.698-6.934-12.853-10.62c-1.706-1.514-2.828-1.657-4.637-0.209
			c-5.639,4.538-11.278,9.101-17.178,13.288c-8.796,6.243-18.39,10.764-29.079,12.974c-8.596,1.776-17.208,1.839-25.748,0.553
			c-10.404-1.562-20.049-5.381-28.768-11.447C19.98,65.942,11.811,55.527,7.281,42.495C5.48,37.31,4.67,31.769,3.552,26.36
			c-0.401-1.954,1.425-3.491,3.319-2.623c1.932,0.892,3.805,2.199,5.277,3.73c3.839,3.991,7.742,7.796,12.887,10.11
			c6.74,3.031,13.202,1.849,18.833-2.246c6.437-4.675,12.392-10.018,18.445-15.199c7.32-6.262,14.849-12.176,24.366-14.648
			c14.947-3.878,28.2-0.465,39.581,9.913C128.943,17.846,131.259,20.691,133.042,22.594z"/>
	</g>
</g>
</svg>
