<?xml version="1.0" encoding="utf-8"?>
<!-- Generator: Adobe Illustrator 17.0.2, SVG Export Plug-In . SVG Version: 6.00 Build 0)  -->
<!DOCTYPE svg PUBLIC "-//W3C//DTD SVG 1.1//EN" "http://www.w3.org/Graphics/SVG/1.1/DTD/svg11.dtd">
<svg version="1.1" id="Layer_1" xmlns="http://www.w3.org/2000/svg" xmlns:xlink="http://www.w3.org/1999/xlink" x="0px" y="0px"
	 width="202.963px" height="144px" viewBox="0 0 202.963 144" enable-background="new 0 0 202.963 144" xml:space="preserve">
<g>
	<g>
		<polygon fill="#FFFFFF" points="32.779,65.447 40.755,73.424 40.755,70.829 32.779,62.852 		"/>
		<polygon fill="#FFFFFF" points="89.945,81.764 99.278,75.954 108.612,80.879 108.612,78.282 99.278,72.937 89.945,79.169 		"/>
		<path fill="#FFFFFF" d="M65.288,86.256c7.197,0,13.057-5.857,13.057-13.057c0-7.198-5.859-13.055-13.057-13.055
			c-7.2,0-13.057,5.857-13.057,13.055C52.231,80.399,58.088,86.256,65.288,86.256z"/>
		<path fill="#FFFFFF" d="M177.402,53.053c-7.199,0-13.055,5.857-13.055,13.058c0,7.198,5.855,13.055,13.055,13.055
			c7.2,0,13.058-5.857,13.058-13.055C190.46,58.91,184.603,53.053,177.402,53.053z"/>
		<path fill="#FFFFFF" d="M157.617,45.176C151,34.879,141.631,26.512,130.555,21.124l3.788-13.763l-1.207-0.547
			C123.163,2.292,112.513,0,101.479,0C90.778,0,80.427,2.16,70.707,6.42l-2.086,0.936l3.789,13.767
			c-11.103,5.402-20.491,13.796-27.111,24.126L0,37.175v79.328l50.441-10.196l2.962,27.038l30.605-12.613l17.475,23.252
			l17.506-23.293l30.707,12.655l2.959-27.027l50.309,10.185V37.175L157.617,45.176z M25.3,52.185c0,5.595-3.054,10.485-7.582,13.101
			c4.528,2.615,7.582,7.506,7.582,13.1v25.219l-4.432,0.74V78.385c0-5.135-3.639-9.434-8.476-10.458v37.886l-4.43,0.842v-61.16
			l4.43,0.753v16.396c4.837-1.024,8.476-5.323,8.476-10.458l0.019-4.409l4.412,0.768V52.185z M45.188,100.137l-4.433,0.795v-21.24
			l-7.976-7.977v30.622l-4.433,0.736V49.075l4.433,0.771v6.738l7.976,7.977l0.014-13.321l4.419,0.927V100.137z M72.319,9.103
			c9.216-3.982,19.025-6,29.16-6c10.143,0,19.95,2.019,29.166,6.001l-2.949,10.715c-1.251-0.537-2.522-1.033-3.811-1.494
			l1.747-6.346l-0.325-0.148c-7.505-3.403-15.52-5.127-23.827-5.127c-8.053,0-15.844,1.625-23.159,4.832
			c-0.222,0.098-0.447,0.196-0.666,0.297l-0.321,0.148l1.746,6.345c-1.288,0.462-2.56,0.957-3.811,1.494L72.319,9.103z
			 M123.093,18.056c-6.782-2.331-14.047-3.615-21.61-3.615c-7.563,0-14.829,1.284-21.611,3.615l-1.545-5.613
			c0.109-0.048,0.22-0.096,0.33-0.144c7.208-3.16,14.887-4.762,22.823-4.762c8.066,0,15.857,1.651,23.158,4.907L123.093,18.056z
			 M73.251,24.18c0.938-0.467,1.888-0.911,2.852-1.332c1.249-0.546,2.511-1.067,3.8-1.534c0.262-0.095,0.529-0.175,0.792-0.267
			c6.519-2.262,13.51-3.504,20.788-3.504c7.278,0,14.269,1.243,20.787,3.504c0.263,0.091,0.531,0.172,0.793,0.267
			c1.289,0.467,2.551,0.988,3.8,1.534c0.963,0.421,1.913,0.866,2.851,1.333c9.942,4.95,18.409,12.429,24.565,21.584l-4.238,0.748
			c-5.532-7.741-12.861-14.115-21.383-18.494c-0.934-0.479-1.881-0.936-2.842-1.366c-1.245-0.559-2.504-1.09-3.792-1.563
			c-0.262-0.096-0.529-0.178-0.792-0.271c-6.186-2.176-12.828-3.374-19.749-3.374s-13.564,1.197-19.75,3.374
			c-0.263,0.092-0.53,0.174-0.791,0.271c-1.288,0.474-2.548,1.005-3.792,1.563c-0.961,0.431-1.908,0.887-2.842,1.366
			c-8.554,4.396-15.906,10.8-21.446,18.58l-4.229-0.754C54.793,36.652,63.28,29.144,73.251,24.18z M99.278,67.09l9.334,4.925V60.588
			l4.431-0.831v32.691l-4.431-0.887v-4.417L99.278,81.8l-9.333,6.231v4.383l-4.43,0.699V59.036l4.43,0.771v13.093L99.278,67.09z
			 M101.559,95.974l21.993,4.452l-0.754,0.965l-3.868,4.949l-3.231,4.135l-0.447,0.573l-2.807,3.59l-1.983,2.538l-8.979,11.488
			l-8.946-11.447l-1.983-2.538l-3.122-3.995l-0.445-0.569l-3.013-3.855l-3.868-4.949l-0.675-0.864L101.559,95.974z M100.964,55.171
			l-47.195-8.413c5.402-7.48,12.514-13.649,20.766-17.92c0.932-0.483,1.879-0.939,2.839-1.373c1.244-0.56,2.504-1.091,3.792-1.566
			c0.261-0.096,0.525-0.184,0.789-0.277c6.114-2.158,12.685-3.343,19.528-3.343c6.844,0,13.413,1.185,19.527,3.343
			c0.264,0.093,0.528,0.181,0.79,0.277c1.287,0.475,2.548,1.005,3.791,1.566c0.961,0.434,1.908,0.891,2.84,1.373
			c8.22,4.254,15.309,10.391,20.703,17.833L100.964,55.171z M65.288,55.713c9.643,0,17.486,7.845,17.486,17.486
			c0,9.644-7.844,17.489-17.486,17.489c-9.645,0-17.488-7.845-17.488-17.489C47.8,63.559,55.644,55.713,65.288,55.713z
			 M49.129,99.345v-4.431l32.747-5.769v4.431L49.129,99.345z M70.17,102.319l8.344,11.102l-17.295,6.748l-2.012-15.634
			L70.17,102.319z M56.038,128.903l-2.543-23.214l5.031-1.017l2.118,16.463l18.301-7.141l3.138,4.175L56.038,128.903z
			 M117.95,116.907l-1.925,2.562l-14.543,19.351l-14.512-19.309l-1.925-2.562l-3.1-4.124l-0.432-0.575l-7.624-10.144l-0.351-0.467
			l5.132-1.037l0.137,0.175l3.868,4.95l3.636,4.652l0.445,0.57l3.131,4.005l1.983,2.538l9.611,12.298l9.644-12.339l1.983-2.539
			l2.823-3.612l0.447-0.573l3.846-4.921l3.868-4.949l0.217-0.277l5.13,1.039l-0.425,0.565l-7.774,10.346l-0.435,0.578
			L117.95,116.907z M132.809,102.3l11.08,2.243l-2.012,15.633l-17.601-6.523L132.809,102.3z M147.061,128.903l-26.146-10.775
			l2.928-3.896l18.611,6.897l2.116-16.448l5.032,1.019L147.061,128.903z M156.802,100.154l-4.432-0.768V71.715l-9.334,8.914
			l-9.332-4.414v19.931l-4.434-0.766V56.667l4.434-0.709v5.126l9.332,4.834l9.334-9.334v-3.821l4.432-0.768V100.154z
			 M193.992,106.432l-32.746-5.689v-4.432l32.746,2.81V106.432z M193.992,93.585l-32.746-1.772v-4.432h32.746V93.585z
			 M177.402,83.596c-9.641,0-17.485-7.844-17.485-17.485c0-9.644,7.845-17.489,17.485-17.489c9.645,0,17.489,7.845,17.489,17.489
			C194.892,75.752,187.047,83.596,177.402,83.596z"/>
		<polygon fill="#FFFFFF" points="133.704,67.352 133.704,69.948 143.036,74.781 152.37,65.447 152.37,62.852 143.036,71.766 		"/>
	</g>
	<g>
		<g>
			<g>
				<path fill="#FFFFFF" d="M75.921,46.86c-0.674,0-1.315-0.083-1.929-0.247c-2.126-0.567-3.17-1.943-3.502-2.47
					c-2.394-2.922-2.017-7.249,0.868-9.712c1.417-1.208,3.218-1.794,5.073-1.647c1.857,0.146,3.542,1.007,4.751,2.423
					c0.592,0.693,0.51,1.732-0.183,2.324c-0.693,0.59-1.731,0.507-2.324-0.184c-0.637-0.746-1.525-1.2-2.503-1.277
					c-0.978-0.08-1.927,0.23-2.674,0.868c-1.538,1.315-1.726,3.636-0.41,5.177l0.146,0.172l0.06,0.131l0,0
					c0.002,0,0.462,0.752,1.636,1.034c1.197,0.286,3.378,0.15,6.969-2.126c9.573-6.067,11.287-8.281,17.602-6.48
					c0.877,0.25,1.795,2.397,1.546,3.273c-0.25,0.875-1.573,2.206-2.448,1.957c-5.125-1.459-5.91-1.685-14.934,4.034
					C80.776,45.939,78.183,46.86,75.921,46.86z"/>
			</g>
		</g>
		<g>
			<g>
				<path fill="#FFFFFF" d="M127.043,46.86c0.674,0,1.318-0.083,1.93-0.247c2.125-0.567,3.169-1.943,3.503-2.47
					c2.39-2.922,2.016-7.249-0.871-9.712c-1.413-1.208-3.217-1.794-5.072-1.647c-1.855,0.146-3.544,1.007-4.751,2.423
					c-0.592,0.693-0.511,1.732,0.183,2.324c0.692,0.59,1.732,0.507,2.323-0.184c0.636-0.746,1.526-1.2,2.503-1.277
					c0.979-0.08,1.928,0.23,2.676,0.868c1.54,1.315,1.724,3.636,0.408,5.177l-0.147,0.172l-0.059,0.131l0,0
					c0,0-0.461,0.752-1.634,1.034c-1.196,0.286-3.377,0.15-6.969-2.126c-9.575-6.067-11.284-8.281-17.604-6.48
					c-0.875,0.25-1.794,2.397-1.544,3.273c0.251,0.875,1.574,2.206,2.448,1.957c5.122-1.459,5.911-1.685,14.934,4.034
					C122.188,45.939,124.781,46.86,127.043,46.86z"/>
			</g>
		</g>
	</g>
</g>
</svg>
