<?xml version="1.0" encoding="utf-8"?>
<!-- Generator: Adobe Illustrator 17.0.2, SVG Export Plug-In . SVG Version: 6.00 Build 0)  -->
<!DOCTYPE svg PUBLIC "-//W3C//DTD SVG 1.1//EN" "http://www.w3.org/Graphics/SVG/1.1/DTD/svg11.dtd">
<svg version="1.1" id="Layer_1" xmlns="http://www.w3.org/2000/svg" xmlns:xlink="http://www.w3.org/1999/xlink" x="0px" y="0px"
	 width="935.672px" height="1018.697px" viewBox="0 0 935.672 1018.697" enable-background="new 0 0 935.672 1018.697"
	 xml:space="preserve">
<g>
	<path fill="#FFFFFF" d="M527.735,734.1c-1.143,4.792-2.331,9.573-3.419,14.378c-1.505,6.644-2.685,13.375-4.539,19.918
		c-0.611,2.156-2.618,5.088-4.45,5.476c-3.577,0.757-4.032-2.864-4.992-5.559c-3.146-8.839-6.481-17.61-10.273-27.837
		c-3.726,3.615-7.091,5.92-9.143,9.079c-3.784,5.824-6.766,12.167-10.163,18.248c-0.597,1.069-1.717,2.784-2.367,2.687
		c-1.265-0.19-2.854-1.206-3.429-2.33c-0.955-1.865-1.217-4.086-1.77-6.157c-3.101-11.606-6.201-23.212-9.302-34.818
		c-0.636-0.017-1.272-0.035-1.908-0.052c-1.601,8.849-3.212,17.697-4.793,26.55c-0.263,1.472-0.162,3.051-0.652,4.43
		c-0.485,1.366-1.505,2.542-2.291,3.801c-1.29-1.074-3.278-1.911-3.737-3.266c-1.32-3.889-2.03-7.986-2.958-12.007
		c-0.211-0.916-0.332-1.853-0.708-3.995c-6.775,5.888-12.946,11.132-18.972,16.539c-3.016,2.707-4.974,2.47-6.198-1.204
		c-1.933-5.803-3.8-11.629-6.013-18.422c-3.906,7.608-7.499,14.605-11.091,21.603c-0.656-0.065-1.313-0.131-1.969-0.196
		c-2.523-7.174-5.047-14.347-7.57-21.521c-0.37-0.033-0.74-0.066-1.109-0.099c-1.279,4.72-2.374,9.502-3.933,14.128
		c-0.574,1.703-2.24,3.039-3.409,4.542c-1.325-1.212-3.125-2.177-3.902-3.674c-7.667-14.778-8.856-30.539-6.236-46.661
		c2.291-14.098,0.046-27.711-2.603-41.524c-3.367-17.554-2.157-35.114,3.743-52.096c4.134-11.9,7.855-24.086,13.469-35.289
		c5.584-11.143,9.567-22.536,12.326-34.588c5.718-24.975-8.066-49.073-28.43-58.56c-3.253-1.515-7.784-2.459-11.004-1.425
		c-6.837,2.197-13.898,4.918-19.627,9.117c-17.427,12.773-36.485,21.789-57.183,27.596c-1.748,0.49-3.488,1.004-5.671,2.703
		c2.079,0.835,4.107,2.216,6.245,2.414c13.082,1.214,26.177,2.739,39.292,3.02c11.603,0.249,23.234-1.206,34.862-1.47
		c5.39-0.122,10.031-1.413,14.311-4.672c3.039-2.314,6.502-4.066,9.573-6.344c3.49-2.588,6.085-1.23,7.911,1.783
		c1.787,2.95,4.756,6.248,0.573,9.633c-3.343,2.706-6.605,5.599-10.261,7.817c-20.208,12.258-42.136,17.903-65.787,16.324
		c-7.96-0.531-15.895-1.426-23.844-2.135c-11.438-1.019-22.865-2.605-34.319-2.832c-8.172-0.162-18.052-10.558-18.646-18.09
		c-0.207-2.626,1.374-6.622,3.458-8.008c18.924-12.582,36.601-27.059,58.291-35.38c12.658-4.856,24.084-12.442,34.554-21.577
		c12.195-10.641,23.714-21.667,34.32-33.991c13.192-15.328,26.657-30.56,43.708-42.203c25.851-17.653,54.127-29.13,84.632-35.228
		c23.143-4.626,44.614-12.518,63.776-26.821c19.215-14.344,39.183-27.678,58.826-41.449c1.745-1.224,3.521-2.404,6.236-4.254
		c-1.035,3.915-1.841,6.711-2.51,9.539c-4.904,20.708,13.49,39.68,34.399,35.728c1.966-0.372,4.288,1.069,6.426,1.729
		c0.614,0.19,1.132,0.682,1.744,0.887c10.056,3.369,19.979,7.272,30.229,9.889c8.158,2.082,16.719,2.583,25.098,3.802
		c0.625,0.091,1.231,0.317,2.379,0.622c-0.997,0.935-1.591,1.998-2.329,2.109c-12.202,1.841-23.997,1.491-35.259-4.794
		c-6.586-3.675-13.849-6.14-21.146-9.296c-0.96,2.582-1.578,4.242-1.802,4.846c8.571,3.986,16.659,8.089,25.032,11.488
		c3.738,1.517,8.041,1.684,12.108,2.335c1.886,0.302,3.821,0.296,5.734,0.43c0.043,0.673,0.085,1.347,0.128,2.02
		c-4.868,0.418-9.862,1.706-14.57,1.023c-5.287-0.767-10.393-3.126-15.43-5.159c-3.065-1.237-5.844-3.176-8.762-4.782
		c-3.837-2.113-6.359-2.106-9.299,2.369c-3.209,4.884-8.222,8.623-12.63,12.663c-2.553,2.341-3.183,4.384-2.596,8.165
		c0.698,4.495-0.932,9.4-1.936,14.044c-0.112,0.519-3.549,1.183-4.021,0.61c-1.95-2.372-3.352-5.195-5.546-8.83
		c-0.713,2.549-1.602,4.531-1.774,6.573c-0.468,5.555-1.057,10.91-5.741,14.885c-1.034,0.877-1.357,2.624-1.935,4
		c-5.603,13.346-11.466,26.592-16.676,40.091c-2.91,7.54-4.953,15.443-6.952,23.294c-1.261,4.951,0.65,9.453,4.715,12.348
		c4.798,3.417,10.061,6.184,15.148,9.189c0.675,0.399,1.502,0.543,2.294,0.817c0.785-4.475,1.128-8.828,2.425-12.877
		c0.716-2.237,3.03-3.962,4.624-5.917c1.764,1.518,3.739,2.855,5.235,4.603c1.544,1.804,2.623,4.006,3.958,6.117
		c4.149-3.722,3.229-10.684,9.725-11.912c0.543,1.1,1.394,2,1.343,2.846c-0.833,13.839,5.563,27.822,0.796,41.307
		c-3.504,9.914-9.019,19.592-17.911,25.965c-16.954,12.152-29.542,28.255-41.764,44.695c-3.395,4.567-5.742,9.999-8.068,15.256
		c-3.969,8.967-8.117,17.926-11.102,27.237c-2.456,7.66-3.606,15.784-4.828,23.78c-0.979,6.402-1.495,12.912-1.654,19.388
		c-0.113,4.605,0.503,9.262,1.157,13.844c1.594,11.161-0.382,21.191-8.449,29.578c-6.148,6.392-6.759,14.793-8.624,22.903
		c-1.761,7.658-4.696,15.111-7.782,22.37c-1.382,3.252-5.812,2.432-7.121-0.997c-2.116-5.542-4.151-11.116-6.22-16.676
		C528.862,734.233,528.299,734.167,527.735,734.1z M664.249,328.303c-8.261,4.201-16.375,7.706-23.838,12.275
		c-9.868,6.041-19.977,12.06-28.612,19.648c-10.462,9.193-19.539,19.97-29.122,30.149c-4.093,4.348-8.384,8.607-11.839,13.439
		c-20.244,28.316-40.083,56.919-64.528,81.944c-5.805,5.943-11.058,12.461-16.225,18.983c-8.006,10.105-10.156,27.385-3.723,35.342
		c8.685,10.743,20.977,14.033,34.256,13.523c5.092-0.195,10.19-1.578,15.18-2.836c9.254-2.333,19.19-2.336,27.286-8.654
		c11.538-9.004,23.171-17.904,35.061-26.435c7.522-5.397,15.381-10.405,23.459-14.926c8.86-4.96,17.915-5.777,26.453,2.651
		c0.694-5.181,1.492-9.442,1.716-13.734c0.078-1.494-1.197-4.352-1.961-4.389c-5.676-0.277-11.373-2.471-17.069,0.862
		c-6.592,3.857-13.602,6.996-20.384,10.535c-3.603,1.88-7.647,3.358-10.564,6.031c-13.915,12.751-27.969,25.165-46.504,30.922
		c-0.475,0.148-0.918,0.399-1.391,0.557c-8.63,2.886-16.935,7.787-26.374,6.594c-18.354-2.32-26.125-9.442-22.202-26.272
		c0.903-3.874,3.315-7.639,5.803-10.858c11.378-14.719,23.412-28.943,34.482-43.886c11.976-16.166,23.069-32.982,34.716-49.395
		c2.771-3.905,6.082-7.459,9.383-10.949c4.914-5.196,10.258-9.995,15.028-15.314c9.202-10.261,19.108-19.544,32.127-24.758
		c3.358-1.345,7.401-1.37,10.37-3.22C655.388,349.81,662.125,340.859,664.249,328.303z M525.403,367.528
		c-1.841,0.654-3.18,1.121-4.513,1.604c-7.62,2.761-15.074,6.168-22.89,8.158c-16.624,4.233-32.835,9.563-48.591,16.285
		c-2.205,0.941-4.719,2.337-5.909,4.255c-3.478,5.607-7,11.34-9.335,17.47c-4.428,11.625-9.733,22.453-19.855,30.254
		c-0.638,0.492-1.04,1.291-2.24,2.829c3.464-0.99,5.905-1.49,8.195-2.378c8.34-3.235,16.839-4.391,25.859-4.076
		c7.223,0.252,14.662-0.731,21.727-2.367c6.533-1.513,13.958-3.158,18.774-7.314c11.979-10.338,24.412-20.657,30.67-36.084
		C520.965,387.118,524.574,378.111,525.403,367.528z M419.649,549.299c-15.126,14.917-12.31,33.042-11.623,50.582
		c0.802-3.165,1.081-6.393,1.346-9.623c0.663-8.082,0.177-16.412,4.735-23.681c0.695-1.108,2.305-2.641,3.108-2.44
		c1.118,0.28,2.391,1.883,2.695,3.139c1.236,5.1,1.994,10.315,3.172,15.431c2.718,11.796,5.441,23.595,8.516,35.301
		c0.511,1.945,2.805,3.422,4.276,5.116c0.431-0.316,0.861-0.632,1.292-0.947c-5.55-16.9-10.2-33.963-9.953-52.123
		c5.505,5.36,10.935,10.632,14.634,16.922c2.546,4.331,5.985,5.58,10.237,6.807C439.947,580.48,428.296,566.892,419.649,549.299z
		 M440.203,450.338c-0.089,0.699-0.178,1.398-0.267,2.096c1.432,0.796,2.842,2.225,4.3,2.274c5.616,0.192,11.433,0.812,16.829-0.344
		c8.197-1.756,16.115-4.827,24.134-7.395c10.18-3.261,18.168-9.298,23.893-18.441c5.71-9.118,11.855-17.965,17.516-27.113
		c1.77-2.86,2.59-6.31,3.844-9.49c-0.53-0.249-1.06-0.497-1.591-0.746c-10.542,15.621-17.57,33.962-34.103,44.946
		C478.302,447.062,460.192,452.067,440.203,450.338z M526.837,421.8c0.315,0.49,0.631,0.979,0.946,1.469
		c3.139-2.428,7.128-4.281,9.241-7.402c4.515-6.669,8.759-13.708,11.808-21.132c3.195-7.78,4.697-16.24,7.232-24.31
		c4.514-14.369,11.074-27.327,25.105-34.934c1.71-0.927,3.258-2.385,4.469-3.922c0.839-1.065,0.969-2.687,1.416-4.06
		c-0.508-0.462-1.016-0.923-1.525-1.385c-6.327,4.588-13.573,8.322-18.792,13.94c-11.229,12.086-14.125,28.178-18.757,43.419
		c-2.403,7.907-5.718,15.665-9.641,22.941C535.334,411.995,530.73,416.705,526.837,421.8z M549.721,413.503
		c1.31-0.487,3.461-0.652,3.792-1.514c2.131-5.56,5.162-11.202,5.479-16.95c0.875-15.827,6.245-29.525,16.703-41.205
		c3.605-4.026,8.044-7.297,12.032-10.989c2.172-2.011,4.195-4.183,6.285-6.282c-11.7,2.715-19.936,9.456-26,19.075
		c-5.98,9.486-11.619,19.03-10.643,30.903c0.136,1.651,0.177,3.372-0.129,4.987C555.847,398.875,554.589,406.302,549.721,413.503z
		 M546.89,612.055c-6.348,2.493-5.205,8.238-5.807,12.986c-0.642,5.062-0.719,10.195-1.043,15.298
		c-0.548-0.013-1.097-0.026-1.645-0.04c-1.629-9.027-3.258-18.054-5.085-28.177c-4.632,10.882,3.171,42.79,10.527,45.537
		c2.661-7.558,0.449-15.117,0.456-22.661C544.299,627.43,545.937,619.864,546.89,612.055z M501.769,673.744
		c3.73-4.188,3.638-8.579,3.038-13.054c-2.303-17.181-4.358-34.359-0.735-51.63c0.202-0.963-0.138-2.039-0.226-3.063
		c-2.1,2.515-3.22,5.196-3.941,7.981c-2.689,10.39-3.504,20.851-1.73,31.557C499.684,654.634,500.535,663.842,501.769,673.744z
		 M515.964,676.636c0.856-0.07,1.713-0.14,2.569-0.21c-0.27-4.426-0.22-8.9-0.867-13.271c-2.202-14.865-6.758-29.515-3.497-44.821
		c0.585-2.745,0.917-5.597,0.9-8.397c-0.01-1.684-0.92-3.362-1.426-5.043c-4.279,10.822-6.204,21.474-3.948,32.52
		c0.837,4.097,1.809,8.175,2.441,12.305C513.507,658.678,514.699,667.663,515.964,676.636z M567.477,396.437
		c0.398,0.062,0.797,0.124,1.195,0.186c0.836-3.136,1.757-6.252,2.493-9.411c1.871-8.039,2.003-16.889,7.888-23.277
		c5.128-5.566,11.366-10.103,17.027-15.191c1.309-1.176,2.261-2.749,3.377-4.14C577.087,352.421,568.214,373.087,567.477,396.437z
		 M527.728,664.747c0.59-0.878,1.489-1.595,1.418-2.198c-2.089-17.893-6.89-35.568-4.18-53.848c0.096-0.647-0.672-1.422-1.038-2.138
		c-0.507,0.062-1.014,0.124-1.521,0.186C519.039,626.327,522.597,645.429,527.728,664.747z M555.705,613.121
		c-0.544-0.111-1.087-0.222-1.631-0.333c-0.684,2.881-1.974,5.771-1.932,8.641c0.099,6.767,0.711,13.535,1.352,20.281
		c0.408,4.294,1.242,8.547,1.885,12.818c0.647-0.062,1.294-0.124,1.94-0.187C556.781,640.601,556.243,626.861,555.705,613.121z
		 M566.774,502.961c-0.599-0.096-1.199-0.191-1.798-0.287c-1.582,5.426-3.39,10.803-4.599,16.311
		c-0.331,1.51,1.129,3.413,1.768,5.135c2.1-1.163,5.496-1.887,6.068-3.57C570.224,514.633,569.07,508.645,566.774,502.961z
		 M577.539,496.422c-1.232,7.969-2.275,14.712-3.459,22.373C584.282,514.182,585.905,504.26,577.539,496.422z M614.243,380.473
		c-8.232,8.56-7.424,15.685,2.429,22.146C615.833,394.972,615.101,388.296,614.243,380.473z M604.978,491.316
		c0.751,0.62,2.169,2.601,3.076,2.389c2.666-0.621,6.547-0.822,5.95-5.095c-0.36-2.574-1.497-5.083-2.574-7.492
		c-0.401-0.896-1.612-1.936-2.477-1.958c-0.682-0.017-1.792,1.325-2.03,2.24C606.174,484.275,605.748,487.231,604.978,491.316z
		 M590.604,505.504c9.261-5.942,9.677-10.714,2.188-21.004C592.029,491.827,591.38,498.059,590.604,505.504z M619.227,320.454
		c-2.241,2.225-4.998,4.414-4.759,4.815c1.499,2.512,3.666,4.625,5.612,6.871c1.872-1.716,3.745-3.433,5.617-5.149
		C623.753,325.026,621.809,323.062,619.227,320.454z M590.648,421.942c-0.223-5.091-0.446-10.182-0.686-15.642
		C582.149,410.971,582.08,416.478,590.648,421.942z M616.895,338.349c-3.395-2.458-5.361-4.967-7.245-4.907
		c-1.531,0.049-4.019,3.127-4.108,4.957c-0.072,1.484,2.686,4.199,4.385,4.366C611.619,342.932,613.555,340.603,616.895,338.349z
		 M628.163,368.368c-8.949,3.095-8.974,8.29-0.784,15.564C627.641,378.743,627.886,373.871,628.163,368.368z M604.513,329.249
		c2.262-3,4.551-4.733,4.558-6.476c0.005-1.281-3.073-3.709-4.601-3.578c-1.945,0.167-3.712,2.402-5.556,3.746
		C600.446,324.668,601.979,326.394,604.513,329.249z M607.256,305.852c0.225,5.637,2.721,9.275,5.228,7.931
		c1.916-1.027,4.352-4.359,3.91-5.913C614.893,302.587,610.691,306.44,607.256,305.852z M641.082,376.78
		c0.705-4.326,1.702-7.361,1.581-10.351c-0.248-6.109-1.893-6.729-7.075-3.341C637.244,367.217,638.891,371.322,641.082,376.78z
		 M548.71,515.034c0.492,0.087,0.983,0.174,1.475,0.261c5.035-5.384,5.56-12.302,0.611-17.762
		C550.048,503.808,549.379,509.421,548.71,515.034z M631.704,468.222c-0.444-0.006-0.887-0.012-1.331-0.017
		c-0.813,5.029-1.626,10.057-2.617,16.185c2.839-1.376,4.403-2.134,6.066-2.94C633.081,476.822,632.393,472.522,631.704,468.222z
		 M599.759,406.412c0-3.315,0-6.086,0-9.152C594.213,400.286,596.337,403.073,599.759,406.412z"/>
	<path fill="#FFFFFF" d="M533.946,174.476c0.622-2.437,1.245-4.874,1.912-7.486c-8.324-1.875-8.116,5.668-11.14,10.786
		c-0.341-1.934-0.534-3.025-0.836-4.74c-0.783,1.523-1.283,2.495-2.387,4.645c-0.658-2.967-1.085-4.889-1.511-6.81
		c-0.57,7.354-6.586,4.158-9.865,5.115c-3.193,0.932-4.53-2.036-5.014-4.859c-0.154-0.896-0.133-2.056,0.313-2.785
		c3.384-5.526,6.893-10.976,10.767-17.085c-2.449-0.851-3.738-1.299-5.847-2.031c4.183-8.944,8.325-17.8,12.467-26.656
		c0.479,0.194,0.958,0.388,1.437,0.583c-0.368,1.64-0.735,3.28-1.103,4.921c0.37,0.151,0.741,0.301,1.111,0.452
		c7.633-15.945,15.267-31.89,23.544-49.18c-8.51,5.025-12.078,12.434-16.866,18.712c-2.401,3.148-4.171,6.797-6.701,9.822
		c-3.845,4.597-8.085,5.34-13.325,2.882c-0.673-0.316-1.446-0.939-1.678-1.595c-3.849-10.878-5.017-22.079-3.857-33.542
		c0.044-0.435,0.006-0.879,0.006-1.936c-4.155,7.225-7.801,14.086-11.94,20.634c-5.43,8.59-11.282,16.912-16.873,25.402
		c-1.039,1.577-2.197,3.333-2.445,5.124c-0.739,5.352-4.312,8.551-7.997,11.811c-0.699,0.618-1.188,1.649-1.432,2.58
		c-1.458,5.555-3.281,11.071-4.071,16.727c-0.728,5.214-3.238,8.863-7.659,10.89c-7.201,3.303-14.488,5.72-21.856-0.368
		c-2.696-2.228-7.998-1.853-6.72-7.472c0.824-3.622,1.878-7.199,2.997-10.743c0.477-1.511,1.387-2.885,1.702-4.668
		c-8.441,7.003-20.466,9.621-25.287,21.133c0.409-1.187,0.817-2.373,1.226-3.56c-0.284-0.262-0.569-0.524-0.853-0.786
		c-1.731,1.479-3.475,2.944-5.191,4.441c-2.349,2.049-4.638,4.168-7.023,6.174c-2.497,2.101-6.128,3.593-7.419,6.248
		c-3.61,7.419-9.494,9.076-16.844,8.671c-6.205-0.342-12.472-0.099-18.607-0.904c-2.314-0.304-5.354-2.415-6.178-4.461
		c-0.69-1.712,0.689-5.486,2.347-6.661c3.508-2.486,3.697-5.332,4.094-9.205c1.254-12.228,3.423-24.361,5.169-36.541
		c0.969-6.754,2.04-13.508,2.573-20.301c0.203-2.584-1.074-5.26-1.484-7.924c-0.236-1.529-0.769-3.845-0.002-4.566
		c6.323-5.943,5.346-14.075,6.519-21.406c2.68-16.757,4.71-33.616,7.161-50.411c1.409-9.651,4.678-11.322,12.973-6.146
		c4.385,2.737,7.217,2.72,11.182-0.954c9.571-8.866,21.817-12.407,34.143-15.561c3.684-0.943,7.251-2.892,10.943-3.097
		c3.729-0.207,8.404,0.102,11.052,2.21c2.091,1.665,2.451,6.429,2.316,9.766c-0.257,6.346-2.841,11.11-9.87,13.176
		c-4.557,1.339-8.78,4.303-12.723,7.136c-7.353,5.283-14.669,10.42-24.001,11.491c-4.818,0.553-7.291,3.361-7.95,8.108
		c-0.885,6.37-1.947,12.716-3.082,20.035c15.563-4.927,29.784-10.696,45.072-11.485c-0.259,4.772-0.509,9.247-0.741,13.724
		c-0.275,5.308-9.842,12.559-15.165,13.357c-4.864,0.729-9.554,3.351-14.04,5.681c-5.932,3.081-11.245,7.759-17.464,9.771
		c-6.2,2.006-7.356,6.079-8.723,11.165c-2.049,7.626-3.083,16.189-7.409,22.342c-3.844,5.467,0.102,11.655-4.313,15.814
		c6.074-2.289,12.212-4.429,18.171-6.987c1.236-0.531,1.67-2.727,2.707-3.959c3.742-4.446,15.345-7.25,21.75-5.103
		c-5.641,3.395-11.05,6.65-16.458,9.906c0.219,0.609,0.438,1.217,0.657,1.826c1.248-0.057,3.118,0.396,3.647-0.249
		c5.556-6.778,13.992-7.531,21.317-10.618c2.292-0.966,4.255-2.713,7.325-4.731c-3.313-0.348-4.871-0.512-6.024-0.633
		c0.354-1.499,0.412-3.154,1.12-4.454c1.581-2.901,3.7-5.02,7.352-5.703c7.232-1.352,11.775-5.56,15.493-12.367
		c18.503-33.89,37.697-67.405,56.675-101.038c0.813-1.441,1.719-2.897,2.865-4.069c3.165-3.238,7.06-3.544,9.855-0.076
		c4.573,5.673,8.621,11.777,12.753,17.794c0.708,1.031,1.065,2.543,1.022,3.813c-0.302,8.944-0.411,17.915-1.265,26.812
		c-0.638,6.645-2.298,13.192-3.637,20.519c12.879-16.998,25.101-33.327,37.568-49.466c3.947-5.109,8.473-9.782,12.889-14.51
		c1.785-1.911,3.547-2.465,5.691,0.308c1.022,1.323,3.788,1.656,5.804,1.778c4.244,0.257,8.515,0.078,11.116,0.078
		c2.887,6.08,4.526,10.579,7.014,14.545c4.457,7.105,3.374,12.579-1.098,19.943c-11.636,19.159-21.858,39.193-32.281,59.069
		c-9.575,18.26-18.543,36.837-28.098,55.108c-1.866,3.568-5.493,6.175-7.741,9.598c-1.422,2.166-1.794,5.021-2.636,7.567
		C534.67,174.68,534.308,174.578,533.946,174.476z M395.076,146.328c-3.385,2.167-5.771,3.694-8.158,5.221
		c0.314,0.473,0.628,0.947,0.942,1.42C390.719,151.944,394.35,151.957,395.076,146.328z"/>
	<path fill="#FFFFFF" d="M723.408,219.768c1.701,1.37,3.221,3.447,5.147,3.941c2.761,0.708,5.936-0.227,8.717,0.441
		c2.893,0.694,5.522,2.477,8.279,3.754c4.256,1.971,8.524,3.916,13.354,6.132c0.231-7.776,5.77-10.921,11.359-8.019
		c15.331,7.958,15.503,8.179,29.056-2.346c19.994-15.527,39.705-31.417,59.562-47.121c2.48-1.961,5.028-3.861,7.686-5.567
		c4.149-2.663,7.762-5.186,6.232-11.289c-0.934-3.726,1.503-4.948,5.15-3.834c8.969,2.739,15.918,8.221,21.308,15.716
		C909.87,186.33,914.476,203.118,916.24,221c0.971,9.846,0.146,19.178-4.165,28.144c-1.516,3.153-2.676,6.48-4.242,9.606
		c-0.721,1.44-1.938,2.678-3.106,3.829c-0.683,0.673-1.953,0.793-2.551,1.505c-4.422,5.258-10.788,6.252-16.834,8.099
		c-1.042,0.318-1.338,3.025-2.39,3.369c-5.562,1.816-11.2,4.181-16.918,4.509c-5.526,0.317-11.182-1.608-16.271-2.462
		c0,3.43,0.361,5.84-0.059,8.106c-2.633,14.203-5.315,28.401-8.315,42.53c-0.483,2.273,0.378,4.498-1.972,7.145
		c-4.663,5.253-10.315,3.606-15.432,3.949c-6.001,0.402-10.633-4.208-10.699-10.935c-0.124-12.758,0.477-25.55,1.422-38.281
		c0.527-7.096,2.365-14.094,3.589-21.14c1.052-6.054,3.53-12.555-5.042-15.62c-2.494,1.552-5.177,3.427-8.049,4.944
		c-2.357,1.245-5.001,1.935-7.403,3.107c-2.54,1.239-5.057,2.592-7.385,4.186c-5.104,3.495-10.534,6.698-14.977,10.918
		c-3.964,3.765-7.351,6.695-12.882,2.917c0.411-0.737,1.02-1.826,2.293-4.106c-2.623,1.273-4.139,2.009-5.159,2.505
		c-1.736-1.455-3.784-2.51-4.858-4.187c-4.861-7.593-4.651-10.316,1.862-16.471c5.431-5.133,11.318-9.784,17.017-14.632
		c1.216-1.035,2.49-2.001,3.738-2.998c-0.32-0.459-0.641-0.919-0.961-1.378c-2.863,1.884-5.956,3.502-8.532,5.719
		c-3.272,2.817-6.43,2.287-10.155,1.23c-7.876-2.234-15.846-4.171-23.842-5.937c-5.436-1.2-10.953-2.183-16.486-2.743
		c-4.852-0.491-10.142,0.834-14.571-0.644c-4.626-1.544-8.659-1.332-13.028-0.336c-0.916,0.209-1.948,0.802-2.726,0.564
		c-3.682-1.127-8.112-1.566-10.77-3.938c-6.236-5.564-11.832-11.911-17.172-18.367c-1.206-1.458-1.037-4.97-0.168-6.952
		c0.755-1.722,3.731-3.99,5.143-3.643c6.466,1.588,9.748-2.435,13.981-5.966c7.787-6.497,16.253-12.175,24.38-18.269
		c8.128-6.095,16.239-12.215,24.23-18.486c1.464-1.149,3.1-2.983,3.301-4.663c0.517-4.321,3.088-5.267,6.743-5.861
		c2.643-0.43,5.529-1.264,7.63-2.828c18.568-13.823,36.985-27.85,55.448-41.814c0.664-0.502,1.326-1.011,2.023-1.466
		c5.274-3.441,9.924-2.126,10.771,3.972c1.073,7.731,4.224,10.56,12.351,10.871c12.935,0.496,24.054,7.137,34.944,13.712
		c3.101,1.872,6.679,3.029,9.565,5.156c2.281,1.68,4.099,4.177,5.649,6.613c1.841,2.894,1.311,5.246-1.875,7.473
		c-2.655,1.855-4.2,5.249-6.769,7.291c-2.602,2.068-4.902,3.824-9.496,1.959c-8.056-3.27-16.885-4.918-25.54-6.343
		c-7.11-1.171-13.532-3.418-19.197-7.736c-4.517-3.443-8.62-3.301-13.081,0.231c-5.413,4.285-11.119,8.201-17.485,12.851
		c15.349,7.661,30.056,13.98,41.798,24.76c-3.932,3.605-7.627,7.149-11.497,10.49c-2.83,2.443-18.41,3.079-20.045,0.113
		c-2.488-4.512-7.474-1.85-10.205-5.12c-4.269-5.112-11.358-1.661-16.615-4.844c-3.872-2.345-8.511-3.446-12.85-4.984
		c-1.265-0.448-3.023-1.13-3.964-0.619c-9.529,5.18-18.91,10.633-28.405,15.877c-1.379,0.762-3.141,0.842-4.734,1.202
		c-0.849,0.191-2.29,0.051-2.485,0.493c-1.812,4.102-5.704,5.539-9.492,6.985c6.694,3.101,12.911,6.012,19.167,8.837
		c0.671,0.303,1.647,0.335,2.349,0.098c7.394-2.491,18.825,3.043,21.792,10.049c-7.5-1.052-15.385-2.157-23.276-3.258
		c-3.219-1.336-6.265-3.627-10.507-2.263C716.572,221.598,719.729,222.115,723.408,219.768z M818.015,237.515
		c3.157,6.708,6.265,12.352,12.772,13.199c12.836,1.671,25.73,1.979,36.638-7.027c2.82-2.328,5.375-4.987,8.266-7.217
		c12.569-9.699,11.37-22.197,5.36-33.956c-0.753-1.473-2.183-2.599-3.054-3.604C857.644,212.009,837.883,224.727,818.015,237.515z
		 M879.062,267.155c-0.279-0.592-0.558-1.184-0.837-1.776c-3.172,1.686-6.344,3.373-9.516,5.059
		c0.376,0.691,0.752,1.383,1.129,2.074C872.912,270.727,875.987,268.941,879.062,267.155z"/>
	<path fill="#FFFFFF" d="M343.204,717.022c-5.869,4.255-11.599,8.438-17.362,12.576c-3.367,2.417-6.735,4.842-10.212,7.093
		c-1.102,0.714-2.56,0.878-3.856,1.294c-0.328-1.388-0.877-2.771-0.906-4.164c-0.019-0.893,0.553-1.948,1.162-2.681
		c3.763-4.527,3.357-9.712,2.806-14.94c-0.456-0.388-0.912-0.775-1.368-1.163c-3.505,3.936-6.829,8.06-10.618,11.7
		c-1.225,1.177-3.673,1.082-5.561,1.569c-0.445-1.74-1.513-3.59-1.232-5.203c1.501-8.598,3.341-17.138,5.129-26.028
		c-7.115,1.601-12.85,4.904-17.276,10.343c-1.826,2.244-4.077,4.35-6.629,2.191c-1.439-1.217-1.623-4.151-1.952-6.374
		c-0.26-1.761,0.045-3.624,0.233-5.428c0.37-3.543,0.834-7.076,1.359-11.447c-4.527,2.988-8.446,5.701-12.504,8.189
		c-1.573,0.964-4.49,2.438-5.011,1.912c-1.586-1.601-3.122-4.037-3.193-6.196c-0.163-4.968,0.825-9.964,0.827-14.948
		c0.002-4.199-0.727-8.399-1.26-13.913c-3.475,3.159-5.713,5.193-8.223,7.475c-5.87-7.122,2.263-12.365,1.529-19.531
		c-3.48,2.768-6.368,5.07-9.262,7.364c-1.283,1.017-2.468,2.644-3.889,2.891c-2.494,0.434-5.933,0.957-7.463-0.341
		c-1.217-1.032-0.851-4.988,0.002-7.184c1.858-4.785,4.64-9.204,6.679-13.93c0.596-1.382-0.039-3.297-0.11-4.967
		c-1.448,0.063-3.11-0.319-4.311,0.258c-10.529,5.058-20.967,10.251-28.056,20.19c-0.824,1.155-3.022,1.329-4.582,1.958
		c-0.096-1.531-0.141-3.067-0.297-4.592c-0.312-3.044,1.299-4.532,3.661-6.33c2.348-1.787,4.201-4.778,5.256-7.618
		c5.703-15.355,15.616-27.339,27.215-38.793c11.245-11.105,20.65-24.149,30.255-36.803c3.687-4.858,6.753-8.254,13.596-7.543
		c12.904,1.34,25.945,1.352,38.851,2.676c23.799,2.442,46.057-1.087,66.205-14.795c4.554-3.098,9.29-6.27,16.524-6.054
		c-1.899,8.341-3.074,16.231-5.559,23.685c-2.719,8.154-6.889,15.811-9.997,23.85c-4.898,12.672-11.15,25.148-13.72,38.313
		c-3.702,18.973-3.624,38.419,1.954,57.426c1.444,4.922,2.183,10.096,2.793,15.208c1.562,13.086-6.572,26.375-19.604,32.451
		c-1.055,0.492-2.185,0.827-3.221,1.352c-3.046,1.542-6.894,3.489-9.085,0.417c-1.492-2.092-0.346-6.094-0.287-9.24
		C342.651,718.426,343.029,717.66,343.204,717.022z M370.077,567.439c-2.347,17.581-14.15,31.974-17.38,50.721
		c1.888-1.516,3.086-2.077,3.677-3.018c3.599-5.732,7.721-11.259,10.427-17.402c5.441-12.35,8.903-25.364,10.064-38.876
		c0.137-1.592-0.767-3.273-1.189-4.913c-0.534-0.201-1.068-0.402-1.603-0.603c-9.662,12.191-19.324,24.382-28.986,36.573
		c0.427,0.403,0.855,0.807,1.282,1.21C358.199,587.434,361.897,575.244,370.077,567.439z M314.464,605.956
		c1.42-1.548,2.985-2.988,4.23-4.666c2.742-3.696,4.749-8.147,8.08-11.154c8.602-7.766,17.746-14.933,26.707-22.298
		c2.302-1.893,5.281-3.468,1.928-7.353C337.189,571.475,319.569,582.787,314.464,605.956z"/>
	<path fill="#FFFFFF" d="M93.631,133.366c7.425,1.463,12.843,2.807,18.343,3.543c6.746,0.902,9.878,4.443,12.378,10.922
		c7.288,18.889,15.342,37.51,23.78,55.922c9.833,21.453,20.538,42.506,30.515,63.895c2.099,4.501,2.682,9.709,4.087,15.061
		c-4.419-1.135-6.344,2.729-4.399,6.838c1.099,2.323,2.424,4.539,4.235,7.893c-1.968-1.179-2.904-1.74-4.517-2.706
		c0.674,1.724,1.085,2.778,1.871,4.788c-2.65-1.284-4.347-2.107-6.044-2.93c5.665,4.953-0.963,7.733-2.043,10.944
		c-1.018,3.025-4.329,2.354-6.883,1.181c-0.82-0.377-1.765-1.1-2.067-1.889c-2.38-6.217-4.619-12.488-7.434-20.204
		c-1.926,2.532-2.784,3.661-4.116,5.412c-4.69-8.872-9.487-17.947-14.285-27.022c0.392-0.247,0.784-0.494,1.176-0.74
		c0.871,1.181,1.742,2.361,2.613,3.542c0.528-0.392,1.055-0.784,1.583-1.176c-8.025-15.9-16.051-31.8-24.076-47.7
		c-1.638,8.763,1.892,16.348,4.109,24.172c0.762,2.688,2.24,5.18,2.943,7.878c2.455,9.42,1.804,10.847-5.729,15.74
		c-13.238-2.442-22.787-10.102-32.504-17.958c1.617,3.577,3.465,7.07,4.808,10.747c4.873,13.343,9.469,26.788,14.421,40.101
		c1.168,3.141,3.445,5.853,4.976,8.881c0.865,1.711,1.264,3.66,1.847,5.51c0.953,3.023,1.364,6.365,2.949,9.005
		c2.331,3.882,5.078,7.718,8.396,10.756c5.382,4.928,5.911,10.711,3.814,16.853c-2.209,6.474-5.046,12.809-13.251,13.823
		c-0.884,0.109-1.642,1.086-2.502,1.584c-2.944,1.706-5.097,1.188-7.864-1.206c-4.491-3.886-6.401-9.015-8.678-14.052
		C80.946,317.28,65.678,283.842,50.805,250.23c-6.389-14.437-11.941-29.244-17.856-43.891c-0.559-1.385-1.161-2.789-1.439-4.243
		c-0.878-4.582,1.377-8.115,6.026-8.213c7.278-0.152,14.583,0.27,21.85,0.802c1.838,0.134,3.842,1.285,5.321,2.51
		c10.991,9.11,22.274,17.937,30.816,29.599c0.59,0.806,1.018,1.73,1.864,3.191c0.495-1.619,0.724-1.951,0.655-2.201
		c-5.738-20.627-11.623-41.213-17.173-61.89c-1.452-5.408-1.942-11.084-2.716-16.659c-0.316-2.277,0.486-3.456,3.272-3.787
		c1.956-0.232,4.014-2.002,5.463-3.597C89.708,138.747,92.133,135.284,93.631,133.366z"/>
	<path fill="#FFFFFF" d="M669.222,188.65c-0.8,1.586-1.227,4.1-2.465,4.599c-5.734,2.311-11.59,4.535-17.608,5.858
		c-4.481,0.985-9.274,0.626-13.93,0.713c-5.219,0.097-10.441,0.022-15.706-0.648c1.395-0.176,2.79-0.352,4.185-0.527
		c-0.032-0.382-0.064-0.764-0.096-1.146c-3.533,0.33-7.081,0.553-10.594,1.03c-2.096,0.285-4.021,0.83-2.841-2.464
		c-2.698-0.687-5.44-2.095-8.088-1.936c-12.128,0.728-20.187-6.071-27.186-14.489c-2.025-2.435-2.921-3.285-5.597-1.209
		c-1.014,0.787-2.997,0.326-5.094,0.473c0.736-1.787,1.263-3.068,2.24-5.44c-2.304,1.454-3.82,2.411-5.635,3.557
		c-0.408-0.803-0.6-1.969-1.215-2.27c-5.591-2.733-6.539-4.716-4.472-10.15c0.47-1.236,0.961-2.561,1.796-3.545
		c3.408-4.013,2.793-7.59-1.036-10.783c-3.378-2.816-2.893-4.7,1.013-6.407c1.559-0.681,3.845-1.901,4.038-3.149
		c1.324-8.54,8.733-6.725,13.939-8.705c2.45-0.932,5.204-1.789,7.029-3.516c8.585-8.121,17.279-16.184,25.215-24.922
		c11.63-12.806,22.549-26.256,33.977-39.251c4.39-4.992,9.266-9.57,14.069-14.184c3.718-3.572,7.634-6.769,7.973-12.618
		c0.216-3.742,2.75-4.875,6.448-3.956c2.057,0.511,4.351,0.047,6.424,0.519c2.362,0.539,5.756,0.984,6.664,2.608
		c2.389,4.275,6.339,5.034,10.224,6.2c16.119,4.837,27.237,14.944,32.636,30.99c2.169,6.447,4.561,12.91,5.759,19.563
		c0.821,4.563,0.095,9.512-0.552,14.204c-0.787,5.709-5.491,7.525-10.306,8.752c-5.703,1.454-11.431,2.837-17.199,3.992
		c-3.8,0.761-7.69,1.067-11.203,1.531c1.527,8.399,3.38,16.908,4.482,25.513c0.425,3.319-0.283,7.073-1.473,10.254
		c-3.143,8.399-5.708,17.481-16.016,20.349c-0.352,0.098-0.555,0.733-1.209,1.656c1.656-0.187,2.799-0.315,5.371-0.605
		c-5.454,3.607-9.734,6.438-14.014,9.269c-3.914,1.468-7.829,2.936-11.743,4.404c0.304,0.643,0.609,1.285,0.913,1.928
		C661.965,192.68,665.594,190.665,669.222,188.65z M594.243,167.595c1.008,1.511,1.506,2.94,2.512,3.654
		c6.184,4.388,13.351,1.144,20.058,2.23c9.384,1.52,17.273-5.198,26.124-7.296c0.854-0.202,1.913-1.96,1.881-2.964
		c-0.064-2.019-0.815-4.016-1.06-5.065c1.048-1.133,1.659-1.973,2.44-2.6c1.883-1.511,3.718-3.16,5.824-4.284
		c1.297-0.692,3.056-0.521,4.13-0.671c-0.726-3.974-1.351-7.395-2.152-11.783c1.676-0.703,4.12-2.585,6.456-2.46
		c2.184,0.117,4.254,2.362,6.892,3.99c0.211-0.555,1.228-1.89,0.997-2.955c-0.29-1.336-1.603-2.449-3.069-4.485
		c1.991,0.706,2.809,0.996,3.711,1.316c0.334-8.323-0.92-9.311-11.266-9.99c-1.115-1.273-2.394-2.382-3.822-2.628
		c-2.375-0.409-4.883-0.031-7.267-0.41c-3.24-0.515-5.311,0.451-7.76,2.868c-10.62,10.477-21.595,20.598-32.538,30.743
		c-4.355,4.037-8.971,7.793-13.433,11.717c-0.27,0.237-0.222,0.835-0.419,1.679C593.669,167.793,594.509,167.503,594.243,167.595z
		 M664.302,94.554c0.352,0.698,0.703,1.396,1.055,2.094c13.186-2.274,26.41-4.366,39.514-7.039c1.748-0.357,3.85-3.532,4.132-5.625
		c0.701-5.21-1.641-7.93-6.738-9.414c-13.14-3.828-13.224-3.918-23.362,5.405C673.845,84.626,669.157,89.681,664.302,94.554z"/>
	<path fill="#FFFFFF" d="M245.024,149.894c9.2,14.671,12.176,31.227,13.3,47.995c0.693,10.336-0.814,20.82-2.485,31.226
		c-0.445-0.681-0.89-1.363-1.779-2.723c-0.671,2.22-1.352,3.703-1.546,5.247c-1.133,8.997-7.072,14.33-14.205,18.691
		c-3.686,2.254-7.522,4.272-11.355,6.272c-18.602,9.707-43.003-2.915-50.75-16.963c-7.741-14.037-12.786-29.022-15.133-44.671
		c-3.006-20.043-5.155-40.248-6.77-60.455c-0.983-12.3,2.542-24.141,8.106-35.13c2.765-5.46,6.859-9.738,13.91-9.513
		c1.093,0.035,2.734-1.133,3.265-2.18c2.654-5.234,5.623-9.236,12.625-8.031c2.723,0.468,6.038-4.055,7.897,0.353
		c1.361-1.239,2.409-2.967,3.812-3.332c5.332-1.387,9.936,1.206,13.244,7.206c4.939,8.959,10.044,17.845,14.522,27.033
		c2.26,4.639,3.209,9.904,4.905,14.833c2.426,7.049,4.994,14.048,7.502,21.069c-0.36,1.887-1.215,3.839-0.98,5.649
		c0.528,4.062,1.442,8.094,2.481,12.064c1.866,7.13,3.939,14.206,5.926,21.304c-0.534-7.37-1.415-14.674-2.767-21.89
		C247.857,159.197,246.289,154.574,245.024,149.894z M197.046,116.765c-0.517-0.052-1.033-0.103-1.55-0.155
		c-0.51,7.569-1.53,15.145-1.438,22.707c0.347,28.537,6.029,56.139,15.719,82.918c1.421,3.928,3.913,7.469,5.987,11.333
		c7.195-5.703,9.309-9.383,10.559-16.652c2.606-15.159-0.522-29.801-3.832-44.427C217.889,152.152,205.824,135.205,197.046,116.765z
		"/>
	<path fill="#FFFFFF" d="M825.998,571.626c1.618,33.031,3.236,66.062,4.914,100.324c-14.089-14.118-27.161-27.217-40.712-40.796
		c1.405,26.718,5.063,53.118,2.988,79.624c-0.543,0.066-1.086,0.132-1.629,0.197c-1.62-7.862-3.032-15.773-4.901-23.575
		c-4.881-20.372-10.227-40.637-14.828-61.07c-1.779-7.9-2.224-16.126-2.87-24.236c-0.146-1.828,1.409-3.791,2.181-5.692
		c1.829,0.751,4.019,1.089,5.428,2.32c7.623,6.663,15.053,13.547,23.532,21.247c-0.533-9.326-0.384-17.55-1.579-25.573
		c-3.527-23.676-7.585-47.273-11.447-70.899c-0.134-0.82-0.639-1.652-0.538-2.422c0.288-2.2,0.215-4.858,1.463-6.354
		c0.647-0.776,4.026,0.059,5.756,0.962c9.582,4.999,19.141,9.949,26.536,18.331c1.941,2.2,6.129,2.418,10.498,3.98
		c-0.769-4.465-1.092-7.703-1.899-10.816c-7.222-27.826-14.558-55.622-21.793-83.444c-1.902-7.316-0.648-8.505,6.557-6.949
		c12.84,2.773,25.668,5.621,38.567,8.095c4.453,0.854,6.235,2.918,6.208,7.362c-0.128,21.311-0.55,42.633-0.014,63.93
		c0.472,18.773,2.033,37.519,3.192,56.273c0.388,6.286,1.213,12.552,1.389,18.839c0.039,1.385-1.558,3.378-2.917,4.049
		c-0.966,0.478-3.085-0.435-4.194-1.337c-8.002-6.51-15.861-13.198-23.811-19.773c-1.37-1.133-2.959-2.002-4.447-2.992
		C827.084,571.363,826.541,571.494,825.998,571.626z"/>
	<path fill="#FFFFFF" d="M110.193,622.767c4.973-4.61,9.795-9.08,14.618-13.55c2.932-2.718,5.753-5.575,8.854-8.085
		c1.248-1.01,3.748-2.196,4.554-1.648c1.388,0.944,2.73,3.233,2.632,4.869c-0.46,7.626-0.72,15.375-2.338,22.799
		c-4.211,19.33-9.232,38.483-13.655,57.769c-2.225,9.703-3.851,19.544-6.533,29.277c-3.181-26.569,0.069-53.023,1.538-80.075
		c-13.408,13.686-26.434,26.983-40.203,41.036c-0.322-2.806-0.879-5.01-0.778-7.183c1.024-21.946,2.154-43.888,3.26-65.83
		c0.335-6.65,0.765-13.298,0.989-19.952c0.077-2.271-0.343-4.559-0.656-8.255c-5.831,4.428-10.891,8.002-15.638,11.953
		c-4.605,3.832-8.786,8.173-13.387,12.011c-1.071,0.893-3.663,1.417-4.528,0.76c-1.275-0.969-2.385-3.21-2.26-4.807
		c2.235-28.669,5.793-57.178,3.255-86.152c-1.549-17.675-0.016-35.619,0.119-53.442c0.024-3.205,1.713-4.724,4.759-5.38
		c13.817-2.975,27.603-6.095,41.416-9.089c5.061-1.097,6.548,0.279,5.312,5.482c-2.765,11.638-5.864,23.196-8.776,34.8
		c-4.085,16.277-8.154,32.558-12.158,48.856c-0.904,3.681-1.513,7.434-2.301,11.372c5.886,0.394,9.563-2.129,13.753-5.579
		c7.751-6.382,16.507-11.597,25.108-16.867c3.543-2.171,5.821-0.242,5.277,4.55c-0.919,8.091-2.566,16.099-3.516,24.188
		c-2.926,24.919-8.886,49.454-9.454,74.668C109.45,621.535,109.713,621.812,110.193,622.767z"/>
	<path fill="#FFFFFF" d="M230.008,857.246c-0.46,1.411-0.893,2.831-1.385,4.231c-4.213,11.987-8.465,23.96-12.645,35.958
		c-2.379,6.828-4.839,13.638-6.891,20.567c-1.344,4.536-4.618,6.722-8.52,5.689c-4.313-1.142-6.218,1.526-9.115,3.126
		c-2.239,1.237-5.551,2.652-7.435,1.825c-1.922-0.844-3.593-4.25-3.807-6.672c-1.35-15.253-2.263-30.545-3.424-47.32
		c-1.284,2.422-2.103,3.688-2.66,5.06c-6.128,15.08-12.436,30.094-18.202,45.312c-2.237,5.905-6.539,2.037-9.765,3.017
		c-3.214,0.977-6.292-2.941-10.084,0.189c-2.222,1.834-5.993-3.153-4.94-6.929c1.28-4.591,2.766-9.125,3.653-14.255
		c-8.639,2.93-17.403,5.235-23.901,12.331c0-0.485,0-1.204,0-2.638c-6.28,4.239-12.007,8.348-18.004,12.016
		c-1.982,1.212-4.735,1.986-7.003,1.74c-5.088-0.553-10.169-1.607-15.09-3.023c-1.73-0.498-3.749-2.449-4.192-4.119
		c-0.31-1.169,1.758-3.044,2.897-4.5c0.87-1.112,2.464-1.897,2.853-3.111c4.106-12.809,8.131-25.648,11.926-38.552
		c0.698-2.372,0.168-5.086,0.409-7.622c0.113-1.193,0.539-2.435,1.123-3.489c1.481-2.675,3.661-5.076,4.621-7.905
		c4.436-13.063,8.464-26.265,12.822-39.356c2.02-6.068,4.464-6.714,9.385-2.426c2.628,2.29,4.576,2.828,7.747,0.746
		c7.31-4.797,15.802-5.859,24.31-6.574c2.324-0.195,4.707-0.13,6.96-0.638c4.087-0.922,8.211-0.839,9.539,3.567
		c1.799,5.969-1.824,11.97-6.656,13.375c-4.254,1.237-8.333,3.066-12.57,4.371c-5.341,1.645-10.693,3.448-16.177,4.361
		c-3.406,0.567-5.538,1.635-6.582,4.924c-1.3,4.095-2.752,8.143-4.262,12.575c10.837-0.964,21.145-1.88,31.613-2.811
		c-0.982,10.67-4.308,15.901-10.873,17.589c-3.993,1.027-8.051,1.801-12.053,2.796c-5.913,1.47-11.818,2.983-17.684,4.625
		c-0.736,0.206-1.366,1.225-1.803,2.003c-3.842,6.844-7.748,13.657-11.364,20.619c-1.171,2.255-1.541,4.927-2.663,8.71
		c5.423-1.998,10.331-3.749,15.194-5.615c4.789-1.837,9.537-3.742,15.526-1.2c-5.14,2.176-9.626,4.075-14.111,5.974
		c0.259,0.588,0.519,1.175,0.778,1.763c2.854-1.387,5.604-3.092,8.593-4.067c2.716-0.886,5.749-0.759,8.534-1.489
		c2.318-0.608,7.293,1.489,4.823-4.905c-0.781-2.023,2.508-5.052,5.958-4.904c4.595,0.196,6.435-2.202,8.047-6.344
		c7.421-19.058,15.229-37.968,23.052-56.867c1.583-3.825,3.593-7.529,5.833-11.015c3.243-5.048,7.473-5.968,12.208-2.316
		c4.43,3.417,8.621,7.273,12.295,11.48c1.546,1.769,2.26,5.005,2.036,7.453c-1.027,11.228-2.304,22.446-3.942,33.601
		c-0.766,5.213-2.741,10.238-3.796,15.424c-0.487,2.392-0.083,4.966-0.083,7.458c0.493,0.056,0.987,0.111,1.48,0.167
		c0.399-0.443,1.006-0.823,1.166-1.34c4.519-14.682,10.759-28.488,18.835-41.65c5.44-8.866,9.533-18.645,13.444-28.332
		c2.415-5.98,7.493-7.53,11.546-9.563c3.346,2.083,6.626,3.565,9.134,5.884c1.667,1.542,3.704,5.417,3.034,6.282
		c-2.994,3.869-2.748,9.94-8.179,12.134c-0.941,0.38-1.527,1.64-2.277,2.493c-1.267,1.06-2.534,2.119-3.8,3.179
		c-4.512,6.509-8.601,13.197-9.324,22.246C227.738,860.346,228.873,858.796,230.008,857.246z"/>
	<path fill="#FFFFFF" d="M326.172,114.456c0-5.067,0-10.135,0-15.202c-5.739,21.809-6.551,44.034-6.749,66.4
		c-0.217-2.073-0.434-4.146-0.65-6.219c2.804,14.298,0.609,28.3-1.649,42.628c-3.154-0.536-6.453-3.078-8.014,0.277
		c-2.822,6.068-9.923,6.169-13.716,10.932c-3.707,4.655-7.669,3.968-10.408-1.514c-2.875-5.755-5.754-11.624-7.613-17.752
		c-7.912-26.074-15.389-52.28-23.147-78.402c-2.975-10.018-6.516-19.872-9.361-29.924c-2.488-8.788-4.524-17.715-6.454-26.646
		c-1.463-6.77,1.285-10.138,8.155-12.355c10.12-3.265,20.042-2.184,29.977,0.436c4.958,1.307,7.402,4.569,7.121,9.444
		c-1.027,17.813,1.93,35.1,6.415,52.248c2.056,7.86,3.487,15.883,5.233,23.825c0.265,1.205,0.701,2.373,1.353,4.536
		c0.91-11.967,1.699-22.822,2.57-33.671c1.45-18.077,2.831-36.161,4.492-54.218c0.683-7.43,1.713-14.861,3.159-22.178
		c0.985-4.988,4.617-6.849,9.277-5.238c6.665,2.304,13.394,4.563,19.753,7.565c4.201,1.983,5.859,5.74,4.72,10.871
		c-2.475,11.151-4.332,22.437-6.649,33.626c-0.395,1.909-1.589,3.782-2.807,5.369c-4.09,5.331-0.595,11.47-2.033,17.174
		c-1.467,5.822-1.564,11.989-2.261,18.004C326.649,114.466,326.41,114.461,326.172,114.456z M310.778,175.518
		c-0.48-0.14-0.96-0.28-1.439-0.42c0.668-4.027,1.335-8.055,2.076-12.525c-6.735,4.362-4.881,23.788,2.497,32.293
		c0.526-3.547,1.051-7.094,1.709-11.534c0.464,1.665,0.655,2.351,0.847,3.038c0.48-0.025,0.96-0.05,1.44-0.075
		c0-19.726,0-39.452,0-59.178c-0.149-0.054-0.298-0.108-0.446-0.162C315.233,143.142,313.006,159.33,310.778,175.518z
		 M307.556,157.448c0.381,0.06,0.763,0.121,1.144,0.181c0.589-3.175,1.331-6.33,1.734-9.528c0.756-6.01,0.018-12.591,2.267-17.939
		c3.234-7.69,1.598-15.204,1.656-22.825c-0.131,2.563-0.262,5.127-0.397,7.775c-1.123-0.066-1.984-0.117-3.193-0.189
		C309.685,129.249,308.62,143.348,307.556,157.448z"/>
	<path fill="#FFFFFF" d="M439.593,853.355c-0.355-1.47-0.538-2.229-0.813-3.365c-0.27,0.668-0.522,1.037-0.56,1.427
		c-0.487,4.962-0.584,9.996-1.515,14.872c-0.837,4.386-2.958,8.529-3.765,12.917c-0.406,2.209,1.324,4.74,1.241,7.095
		c-0.124,3.508-0.998,6.989-1.551,10.483c-0.3,1.901-0.595,3.802,0.167,5.892c0.959-5.685,1.917-11.369,2.876-17.054
		c0.568,0.007,1.135,0.013,1.703,0.02c0.081,1.597,0.232,3.193,0.228,4.79c-0.01,4.501-0.056,9.003-0.14,13.504
		c-0.123,6.581-0.226,13.163-0.497,19.738c-0.05,1.223-0.554,2.675-1.352,3.576c-3.878,4.38-17.74,4.57-20.785-0.23
		c-1.609-2.536-1.665-6.53-1.309-9.743c0.785-7.085,2.306-14.087,3.455-21.135c0.286-1.755,0.3-3.554,0.436-5.306
		c-8.972-0.885-13.248,1.241-16.79,10.861c-2.048,5.561-4.218,11.085-6.029,16.723c-1.171,3.644-1.794,7.464-2.662,11.205
		c-0.731-0.072-1.461-0.143-2.192-0.215c-0.275-3.06-0.551-6.12-0.858-9.528c-1.726,2.823-3.481,5.694-5.237,8.566
		c-0.201-0.083-0.403-0.165-0.605-0.248c0.677-2.214,1.353-4.428,2.01-6.576c-2.571,2.354-4.52,5.345-7.173,6.232
		c-2.746,0.918-6.175-0.205-10.803-0.546c-6.175,5.182-10.281,5.277-16.093-3.058c-6.819-9.778-12.379-20.428-18.696-30.569
		c-0.929-1.491-2.903-2.895-4.603-3.21c-2.568-0.476-3.858,1.422-4.283,3.992c-0.4,2.415-1.134,4.776-1.755,7.152
		c-0.167,0.639-0.456,1.245-1.494,0.863c-0.921,0.712-2.375,1.25-2.677,2.166c-1.908,5.796-3.717,11.636-5.245,17.543
		c-1.048,4.05-1.7,4.726-6.091,4.295c-0.345-0.034-0.887,0.035-1.044,0.261c-2.995,4.302-6.125,1.125-8.981-0.022
		c-3.086-1.24-2.88-3.754-2.005-6.663c4.59-15.265,9.003-30.584,13.453-45.891c5.056-17.392,10.131-34.779,15.037-52.213
		c0.354-1.258-0.137-3.304-1.02-4.258c-2.923-3.16-1.778-4.862,1.614-6.205c6.411-2.537,12.98-2.883,19.602-1.157
		c13.076,3.408,23.872,10.728,31.525,21.579c5.987,8.488,7.338,18.511,3.183,28.623c-0.148,0.36-0.811,0.508-1.735,1.047
		c0.152-1.65,0.27-2.927,0.4-4.342c-0.466,0.141-0.887,0.166-0.921,0.294c-0.792,2.999-1.877,5.969-2.232,9.023
		c-0.865,7.441-5.49,11.894-11.51,15.333c-5.599,3.198-5.604,3.204-2.696,9.051c3.754,7.548,7.421,15.138,11.765,24.016
		c3.85-8.519,7.263-15.804,10.34-23.229c0.373-0.901-0.874-2.699-1.714-3.825c-1.195-1.602-2.709-2.966-4.087-4.432
		c1.92-1.168,4.011-3.529,5.728-3.282c5.344,0.768,6.37-2.715,7.898-6.301c8.407-19.735,16.887-39.439,25.364-59.144
		c2.603-6.052,2.704-6.05,8.307-2.636c0.672,0.409,1.466,0.797,2.229,0.852c9.432,0.681,12.067,2.926,14.872,12.143
		c2.618,8.602,3.294,17.232,1.129,26.008C440.501,851.672,440.149,852.181,439.593,853.355z M346.516,825.487
		c-5.159,16.129-10.213,31.93-15.262,47.715c7.829,2.491,10.335,1.661,15.461-2.219c9.356-7.081,13.911-16.375,15.215-27.906
		C363.075,832.945,357.4,825.846,346.516,825.487z M419.919,865.846c-0.551-0.076-1.101-0.153-1.652-0.229
		c-1.813,3.971-3.625,7.942-5.691,12.469c2.406,0.605,4.227,1.063,6.389,1.607C419.304,874.769,419.611,870.307,419.919,865.846z
		 M400.571,897.958c-0.606-0.277-1.211-0.555-1.817-0.832c-2.658,6.872-5.317,13.744-7.975,20.616
		c0.705,0.271,1.409,0.542,2.114,0.814C395.453,911.69,398.012,904.824,400.571,897.958z M392.081,903.148
		c-0.682-0.142-1.364-0.284-2.047-0.426c-1.277,4.953-5.333,9.221-4.602,14.67c0.579,0.153,1.158,0.305,1.737,0.458
		C388.806,912.949,390.444,908.048,392.081,903.148z"/>
	<path fill="#FFFFFF" d="M814.032,852.467c8.76-13.632,16.711-26.057,24.726-38.441c1.894-2.926,3.827-5.862,6.071-8.516
		c1.9-2.246,3.786-5.329,7.541-1.808c0.841,0.789,3.415-0.397,5.198-0.458c3.349-0.115,6.624-0.77,8.174,3.933
		c1.164,3.534,4.268,6.393,5.725,9.88c0.908,2.174,1.384,5.573,0.304,7.372c-11.559,19.255-18.614,40.423-26.78,61.142
		c-4.436,11.254-9.778,22.155-14.838,33.157c-1.313,2.855-3.103,5.49-4.94,8.689c0.333-1.941,0.603-3.521,0.889-5.188
		c-6.109-1.105-5.402,4.099-7.251,7.386c-1.476-0.778-3.01-1.586-4.499-2.37c-1.587,3.346-5.174,2.979-8.355,2.307
		c-0.832-0.176-1.864-3.391-1.432-4.784c1.112-3.583,3.19-6.858,4.453-10.408c0.414-1.163-0.49-2.796-0.792-4.214
		c-0.511-0.032-1.023-0.065-1.534-0.097c2.364-6.316,4.727-12.633,7.396-19.765c0.731,1.741,1.019,2.428,1.612,3.843
		c4.637-12.04,9.05-23.498,13.463-34.956c-0.533-0.323-1.065-0.646-1.598-0.97c-3.086,4.858-6.186,9.707-9.252,14.577
		c-1.671,2.654-2.996,5.586-4.987,7.966c-3.47,4.147-8.622,3.108-10.194-2.065c-2.086-6.861-3.774-13.842-5.559-20.495
		c0.427-0.455-0.07-0.113-0.311,0.359c-5.413,10.623-10.847,21.236-16.153,31.912c-1.274,2.563-2.107,5.344-3.146,8.024
		c-0.357,0.92-0.452,2.231-1.126,2.692c-6.154,4.218-4.826,11.143-5.931,16.979c-1.676,8.85-12.379,14.444-20.273,9.964
		c-6.911-3.922-7.703-6.514-4.443-13.841c13.987-31.445,27.92-62.915,41.938-94.346c2.098-4.704,4.479-9.286,6.847-13.863
		c2.947-5.696,5.573-5.764,10.392-1.859c10.77,8.727,10.609,20.667,10.289,32.679C815.528,841.674,814.684,846.441,814.032,852.467z
		"/>
	<path fill="#FFFFFF" d="M714.288,857.881c-0.091,0.656-0.069,1.352-0.288,1.963c-5.07,14.144-10.244,28.251-15.224,42.426
		c-2.496,7.105-4.646,14.331-6.957,21.514c-7.01-0.911-12.323-0.588-17.065,4.099c-4.176,4.128-9.505,1.073-10.02-5.608
		c-1.026-13.286-1.735-26.596-2.593-39.895c-0.133-2.064-0.363-4.122-1.666-6.314c-4.768,10.756-9.676,21.453-14.245,32.294
		c-2.188,5.192-3.728,10.656-5.57,15.994c-0.987,2.861-2.234,3.796-5.952,4.022c-4.67,0.283-9.135-3.362-14.025-0.114
		c-2.497,1.659-6.162-3.312-4.87-6.92c5.773-16.121,11.485-32.269,17.631-48.25c5.967-15.516,12.365-30.868,18.739-46.224
		c1.393-3.356,3.228-6.601,5.316-9.578c3.043-4.336,7.031-5.183,11.146-2.011c4.567,3.522,9.012,7.377,12.723,11.754
		c1.674,1.975,2.202,5.638,1.941,8.412c-1.089,11.564-2.488,23.109-4.169,34.602c-0.689,4.714-2.636,9.233-3.508,13.935
		c-0.422,2.274,0.318,4.764,0.532,7.156c0.427-0.02,0.853-0.041,1.28-0.061c3.344-8.368,6.291-16.921,10.119-25.061
		c6.491-13.802,13.406-27.411,20.408-40.964c3.314-6.414,5.853-13.856,14.541-14.479c2.984,1.787,6.708,3.226,9.258,5.819
		c1.716,1.745,3.91,4.522,1.999,7.924c-2.883,5.13-5.578,10.353-10.687,13.729c-0.558-0.198-1.565-0.643-1.611-0.559
		c-3.393,6.167-6.755,12.353-9.967,18.616c-0.344,0.67,0.224,1.808,0.368,2.73C712.677,858.514,713.482,858.197,714.288,857.881z"/>
	<path fill="#FFFFFF" d="M67.066,819.354c-22.118,5.613-50.71,66.503-41.007,98.105c1.988-1.888,4.168-3.176,5.209-5.084
		c4.201-7.702,7.987-15.628,12.064-23.4c1.484-2.828,1.509-4.945-1.691-6.439c-0.734-0.343-1.478-0.89-1.945-1.539
		c-1.763-2.454-5.363-5.888-4.707-7.31c1.432-3.104,4.908-5.392,7.876-7.568c0.693-0.508,4.606-1.321,2.963,2.643
		c-0.028,0.068,2.536,1.878,3.501,1.586c7.911-2.389,14.448,0.574,20.671,4.903c0.613,0.427,1.219,1.633,1.055,2.282
		c-1.168,4.622-2.626,9.171-3.798,13.792c-0.478,1.885-0.473,3.892-0.744,6.359c-0.592-1.335-1.077-2.426-1.997-4.499
		c-1.659,4.4-3.045,8.078-4.664,12.373c1.301-0.875,2.066-1.391,2.832-1.906c0.5,0.351,1,0.702,1.5,1.052
		c-2.215,3.43-4.135,7.106-6.731,10.217c-2.425,2.905-5.569,5.211-8.643,6.995c-1.337,0.377-3.002,0.371-3.961,1.19
		c-9.038,7.727-19.417,8.874-30.287,5.689c-5.909-1.731-9.715-6.644-11.411-12.413c-3.522-11.983-4.101-24.238-1.695-36.555
		c3.828-19.593,10.788-38.056,20.906-55.221c6.676-11.325,13.983-22.265,27.061-27.468c6.372-2.535,12.486-3.195,18.595,0.697
		c3.78,2.409,7.735,4.542,11.58,6.851c4.799,2.882,7.094,6.552,6.475,12.73c-0.733,7.318,0.143,14.794,0.274,22.203
		c0.087,4.925-3.18,7.141-7.315,7.04c-5.073-0.124-10.3-0.805-15.119-2.328c-4.168-1.317-3.822-5.174-2.492-8.814
		C63.38,830.159,65.192,824.745,67.066,819.354z"/>
	<path fill="#FFFFFF" d="M921.385,888.263c1.495-3.716,2.989-7.432,4.848-12.051c0,2.176,0.279,3.728-0.044,5.142
		c-3.079,13.48-9.036,25.652-17.286,36.678c-1.566,2.093-4.008,3.528-6.038,5.276c-10.893,9.388-23.284,8.962-35.614,4.362
		c-10.895-4.065-17.986-18.899-15.61-31.773c1.561-8.462,3.395-17.089,6.715-24.965c5.672-13.457,12.315-26.534,19.117-39.474
		c4.241-8.068,10.857-14.287,18.628-19.143c4.153-2.595,8.415-3.847,13.071-1.067c0.698,0.417,2.081,0.543,2.683,0.129
		c6.017-4.139,10.709-1.055,15.374,2.575c0.27,0.21,0.838,0.06,1.265,0.042c4.539-0.187,7.321,2.714,7.173,6.5
		c-0.372,9.532-1.556,19.043-2.689,28.529c-0.345,2.888-2.01,5.62-2.337,8.507c-1.063,9.407-6.293,17.195-9.524,25.752
		c-0.544,1.44-0.778,2.997-1.155,4.5C920.437,887.942,920.911,888.103,921.385,888.263z M911.347,835.254
		c-14.429,10.219-37.267,63.269-33.314,76.537c5.961-0.28,10.208-3.428,13.658-8.031c8.775-11.71,13.873-24.99,16.299-39.275
		c1.21-7.126,1.532-14.402,2.302-21.606C910.547,840.491,910.946,838.119,911.347,835.254z"/>
	<path fill="#FFFFFF" d="M615.381,888.338c1.527-3.705,3.055-7.409,4.68-11.352c0.13,1.238,0.632,2.637,0.35,3.855
		c-3.18,13.788-9.122,26.321-17.723,37.536c-1.498,1.953-3.798,3.285-5.707,4.929c-10.525,9.065-22.553,8.858-34.666,4.76
		c-11.273-3.815-19.011-18.58-16.64-31.606c1.629-8.951,3.605-18.054,7.073-26.405c5.409-13.025,11.944-25.613,18.525-38.112
		c4.412-8.38,11.159-14.898,19.292-19.845c4.03-2.452,8.202-3.552,12.64-0.84c0.623,0.381,1.792,0.709,2.248,0.394
		c6.236-4.302,11.209-1.902,15.846,2.759c0.14,0.141,0.652-0.123,0.994-0.141c4.292-0.224,7.703,2.049,7.487,6.287
		c-0.485,9.542-1.633,19.057-2.746,28.556c-0.319,2.723-1.769,5.308-2.131,8.032c-1.286,9.66-6.396,17.851-9.87,26.669
		c-0.506,1.285-0.663,2.708-0.981,4.067C614.496,888.035,614.938,888.186,615.381,888.338z M570.585,911.105
		c0.653,0.581,1.305,1.163,1.958,1.744c3.697-2.202,8.115-3.737,10.917-6.767c3.885-4.201,6.898-9.336,9.683-14.401
		c9.471-17.225,10.31-36.406,12.014-55.362c0.018-0.196-0.357-0.428-1.144-1.311C585.843,857.667,575.333,883.145,570.585,911.105z"
		/>
	<path fill="#FFFFFF" d="M269.174,853.104c11.108-0.993,21.312-1.904,32.154-2.873c-1.56,6.92-1.859,13.329-8.35,16.264
		c-2.923,1.322-6.242,1.773-9.389,2.593c-7.76,2.022-15.546,3.953-23.26,6.139c-0.926,0.262-1.562,1.823-2.172,2.874
		c-3.767,6.487-7.637,12.922-11.145,19.548c-1.23,2.322-1.533,5.135-2.613,8.983c5.341-1.955,10.28-3.657,15.135-5.57
		c4.914-1.937,9.76-3.897,15.536-1.181c-5.012,2.13-9.538,4.052-14.063,5.975c0.137,0.373,0.274,0.745,0.411,1.118
		c1.268-0.146,2.908,0.167,3.743-0.512c4.776-3.884,10.656-3.708,16.2-4.718c2.15-0.392,3.911-0.206,2.755-3.572
		c-0.459-1.336,1.279-4.698,2.674-5.163c4.456-1.486,9.22-2.045,13.674-2.924c-2.393,4.902-4.595,9.6-7.005,14.188
		c-0.483,0.92-1.671,1.61-2.684,2.091c-7.934,3.767-15.887,7.495-23.87,11.157c-4.449,2.041-8.968,3.931-13.45,5.901
		c-0.607,0.267-1.42,0.45-1.736,0.933c-6.007,9.192-14.481,5.526-22.455,4.328c-1.801-0.271-3.618-0.671-5.323-1.297
		c-3.672-1.349-4.646-6.076-1.33-7.734c3.598-1.799,3.883-4.553,4.808-7.826c2.395-8.468,5.9-16.625,8.229-25.108
		c1.612-5.873,5.845-11.438,3.151-18.133c-0.186-0.463,0.204-1.387,0.615-1.826c8.395-8.976,8.572-21.249,12.778-31.896
		c2.134-5.4,3.54-11.083,5.482-16.565c1.834-5.177,4.533-6.114,8.456-2.49c3.229,2.983,5.526,2.548,9.477,0.968
		c7.139-2.854,14.875-4.259,22.415-6.042c2.567-0.607,5.371-0.215,7.933-0.833c4.199-1.012,8.321-0.531,9.663,3.599
		c1.82,5.603-2.112,11.956-6.697,13.33c-4.404,1.319-8.639,3.197-13.029,4.574c-5.018,1.574-10.053,3.341-15.217,4.123
		c-3.732,0.565-6.242,1.562-7.371,5.349C272.127,844.832,270.674,848.705,269.174,853.104z"/>
	<path fill="#FFFFFF" d="M474.212,915.013c-0.785-0.929-1.57-1.858-2.493-2.951c0.958-3.93,2.067-8.475,3.175-13.02
		c-0.737-0.191-1.474-0.381-2.21-0.572c-6.858,8.741-5.712,19.92-7.374,29.019c-3.071,1.02-5.154,1.717-7.241,2.403
		c-3.598,1.184-4.539-0.716-5.15-3.889c-1.748-9.073,1.838-17.31,3.787-25.764c4.922-21.353,10.128-42.64,15.472-65.004
		c-6.131,0.7-12.534,1.022-18.75,2.275c-4.617,0.93-6.824-0.346-8.029-4.75c-1.136-4.151-3.089-8.093-4.052-12.272
		c-0.425-1.846,0.138-4.457,1.246-6.014c2.916-4.102,6.622-6.913,11.959-3.522c0.372,0.236,0.98,0.12,1.479,0.131
		c19.967,0.426,39.937,0.757,59.9,1.335c4.831,0.14,9.639,1.095,13.895,1.607c-3.616,6.594-6.66,12.404-10.001,18.038
		c-0.744,1.254-2.42,2.174-3.866,2.73c-1.345,0.517-3.002,0.647-4.442,0.426c-9.536-1.462-13.345,3.867-15.814,12.087
		c-6.582,21.913-13.629,43.686-20.514,65.507c-0.234,0.742-0.715,1.405-1.081,2.105L474.212,915.013z M472.042,888.616
		c0.695,0.513,1.39,1.026,2.084,1.539c0.367-0.672,0.591-1.549,1.154-1.94c0.34-0.237,1.748,0.46,1.757,0.434
		c1.867-5.66,3.652-11.347,5.44-17.034c-0.598-0.242-1.195-0.485-1.793-0.727C477.803,876.797,474.923,882.706,472.042,888.616z"/>
	<path fill="#FFFFFF" d="M544.617,1010.159c0.136-1.057,0.272-2.113,0.426-3.312c-4.49,1.909,0.455,9.824-7.829,9.733
		c0.542-12.474,4.748-24.11,7.607-36.372c-3.906-0.082-7.109-0.63-10.293,3.382c-5.516,6.95-6.131,15.468-8.394,23.249
		c-1.827,6.281-6.173,7.296-10.543,9.229c-0.444,0.196-2.893-2.284-3.08-3.698c-0.67-5.073-0.767-10.221-2.178-15.561
		c-2.186,5.305-4.412,10.594-6.541,15.922c-1.156,2.892-8.211,5.042-9.592,2.549c-0.968-1.748,0.03-4.586,0.218-8.255
		c-5.491,2.859-10.897,5.136-15.691,8.332c-4.168,2.779-7.436,0.951-11.06-0.495c-1.122-0.448-2.363-1.201-3.438-1.046
		c-3.23,0.467-6.375,1.602-9.609,1.93c-3.168,0.321-6.457,0.267-9.575-0.287c-0.797-0.141-1.987-3.092-1.576-4.244
		c4.414-12.355,8.997-24.654,13.846-36.844c0.829-2.083,1.42-6.347,5.764-3.714c3.818,2.314,4.254,5.332,2.53,9.04
		c-4.029,8.664-7.615,17.534-11.822,27.35c3.338,0,5.131-0.04,6.922,0.007c10.454,0.273,11.888-1.628,14.032-12.215
		c1.608-7.945,4.975-15.534,7.15-22.056c3.963-0.673,6.778-1.194,9.607-1.621c3.121-0.471,6.247-1.065,9.385-1.165
		c1.082-0.035,3.106,1.234,3.121,1.941c0.029,1.392-0.669,3.491-1.738,4.079c-2.881,1.587-6.066,3.354-9.221,3.543
		c-4.711,0.282-5.854,2.805-6.335,6.914c3.848-0.236,7.572-0.464,11.431-0.701c0.445,4.938-2.178,6.664-6.077,7.098
		c-8.255,0.919-12.93,5.678-14.975,14.276c1.991-0.596,3.605-1.269,5.282-1.528c1.813-0.28,3.686-0.216,5.532-0.212
		c0.788,0.002,1.919,0.633,2.31,0.297c3.004-2.58,6.804-4.825,8.568-8.129c3.425-6.416,5.521-13.527,8.503-20.2
		c1.166-2.611,1.642-6.752,6.143-5.798c3.724,0.79,6.763,6.22,6.209,10.066c-0.893,6.196-1.642,12.412-2.575,19.566
		c3.678-7.532,6.949-14.248,10.239-20.954c1.171-2.386,2.158-4.91,3.669-7.063c0.959-1.367,2.737-3.089,4.131-3.074
		c10.556,0.116,21.108,0.623,32.642,1.044c-3.451,4.325-4.081,9.972-10.726,9.041c-0.727-0.102-2.189,2.267-2.676,3.705
		c-2.607,7.698-5.006,15.467-7.497,23.205c-0.362,1.124-0.833,2.214-1.253,3.319C545.266,1010.341,544.942,1010.25,544.617,1010.159
		z"/>
	<path fill="#FFFFFF" d="M499.138,920.09c0.213-0.799,0.438-3.024,1.364-4.904c8.064-16.352,12.211-34.024,17.888-51.204
		c5.872-17.769,13.638-34.919,20.794-52.25c1.585-3.838,4.734-2.269,7.004-0.583c3.586,2.662,6.796,5.823,10.323,8.571
		c3.672,2.861,4.15,6.14,1.928,10.038c-9.832,17.246-17.326,35.427-22.735,54.555c-2.138,7.56-5.975,14.623-8.513,22.091
		c-2.171,6.39-3.509,13.059-5.433,19.54c-0.279,0.939-1.822,2.21-2.694,2.146c-4.358-0.317-8.328,1.142-12.481,1.901
		C500.783,931.053,498.927,928.503,499.138,920.09z M524.537,908.257c-0.421-0.145-0.842-0.29-1.263-0.436
		c-1.588,3.97-3.176,7.941-4.765,11.911c0.694,0.243,1.388,0.485,2.082,0.728C521.907,916.393,523.222,912.325,524.537,908.257z"/>
	<path fill="#FFFFFF" d="M493.323,261.045c0.602,0.397,1.256,0.86,1.94,1.273c9.327,5.636,9.854,6.263,6.545,16.636
		c-1.538,4.82-4.188,9.413-6.998,13.671c-5.033,7.628-10.5,14.975-15.97,22.302c-0.8,1.072-2.621,1.382-3.969,2.045
		c-0.157-1.466-0.873-3.159-0.383-4.361c4.062-9.954,8.347-19.816,12.844-30.36c-0.887-0.503-2.531-1.454-4.191-2.376
		c-4.932-2.737-10.045-5.193-14.756-8.268c-4.589-2.995-4.019-6.314,0.302-9.234c6.494-4.387,12.612-9.332,18.889-14.04
		c-0.099-0.563-0.197-1.125-0.296-1.688c-3.07-0.827-6.096-1.957-9.221-2.415c-5.658-0.829-10.551-2.931-14.333-7.284
		c-2.675-3.079-1.956-6.467,1.846-7.936c4.181-1.616,8.245-2.948,12.605,0.43c2.812,2.179,6.657,2.968,9.811,4.778
		c3.725,2.137,7.494,4.366,10.723,7.158c5.152,4.453,5.053,5.915,0.837,11.112c-1.991,2.455-3.975,4.915-5.936,7.394
		C493.439,260.103,493.457,260.476,493.323,261.045z"/>
	<path fill="#FFFFFF" d="M331.926,976.313c-11.285-0.889-11.602-0.634-14.663,11.492c3.172-0.309,6.23-0.606,9.296-0.904
		c0.024,4.93-3.358,6.236-6.825,6.928c-4.498,0.898-6.889,3.562-8.03,7.759c-0.91,3.35-1.975,6.659-2.823,10.024
		c-0.658,2.61-6.033,6.263-8.16,4.781c-1.275-0.888-1.715-3.91-1.486-5.85c0.688-5.851,1.297-11.826,3.03-17.413
		c2.415-7.789,5.753-15.298,8.89-22.846c0.365-0.878,2.159-1.956,2.962-1.737c8.91,2.431,17.992,1.45,27.013,1.674
		c7.314,0.181,14.626,0.459,21.937,0.737c0.757,0.029,1.502,0.35,2.653,0.635c-2.853,4.051-3.769,9.446-10.32,8.595
		c-0.72-0.094-2.144,2.277-2.617,3.711c-2.804,8.502-5.43,17.063-8.1,25.61c-0.536,1.716-1.002,3.454-2.291,5.113
		c0-1.604,0-3.209,0-4.814c-1.619,2.757-0.342,7.357-6.774,6.62c0.703-12.349,4.677-24.056,7.549-35.882
		C339.626,978.076,333.094,984.461,331.926,976.313z"/>
	<path fill="#FFFFFF" d="M623.996,993.262c-8.326,0.331-9.723,1.439-11.694,8.105c-1.317,4.453-2.174,9.267-4.561,13.093
		c-1.403,2.248-5.399,2.878-8.229,4.236c-0.599-0.377-1.198-0.755-1.796-1.132c1.623-6.934,3.246-13.868,4.929-21.056
		c-0.894-0.729-2.113-1.723-4.143-3.378c8.351-1.821,7.922-8.764,9.778-14.277c1.857-5.515,3.435-11.123,5.24-16.656
		c0.796-2.441,2.417-4.631,5.091-2.743c2.641,1.865,7.822,2.318,6.214,7.493c-1.961,6.311-4.403,12.472-6.642,18.711
		c7.636,2.319,7.65,2.324,9.779-4.816c1.757-5.892,3.475-11.796,5.209-17.695c1.354-4.604,2.465-4.744,6.631-2.484
		c4.709,2.554,5.531,5.422,2.725,9.965c-2.765,4.479-5.179,9.193-7.444,13.948c-0.554,1.163,0.483,3.013,0.084,4.333
		c-0.997,3.293-2.553,6.414-3.596,9.696c-1.022,3.217-6.201,5.793-1.641,10.149c0.383,0.366-1.321,3.359-2.498,4.759
		c-0.767,0.912-2.328,1.168-3.547,1.687c-3.606,1.537-5.124,0.591-4.533-3.218c0.584-3.764,1.664-7.453,2.584-11.161
		C622.531,998.431,623.229,996.064,623.996,993.262z"/>
	<path fill="#FFFFFF" d="M260.116,1016.871c-0.507-5.547-0.893-9.768-1.314-14.373c-3.849,4.322-7.15,8.638-11.131,12.194
		c-1.541,1.377-4.683,1.5-6.957,1.188c-0.683-0.094-1.666-3.796-1.206-5.49c3.308-12.164,6.931-24.243,10.506-36.334
		c0.726-2.454,1.429-5.049,5.089-3.271c2.865,1.391,5.423,2.563,3.822,6.64c-2.348,5.98-4.386,12.082-5.706,18.541
		c1.721-2.37,3.168-5.025,5.252-7.015c1.551-1.482,3.925-2.102,5.932-3.105c0.518,2.019,1.07,4.031,1.531,6.062
		c0.138,0.606,0.021,1.27,0.847,2.254c3.708-6.91,7.51-13.772,11.08-20.752c1.508-2.949,3.175-4.675,6.457-2.564
		c3.098,1.993,5.051,4.782,3.162,8.397c-6.076,11.625-12.172,23.255-18.846,34.536
		C267.539,1015.632,263.482,1015.732,260.116,1016.871z"/>
	<path fill="#FFFFFF" d="M441.778,244.423c-2.754,1.776-5.926,4.115-9.387,5.888c-1.115,0.571-3.627,0.164-4.342-0.726
		c-0.711-0.885-0.581-3.537,0.241-4.383c5.096-5.246,10.362-10.35,15.874-15.155c1.481-1.291,3.975-1.597,6.072-1.965
		c3.585-0.629,5.596,1.294,5.381,4.738c-1.422,22.753-1.91,45.614-7.333,67.939c-0.659,2.712-1.891,4.88-5.05,4.198
		c-3.602-0.777-3.804-3.905-3.614-6.764c0.618-9.302,1.697-18.58,2.079-27.889C442.064,261.412,441.778,252.494,441.778,244.423z"/>
	<path fill="#FFFFFF" d="M638.613,279.158c8.762,0.948,14.992,4.008,18.141,11.396c2.585,6.066,4.886,12.347,6.406,18.748
		c1.515,6.381-4.375,11.661-10.8,10.178c-3.543-0.818-7.069-1.923-10.413-3.345c-5.757-2.447-9.392-6.637-9.879-13.21
		c-0.464-6.259-2.366-12.663,1.062-18.554C634.348,282.279,636.751,280.876,638.613,279.158z"/>
	<path fill="#FFFFFF" d="M235.413,981.289c1.198-3.554,2.397-7.108,3.588-10.641c-7.275-0.988-12.549,5.137-9.927,11.817
		c1.333,3.395,3.223,6.568,4.748,9.892c0.968,2.111,2.044,4.25,2.519,6.494c1.146,5.408,2.479,11.309-3.019,15.063
		c-4.827,3.297-12.68,4.557-17.952,1.291c-5.02-3.111-7.019-8.862-5.541-15.848c0.343-1.624,0.526-3.414,1.368-4.763
		c0.895-1.434,2.486-2.434,3.773-3.623c1.361,1.61,3.178,3.036,3.929,4.892c0.528,1.305-0.616,3.196-0.621,4.827
		c-0.01,3.229-0.631,7.019,3.55,8.274c2.602,0.781,7.064-3.26,7.21-6.922c0.135-3.373-0.368-6.936-1.403-10.153
		c-1.468-4.563-4.007-8.779-5.507-13.335c-2.964-9.004,3.917-16.465,12.766-18.521c0.758-0.176,1.701-0.051,2.436,0.241
		c5.59,2.224,9.898,12.737,6.775,17.916c-1.333,2.211-4.583,3.267-6.961,4.848C236.566,982.456,235.989,981.872,235.413,981.289z"/>
	<path fill="#FFFFFF" d="M424.511,981.837c1.364-4.097,2.545-7.648,3.726-11.196c-7.372-0.913-12.57,5.233-9.885,11.955
		c1.72,4.307,4.331,8.279,5.835,12.645c1.269,3.684,2.011,7.708,2.102,11.602c0.136,5.79-5.002,9.64-12.512,10.093
		c-10.449,0.63-16.36-5.71-14.892-16.101c0.323-2.288,0.733-4.673,1.716-6.718c0.632-1.315,2.683-3.13,3.569-2.876
		c1.536,0.44,3.313,2.11,3.786,3.636c0.538,1.738-0.448,3.89-0.401,5.853c0.076,3.182-0.661,7.377,3.563,8.155
		c4.28,0.788,6.305-3.2,6.95-6.412c0.643-3.199,0.009-6.911-0.977-10.118c-1.307-4.25-3.811-8.121-5.249-12.342
		c-3.159-9.271,2.233-18.184,11.803-19.866c1.073-0.189,2.692-0.231,3.304,0.396c3.672,3.76,7.828,7.29,7.524,13.381
		C434.176,979.835,432.067,981.826,424.511,981.837z"/>
	<path fill="#FFFFFF" d="M691.297,999.665c-2.007,5.32-3.736,8.937-4.704,12.748c-0.922,3.627-3.54,3.817-6.033,3.305
		c-0.868-0.178-2.016-3.167-1.656-4.5c3.024-11.208,6.41-22.318,9.579-33.487c0.593-2.09,0.706-4.316,1.097-6.84
		c6.487-2.886,15.812,0.665,20.521,7.776c3.466,5.236,0.565,15.694-7.307,20.873c1.673,3.407,3.186,7.04,5.185,10.382
		c1.581,2.643,0.769,4.289-1.276,5.947c-2.47,2.002-4.427,0.916-5.903-1.183c-2.093-2.976-3.927-6.134-5.868-9.217
		C694.001,1003.992,693.079,1002.51,691.297,999.665z M693.07,994.263c5.59,1.075,9.92-2.593,11.386-9.134
		c1.319-5.884,0.412-7.494-5.496-9.06C697.009,982.099,695.049,988.152,693.07,994.263z"/>
	<path fill="#FFFFFF" d="M651.901,1001.036c-9.083,1.925-7.756,9.396-9.857,14.518c-2.94,0.159-5.665,0.306-8.23,0.445
		c-3.667-6.529,7.102-11.085,2.524-16.431c2.103-3.123,4.342-5.704,5.743-8.68c3.238-6.874,6.07-13.94,9.03-20.841
		c8.68,1.999,10.746,4.722,10.078,13.005c-0.146,1.804-0.39,3.688-1.054,5.349c-3.131,7.832-0.022,15.844-0.752,23.777
		c-0.409,4.454-2.506,4.853-5.706,4.73c-3.962-0.152-3.794-2.934-3.373-5.743C650.765,1008.092,651.27,1005.026,651.901,1001.036z"
		/>
	<path fill="#FFFFFF" d="M727.556,987.913c3.607-5.142,6.797-9.904,10.248-14.469c0.938-1.24,2.664-1.884,4.029-2.802
		c0.83,1.792,2.781,4.015,2.287,5.296c-1.694,4.397-4.007,8.613-6.534,12.615c-2.547,4.035-5.51,7.829-8.533,11.532
		c-1.33,1.63-2.756,4.765-6.011,0.995c-2.816,5.23-5.871,10.146-8.136,15.401c-1.301,3.019-2.808,3.619-6.582,2.567
		c3.44-6.237,6.556-12.201,9.988-17.978c1.779-2.994,2.707-5.453,1.015-9.082c-2.008-4.305-3.098-9.108-4.051-13.803
		c-0.406-2-2.698-5.007,1.154-6.342c2.61-0.904,7.108,2.349,7.829,5.437c0.639,2.739,1.268,5.482,1.969,8.206
		C726.382,986.082,726.825,986.603,727.556,987.913z"/>
	<path fill="#FFFFFF" d="M752.701,325.417c1.014,4.074-1.329,5.553-4.206,6.825c-12.946,5.723-26.053,4.71-38.881,0.14
		c-13.376-4.765-26.998-7.972-41.096-9.411c-1.074-0.11-2.007-1.597-3.006-2.445c1.111-0.861,2.172-2.395,3.339-2.481
		c12.48-0.913,24.752,0.985,36.005,6.104c15.081,6.86,29.864,8.231,45.211,1.69C750.76,325.544,751.596,325.584,752.701,325.417z"/>
	<path fill="#FFFFFF" d="M676.852,969.184c8.848,4.618,8.672,5.033,5.776,12.059c-3.906,9.478-7.244,19.198-10.586,28.897
		c-1.165,3.382-2.019,6.186-6.484,6.583c-3.804,0.339-4.922-1.481-4.005-4.188C666.423,998.162,671.62,983.899,676.852,969.184z"/>
	<path fill="#FFFFFF" d="M295.525,969.196c8.866,4.519,8.796,5.032,5.783,12.118c-3.572,8.399-6.57,17.043-9.742,25.608
		c-0.884,2.387-0.854,5.505-2.432,7.134c-1.602,1.654-4.643,2.048-7.143,2.538c-0.332,0.065-2.032-2.838-1.678-3.886
		C285.182,998.309,290.302,983.995,295.525,969.196z"/>
	<path fill="#FFFFFF" d="M445.292,969.686c7.952,4,7.9,4.592,4.881,11.649c-3.584,8.377-6.673,16.978-9.644,25.597
		c-0.808,2.344-3.631,4.14-2.255,7.167c-2.246,0.918-4.439,2.1-6.775,2.561c-0.558,0.11-2.559-2.573-2.261-3.321
		C434.962,998.947,437.17,983.209,445.292,969.686z"/>
	<path fill="#FFFFFF" d="M579.008,987.884c1.981,2.984,4.194,4.876,3.912,6.259c-0.352,1.724-2.761,3.027-4.281,4.512
		c-1.34-1.798-3.27-3.447-3.775-5.455C574.603,992.166,576.879,990.493,579.008,987.884z"/>
	<path fill="#FFFFFF" d="M386.316,993.839c-2.994,2.243-4.707,3.525-6.42,4.808c-1.315-1.844-2.976-3.562-3.714-5.614
		c-0.198-0.55,2.529-3.11,3.718-2.979C381.721,990.255,383.373,991.99,386.316,993.839z"/>
	<path fill="#FFFFFF" d="M474.109,914.919c-0.718,4.132,0.353,8.943-4.295,11.745c-1.761-3.83,0.207-8.851,4.398-11.651
		L474.109,914.919z"/>
	<path fill="#FFFFFF" d="M231.106,855.151c1.445-4.946,2.89-9.892,4.336-14.838c1.267-1.06,2.534-2.12,3.801-3.179
		C236.53,843.139,233.818,849.145,231.106,855.151z"/>
	<path fill="#FFFFFF" d="M330.717,103.16c0.633-7.051,1.266-14.101,1.9-21.152c0.047-0.003,0.095-0.006,0.142-0.009
		c0,7.071,0,14.142,0,21.213C332.078,103.194,331.398,103.177,330.717,103.16z"/>
	<path fill="#FFFFFF" d="M716.178,853.882c2.346-5.342,4.693-10.685,7.039-16.027C720.871,843.197,718.525,848.539,716.178,853.882z
		"/>
	<path fill="#FFFFFF" d="M780.032,276.157c-0.212,4.24-4.494,7.711-10.203,7.708C773.602,281.014,776.741,278.644,780.032,276.157z"
		/>
	<path fill="#FFFFFF" d="M485.146,400.393c-0.097,9.21-7.913,17.236-16.998,17.453c-4.544,0.109-8.05-4.992-7.188-10.459
		c1.151-7.306,9.485-14.433,16.967-14.511C481.086,392.842,485.18,397.106,485.146,400.393z M467.537,405.212
		c2.337,2.542,3.757,4.086,5.177,5.63c1.668-1.761,4.286-3.327,4.702-5.346c0.33-1.604-2.034-3.763-3.202-5.676
		C472.243,401.411,470.273,403.003,467.537,405.212z"/>
</g>
</svg>
