<?xml version="1.0" encoding="utf-8"?>
<!-- Generator: Adobe Illustrator 17.0.2, SVG Export Plug-In . SVG Version: 6.00 Build 0)  -->
<!DOCTYPE svg PUBLIC "-//W3C//DTD SVG 1.1//EN" "http://www.w3.org/Graphics/SVG/1.1/DTD/svg11.dtd">
<svg version="1.1" id="Layer_1" xmlns="http://www.w3.org/2000/svg" xmlns:xlink="http://www.w3.org/1999/xlink" x="0px" y="0px"
	 width="340.988px" height="215.957px" viewBox="0 0 340.988 215.957" enable-background="new 0 0 340.988 215.957"
	 xml:space="preserve">
<g>
	<polygon fill="#231F20" points="177.182,32.487 194.51,27.289 213.568,21.226 229.162,24.69 230.895,37.685 223.964,57.612 
		222.519,84.359 259.946,103.526 286.83,103.526 229.162,74.071 232.628,50.68 237.824,24.69 229.162,16.028 206.638,16.028 
		187.578,23.825 171.119,29.023 179.781,61.943 	"/>
	<polygon fill="#231F20" points="162.455,73.205 162.455,47.648 162.455,23.825 142.095,26.422 147.728,54.146 151.193,69.014 
		151.193,83.601 146.429,90.531 138.198,90.531 129.535,86.2 140.364,100.927 153.792,100.927 162.455,87.932 	"/>
	<path fill="#231F20" d="M118.921,20.358c0,0-13.212,3.033-14.511,3.467c-1.299,0.434-2.599,9.962-2.599,9.962l5.198,10.396
		l8.23,3.466h9.963l8.23-6.931l2.599-12.995l-6.495,8.664l-3.034,5.198l-7.58,1.299l-8.447-1.734l-4.765-7.147l1.299-6.713
		L118.921,20.358z"/>
	<polygon fill="#231F20" points="79.285,83.6 81.884,103.526 81.884,84.467 81.884,75.37 70.623,69.014 79.285,79.269 	"/>
	<polygon fill="#231F20" points="73.222,97.679 70.623,92.264 74.304,87.932 74.304,82.3 71.923,79.269 68.24,79.269 67.59,75.587 
		67.59,71.039 65.208,75.37 65.208,84.25 68.024,92.264 	"/>
	<polygon fill="#231F20" points="67.32,119.553 78.203,125.725 96.532,122.748 81.884,118.253 69.756,109.157 61.634,100.927 
		54.812,95.512 55.137,84.359 57.086,76.67 53.513,69.014 5.336,103.526 16.406,103.526 44.416,82.158 44.416,92.589 
		47.665,103.218 59.035,111.431 	"/>
	<polygon fill="#231F20" points="99.482,8.447 108.254,1.787 121.898,1.787 129.535,9.096 123.035,0 106.792,0 97.695,7.147 
		90.223,23.825 76.254,53.929 91.848,24.853 	"/>
	<path fill="#231F20" d="M282.033,13.728l8.337,33.943l14.887-2.084v170.315h35.731V4.795L282.033,13.728z M292.157,42.609
		l-5.956-23.82l13.399,10.124L292.157,42.609z M321.634,197.143l-13.696,13.696V44.098l13.696-15.483V197.143z M322.826,22.958
		l-21.141,3.87l-14.292-11.017l47.938-7.444L322.826,22.958z"/>
	<path fill="#231F20" d="M25.23,165.619l-10.725-34.981H0v85.319h14.626v-37.297l10.726,37.297h14.626v-85.319H25.23V165.619z
		 M6.704,208.278l-5.607,5.607v-81.297l5.607,5.606V208.278z M1.95,131.735h10.604l-5.363,5.241L1.95,131.735z M26.083,214.251
		l-11.457-39.735l-5.85-34.493l22.427,69.109L26.083,214.251z M37.784,131.735l-5.241,5.241l-5.241-5.241H37.784z M26.449,132.589
		l5.606,5.606v63.868l-5.606-32.543V132.589z"/>
	<path fill="#231F20" d="M73.982,201.21H63.378v-70.571H48.752v76.3c0,4.875,4.022,9.019,9.02,9.019H79.71
		c4.875,0,9.019-4.144,9.019-9.019v-76.3H73.982V201.21z M55.455,208.278l-3.657,3.778c-1.219-1.462-1.95-3.169-1.95-5.119v-74.35
		l5.607,5.606V208.278z M50.702,131.735h10.482l-5.241,5.241L50.702,131.735z M86.536,131.735l-5.241,5.241l-5.241-5.241H86.536z
		 M75.201,132.589l5.607,5.606v69.109l-5.607-5.606V132.589z M79.832,208.035H57.527l5.485-5.607h11.213L79.832,208.035z"/>
	<path fill="#231F20" d="M123.588,171.835l-13.042-41.197H96.042v85.319h14.626v-41.928l5.729,21.696h14.26l5.851-21.696v41.928
		h14.626v-85.319H136.63L123.588,171.835z M102.746,208.278l-5.607,5.607v-81.297l5.607,5.606V208.278z M97.992,131.735h10.604
		l-5.363,5.241L97.992,131.735z M117.25,194.018l-6.582-24.621l-4.997-25.474l16.576,45.097L117.25,194.018z M143.211,208.278
		l-5.606,5.607V169.52l5.606-28.399V208.278z M148.94,131.735l-5.242,5.241l-5.241-5.241H148.94z M142.358,137.22l-18.161,50.46
		v-13.773l13.163-41.563L142.358,137.22z"/>
	<path fill="#231F20" d="M189.405,130.638h-30.958v85.319h30.958c4.876,0,9.02-4.144,9.02-9.019v-27.912
		c0-3.169-1.463-5.363-3.291-7.313c2.072-1.706,3.291-4.144,3.291-6.947v-25.109C198.425,134.661,194.281,130.638,189.405,130.638z
		 M165.151,208.278l-5.607,5.607v-81.297l5.607,5.606V208.278z M167.223,208.035l5.484-5.607h11.214l5.607,5.607H167.223z
		 M183.921,167.082l5.607,5.485c-0.122,0-0.122,0-0.122,0h-22.183l5.484-5.485H183.921z M173.073,165.863v-20.599h10.604v20.599
		H173.073z M183.677,180.489v20.72h-10.604v-20.72H183.677z M190.502,207.303l-5.606-5.606v-21.574l5.606-5.484V207.303z
		 M190.502,171.957l-5.606-5.606v-21.574l5.606-5.607V171.957z M190.625,137.342h-24.621l-5.606-5.607h29.008
		c1.829,0,3.657,0.731,4.997,1.829L190.625,137.342z"/>
	<path fill="#231F20" d="M207.199,215.957h39.978V201.21h-25.352v-20.72h20.233v-14.626h-20.233v-20.599h25.352v-14.626h-39.978
		V215.957z M245.105,202.428l-5.607,5.607h-23.524l5.484-5.607H245.105z M239.986,167.082l-5.484,5.485h-18.527l5.484-5.485H239.986
		z M244.984,131.735l-5.607,5.607h-24.62l-5.607-5.607H244.984z M208.296,132.589l5.607,5.606v70.084l-5.607,5.607V132.589z"/>
	<path fill="#231F20" d="M292.884,171.592v-31.934c0-4.997-4.022-9.019-8.898-9.019h-30.959v85.319h14.626v-35.468h5.607
		l5.972,35.468h14.627l-6.094-36.322C290.934,178.173,292.884,175.004,292.884,171.592z M259.731,208.4l-5.607,5.485V132.71
		l5.607,5.484V208.4z M261.803,172.567l5.484-5.485h11.214l5.485,5.485H261.803z M267.654,165.863v-20.599h10.604v20.599H267.654z
		 M280.086,214.007l-5.607-33.884l4.388-5.729l5.972,34.25L280.086,214.007z M284.961,171.957l-5.484-5.606v-21.574l5.484-5.484
		V171.957z M260.585,137.342l-5.607-5.485h29.009c1.828,0,3.657,0.609,4.997,1.829l-3.778,3.657H260.585z"/>
</g>
</svg>
