<?xml version="1.0" encoding="utf-8"?>
<!-- Generator: Adobe Illustrator 17.0.2, SVG Export Plug-In . SVG Version: 6.00 Build 0)  -->
<!DOCTYPE svg PUBLIC "-//W3C//DTD SVG 1.1//EN" "http://www.w3.org/Graphics/SVG/1.1/DTD/svg11.dtd">
<svg version="1.1" id="Layer_1" xmlns="http://www.w3.org/2000/svg" xmlns:xlink="http://www.w3.org/1999/xlink" x="0px" y="0px"
	 width="200px" height="48.333px" viewBox="0 0 200 48.333" enable-background="new 0 0 200 48.333" xml:space="preserve">
<g>
	<polygon fill="#020202" points="85.602,13.606 75.407,21.175 65.696,24.09 50.553,26.442 40.492,28.928 28.373,32.378 
		14.561,35.272 5.613,35.324 12.929,40.394 26.651,40.002 41.708,36.112 54.83,34.334 68.609,33.801 80.486,32.68 87.364,30.647 
		92.342,16.656 	"/>
	<polygon fill="#020202" points="114.574,14.724 106.552,17.398 111.459,29.313 117.391,31.904 138.033,33.544 153.938,35.192 
		171.862,36.265 183.459,37.858 194.326,33.716 185.402,33.169 168.58,29.664 151.25,27.072 138.792,25.395 125.738,22.392 
		118.332,19.349 	"/>
</g>
</svg>
