<?xml version="1.0" encoding="utf-8"?>
<!-- Generator: Adobe Illustrator 16.0.0, SVG Export Plug-In . SVG Version: 6.00 Build 0)  -->
<!DOCTYPE svg PUBLIC "-//W3C//DTD SVG 1.1//EN" "http://www.w3.org/Graphics/SVG/1.1/DTD/svg11.dtd">
<svg version="1.1" id="Layer_1" xmlns="http://www.w3.org/2000/svg" xmlns:xlink="http://www.w3.org/1999/xlink" x="0px" y="0px"
	 width="200px" height="200px" viewBox="0 0 200 200" enable-background="new 0 0 200 200" xml:space="preserve">
<g>
	<polygon points="112.033,180.366 103.619,176.844 94.424,178.604 84.836,176.844 75.249,171.169 76.814,170.387 89.142,170.387 
		99.999,171.169 105.185,168.822 112.033,172.148 122.401,173.518 126.706,173.322 129.641,173.322 129.641,164.909 
		123.771,159.822 117.315,155.518 114.966,153.952 119.075,149.062 115.945,149.062 112.619,151.018 108.706,151.8 105.185,151.604 
		102.445,149.062 99.999,148.278 95.206,148.278 94.424,150.039 92.662,149.256 92.662,146.126 94.033,143.192 96.575,140.452 
		101.271,140.452 102.445,132.628 104.011,128.128 104.011,124.802 105.968,116.976 109.684,116.976 106.749,110.715 
		101.076,107.781 97.748,106.411 93.054,103.671 86.793,101.911 77.598,101.911 69.968,103.671 69.968,106.411 75.055,106.411 
		86.598,106.02 96.381,110.323 86.793,109.345 81.119,108.759 72.511,110.323 68.206,112.671 72.706,115.802 77.792,120.487 
		84.641,121.671 89.728,121.868 83.075,120.487 78.186,118.933 74.271,114.628 77.598,112.28 79.749,112.28 79.749,116.779 
		84.249,117.759 87.576,116.193 89.532,113.258 94.033,115.802 96.968,118.541 99.999,116.976 102.25,118.737 101.076,128.715 
		98.923,131.846 97.555,137.323 95.009,139.28 92.859,142.215 90.902,146.128 90.902,150.629 93.054,151.606 96.183,152.39 
		91.88,154.151 82.881,156.106 75.249,158.846 71.141,162.172 68.206,167.259 73.292,170.39 75.445,173.715 79.358,177.042 
		83.075,178.607 90.12,180.366 96.575,180.366 103.229,180.366 	"/>
	<polygon points="66.641,120.487 73.097,126.563 80.923,128.715 87.38,128.715 93.446,127.15 98.923,120.487 91.488,126.367 
		87.38,127.345 81.315,127.15 74.467,125.584 	"/>
	<path d="M148.423,116.193l3.718,1.174l-3.913-5.086l-8.217-1.761l-7.631,0.978l-7.826,0.587l-6.456-1.564v3.423l-1.175,6.544
		l-0.979,8.228l3.913-6.847l4.109,1.369l5.674,4.501h9.979l3.913-1.958l4.108-4.109l-5.479-2.054l-7.237-3.229l7.042-1.37
		L148.423,116.193z M136.684,122.649l0.587-3.032l2.153,0.87v2.163l-1.958,3.131l-3.424,0.978l-5.184-0.983l-3.718-3.126
		l1.173-4.109h0.979l0.782,1.946l1.566,2.163l1.762,0.979h2.64L136.684,122.649z"/>
	<polygon points="121.814,128.715 125.727,133.607 129.641,133.607 138.249,134.585 142.945,133.607 137.466,132.824 
		128.858,131.65 126.9,131.65 	"/>
	<polygon points="116.923,101.911 116.923,107.583 119.075,108.954 119.075,105.432 	"/>
	<polygon points="101.076,90.561 115.944,88.8 130.815,93.889 118,92.127 113.206,92.127 	"/>
	<path d="M171.511,63.555v-7.63l-1.565-8.805l-3.521-9.587l-3.522-4.5l-2.544-5.088l-4.891-4.891l-7.044-6.457l-9.782-6.261
		l-13.304-6.065l-11.151-2.935l-12.522-1.761h-8.022l-9.782,4.892l-7.436,3.716h-6.847l-5.479,6.457h-3.717l-7.437,1.957
		l-6.064,5.283l-4.5,5.282l-6.065,12.915l-3.914,6.653l-0.195,4.109l-1.37,2.151l0.393,6.849l-0.196,6.065l-0.587,6.457l0,7.828
		l-1.957,2.739l2.153,3.131l0.587,5.478l-0.783,3.521l-0.391,3.914l-0.195,9.978l-0.979,7.239l-1.37,2.935l1.173,6.652v3.718
		l3.131,2.739l5.673-0.196v-4.696l-1.174-9.194l-0.783,2.34l-2.543,8.616l-2.739-1.762l-1.566-5.869l1.761-2.935v-5.283l2.544-3.13
		l1.565,2.347l2.348,2.544v-7.239l1.76-0.587l1.174,6.065l-1.174,11.935l2.935,1.957l3.914,2.935v-3.327v-9.195l1.761-9.587
		l2.739-4.109v-6.064l3.913-7.436l4.108-3.522l4.616,1.761l-1.094-4.5l0.195-5.086l5.479-8.414l-2.544-2.739l5.674-4.501
		l-7.711,0.587l8.885-2.935l5.674-7.238l4.303-1.761l8.807,2.152l5.479,1.76l9.392,6.653l8.803,7.63l5.676,3.131h6.457h12.129
		l7.045,3.131l8.022,3.716l2.151,3.327l1.956,5.086l-1.172,12.521v16.24l-3.521,12.717l-4.109,10.174l-4.207,7.922l-2.348,9.392
		l-7.924,20.543l-6.163,6.163l2.055-4.109l4.695-6.75l0.881-2.642l2.055-6.163l2.935-10.272l-4.402,8.511l-2.347,8.218l-6.458,9.685
		l-6.163,6.163l-4.695,2.641l-9.979,5.576h-8.218l-12.325-1.761l-9.099-9.098h-4.988l-4.402-2.935h-6.164L51.091,171.07l0.876-3.031
		l-3.521-1.956l-2.349,0.196l-4.5-6.652l-3.717-10.371l-0.196,6.066l4.891,11.543l5.478,6.849l2.544,5.478l9.195,7.043l6.849,5.87
		l11.348,4.696l8.609,3.131h10.76h8.218l8.805-4.795l6.848-5.379l8.023-3.521l4.695-4.5l3.326-8.021l2.738-6.065l3.521-9.785
		l2.348-9.195l3.326-7.241l1.957-4.498l1.565-0.004l3.911-7.043l2.739-8.023v-7.043l2.544-5.673l3.327-5.87l3.912-9.587l0.197-5.282
		l3.129-7.826v-7.436L171.511,63.555z M80.146,50.843l-5.674,2.544l-6.267,6.26l-3.32-0.978l5.087-2.544l-2.936-2.738l2.936-1.566
		l-5.087-2.543l5.087-4.5l-3.13-1.956l1.363-5.283l-4.205-1.566l4.205-2.935l-3.712-0.587l0.783-3.913l-2.628-0.784l1.454-3.129
		l-4.306-0.979l4.306-3.717l-4.306-3.717h5.283l3.125-2.739l2.549-3.914h2.74l6.847,0.783l-5.869,2.935l-6.267,4.109l1.767,1.173
		l-1.767,4.892l0.788,0.782l-0.788,3.131l2.158,1.565l-0.979,1.957l5.283,0.587l-2.839,4.108h8.316l-4.108,6.457h6.065l-3.131,4.5
		l4.892,0.587L80.146,50.843z"/>
</g>
</svg>
