<?xml version="1.0" encoding="utf-8"?>
<!-- Generator: Adobe Illustrator 17.0.2, SVG Export Plug-In . SVG Version: 6.00 Build 0)  -->
<!DOCTYPE svg PUBLIC "-//W3C//DTD SVG 1.1//EN" "http://www.w3.org/Graphics/SVG/1.1/DTD/svg11.dtd">
<svg version="1.1" id="Layer_1" xmlns="http://www.w3.org/2000/svg" xmlns:xlink="http://www.w3.org/1999/xlink" x="0px" y="0px"
	 width="341.904px" height="322px" viewBox="0 0 341.904 322" enable-background="new 0 0 341.904 322" xml:space="preserve">
<g>
	<path fill="#231F20" d="M61.435,34.073l-21.867,7.289L16.66,55.94l7.289,11.454c0,0-5.206,20.826-7.289,23.949S0,127.788,0,127.788
		l6.248,22.908L0,160.067l7.289,9.371L0,187.141h15.619L5.206,225.668l1.041,10.413L0,253.782l10.413,24.991v20.263l15.619,7.851
		l13.537,13.537H57.27h30.197l18.743-26.032l22.908-13.537l39.092-35.158l-48.464,12.25h-11.454l-24.991-7.289v-15.619
		l-18.743-11.454l-11.454-22.908l-2.083-23.429l8.33-40.089v-13.537l-15.619,9.371l-3.124-23.949l12.495-20.826l11.454-1.041V55.94
		V40.321l50.393-35.121l21.521-5.554h-20.827L87.183,17.001L70.791,30.134L61.435,34.073z"/>
	<path fill="#231F20" d="M280.468,34.073l21.867,7.289l22.908,14.578l-7.289,11.454c0,0,5.206,20.826,7.289,23.949
		s16.66,36.445,16.66,36.445l-6.248,22.908l6.248,9.371l-7.289,9.371l7.289,17.702h-15.619l10.413,38.527l-1.041,10.413
		l6.248,17.702l-10.413,24.991v20.263l-15.619,7.851l-13.537,13.537h-17.702h-30.197l-18.743-26.032l-22.908-13.537l-39.092-35.158
		l48.464,12.25h11.454l24.991-7.289v-15.619l18.743-11.454l11.454-22.908l2.083-23.429l-8.33-40.089v-13.537l15.619,9.371
		l3.124-23.949l-12.495-20.826l-11.454-1.041V55.94l-4.863-15.619L241.994,18.39L193.399-0.354l57.549,6.313L280.468,34.073z"/>
	<polygon fill="#231F20" points="141.547,148.208 126.274,142.655 108.687,142.655 86.935,140.341 82.77,148.208 70.274,152.836 
		76.753,156.539 87.398,156.539 92.489,148.44 105.91,148.44 122.109,148.44 139.233,151.911 	"/>
	<polygon fill="#231F20" points="202.281,148.208 217.554,142.655 235.141,142.655 256.893,140.341 261.058,148.208 
		273.554,152.836 267.075,156.539 256.43,156.539 251.339,148.44 237.917,148.44 221.719,148.44 204.595,151.911 	"/>
</g>
</svg>
