<?xml version="1.0" encoding="utf-8"?>
<!-- Generator: Adobe Illustrator 16.0.0, SVG Export Plug-In . SVG Version: 6.00 Build 0)  -->
<!DOCTYPE svg PUBLIC "-//W3C//DTD SVG 1.1//EN" "http://www.w3.org/Graphics/SVG/1.1/DTD/svg11.dtd">
<svg version="1.1" id="Layer_1" xmlns="http://www.w3.org/2000/svg" xmlns:xlink="http://www.w3.org/1999/xlink" x="0px" y="0px"
	 width="300px" height="30px" viewBox="0 0 300 30" enable-background="new 0 0 300 30" xml:space="preserve">
<g>
	<g id="Xs5J9b_6_">
		<g>
			<path fill-rule="evenodd" clip-rule="evenodd" d="M29.657,14.46c0.601-0.487,1.198-0.927,1.745-1.423
				c1.439-1.303,3.063-2.303,4.97-2.674c2.87-0.559,5.541,0.024,7.828,1.884c1.495,1.216,2.867,2.584,4.317,3.855
				c1.072,0.939,2.188,1.822,3.615,2.188c1.32,0.339,2.576,0.236,3.646-0.649c0.994-0.823,1.905-1.744,2.864-2.609
				c0.303-0.275,0.626-0.672,1.082-0.444c0.447,0.224,0.223,0.717,0.164,1.052c-0.277,1.632-0.701,3.23-1.412,4.734
				c-1.534,3.237-3.863,5.673-7.146,7.183c-1.752,0.805-3.594,1.282-5.489,1.399c-1.577,0.098-3.167,0.07-4.753-0.245
				c-2.852-0.565-5.352-1.831-7.639-3.555c-1.016-0.765-1.991-1.587-2.942-2.431c-0.391-0.347-0.647-0.379-1.062-0.048
				c-1.291,1.039-2.582,2.083-3.933,3.042c-2.014,1.429-4.21,2.464-6.657,2.97c-1.968,0.407-3.939,0.421-5.895,0.126
				c-2.382-0.357-4.59-1.232-6.586-2.621C3.773,24.384,1.903,22,0.866,19.017c-0.412-1.187-0.598-2.456-0.854-3.694
				c-0.092-0.447,0.326-0.799,0.76-0.601c0.442,0.204,0.871,0.503,1.208,0.854c0.879,0.914,1.772,1.785,2.95,2.314
				c1.543,0.694,3.022,0.423,4.312-0.514c1.474-1.07,2.837-2.293,4.223-3.479c1.676-1.434,3.399-2.788,5.578-3.354
				c3.422-0.888,6.456-0.106,9.062,2.27C28.719,13.374,29.249,14.025,29.657,14.46z"/>
		</g>
	</g>
	<circle fill="#FFFFFF" cx="29.998" cy="15.019" r="14.043"/>
	<g>
		<path id="facebook-circle-outline-icon_1_" fill="#010101" d="M29.998,2.916c3.232,0,6.271,1.259,8.557,3.545
			c2.285,2.286,3.545,5.325,3.545,8.558s-1.26,6.271-3.545,8.558s-5.324,3.544-8.557,3.544c-3.234,0-6.271-1.259-8.559-3.544
			c-2.285-2.286-3.543-5.325-3.543-8.558s1.258-6.272,3.543-8.558C23.727,4.175,26.764,2.916,29.998,2.916 M29.998,0
			c-8.295,0-15.02,6.724-15.02,15.019s6.725,15.019,15.02,15.019c8.293,0,15.02-6.724,15.02-15.019S38.291,0,29.998,0L29.998,0z
			 M27.934,12.258h-1.715v2.798h1.715v8.221h3.297v-8.256h2.301l0.244-2.764H31.23c0,0,0-1.032,0-1.574
			c0-0.652,0.133-0.91,0.76-0.91c0.51,0,1.785,0,1.785,0V6.905c0,0-1.879,0-2.281,0c-2.455,0-3.561,1.081-3.561,3.149
			C27.934,11.855,27.934,12.258,27.934,12.258z"/>
	</g>
</g>
<g>
	<g id="Xs5J9b_7_">
		<g>
			<path fill-rule="evenodd" clip-rule="evenodd" d="M89.658,14.442c0.6-0.487,1.197-0.927,1.744-1.423
				c1.439-1.303,3.064-2.303,4.971-2.674c2.869-0.559,5.541,0.024,7.828,1.884c1.494,1.216,2.867,2.584,4.316,3.855
				c1.072,0.939,2.189,1.822,3.615,2.188c1.32,0.339,2.576,0.236,3.646-0.649c0.994-0.823,1.904-1.744,2.863-2.609
				c0.303-0.275,0.627-0.672,1.082-0.444c0.447,0.224,0.223,0.717,0.164,1.052c-0.277,1.632-0.701,3.23-1.412,4.734
				c-1.533,3.237-3.863,5.673-7.146,7.183c-1.752,0.805-3.594,1.282-5.488,1.399c-1.578,0.098-3.168,0.07-4.754-0.245
				c-2.852-0.565-5.352-1.831-7.639-3.555c-1.016-0.765-1.99-1.587-2.941-2.431c-0.391-0.347-0.648-0.379-1.062-0.048
				c-1.291,1.039-2.582,2.083-3.932,3.042c-2.014,1.429-4.211,2.464-6.658,2.97c-1.967,0.407-3.939,0.421-5.895,0.126
				c-2.381-0.357-4.59-1.232-6.586-2.621c-2.602-1.812-4.471-4.196-5.508-7.179c-0.412-1.187-0.598-2.456-0.854-3.694
				c-0.092-0.447,0.326-0.799,0.76-0.601c0.441,0.204,0.871,0.503,1.207,0.854c0.879,0.914,1.773,1.785,2.951,2.314
				c1.543,0.694,3.021,0.423,4.311-0.514c1.475-1.07,2.838-2.293,4.223-3.479c1.676-1.434,3.4-2.788,5.578-3.354
				c3.422-0.888,6.457-0.106,9.062,2.27C88.719,13.355,89.25,14.006,89.658,14.442z"/>
		</g>
	</g>
	<circle fill="#FFFFFF" cx="89.998" cy="15" r="14.043"/>
	<g>
		<path id="instagram-circle-outline-icon_1_" fill="#010101" d="M89.998,2.913c3.229,0,6.264,1.257,8.547,3.541
			c2.283,2.283,3.541,5.318,3.541,8.547s-1.258,6.264-3.541,8.547c-2.283,2.283-5.318,3.541-8.547,3.541s-6.264-1.257-8.547-3.541
			C79.168,21.264,77.91,18.229,77.91,15s1.258-6.264,3.541-8.547C83.734,4.17,86.77,2.913,89.998,2.913 M89.998,0
			c-8.283,0-15,6.716-15,15s6.717,15,15,15c8.285,0,15-6.716,15-15S98.283,0,89.998,0L89.998,0z M93.125,12.941h4.189v6.43
			c0,1.566-1.27,2.836-2.836,2.836h-8.668c-1.566,0-2.836-1.27-2.836-2.836v-6.43h4.17c-0.428,0.6-0.678,1.333-0.678,2.125
			c0,2.026,1.643,3.669,3.668,3.669c2.027,0,3.67-1.643,3.67-3.669C93.805,14.273,93.553,13.541,93.125,12.941z M97.314,10.629
			v1.863h-4.566c-0.666-0.676-1.59-1.095-2.613-1.095s-1.949,0.419-2.613,1.095h-4.547v-1.863c0-0.956,0.475-1.8,1.199-2.314v3.053
			h0.58V7.998c0.133-0.053,0.27-0.097,0.41-0.129v3.5h0.582V7.795c0.021,0,0.043-0.002,0.064-0.002h0.336v3.576h0.582V7.793h7.75
			C96.045,7.793,97.314,9.063,97.314,10.629z M96.018,9.434c0-0.251-0.203-0.455-0.455-0.455h-1.533
			c-0.252,0-0.455,0.204-0.455,0.455V11c0,0.251,0.203,0.455,0.455,0.455h1.533c0.252,0,0.455-0.204,0.455-0.455V9.434z
			 M87.309,15.065c0-0.846,0.375-1.606,0.965-2.125c0.207-0.182,0.441-0.333,0.695-0.449c0.355-0.162,0.75-0.252,1.166-0.252
			s0.811,0.091,1.166,0.252c0.254,0.116,0.488,0.268,0.695,0.449c0.592,0.519,0.965,1.278,0.965,2.125
			c0,1.559-1.268,2.827-2.826,2.827S87.309,16.624,87.309,15.065z M88.055,15.065c0,1.154,0.936,2.089,2.09,2.089
			s2.088-0.936,2.088-2.089s-0.934-2.089-2.088-2.089S88.055,13.912,88.055,15.065z"/>
	</g>
</g>
<g>
	<g id="Xs5J9b_8_">
		<g>
			<path fill-rule="evenodd" clip-rule="evenodd" d="M149.658,14.442c0.602-0.487,1.199-0.927,1.746-1.423
				c1.439-1.303,3.062-2.303,4.969-2.674c2.871-0.559,5.541,0.024,7.828,1.884c1.496,1.216,2.867,2.584,4.318,3.855
				c1.072,0.939,2.188,1.822,3.615,2.188c1.32,0.339,2.576,0.236,3.645-0.649c0.994-0.823,1.906-1.744,2.865-2.609
				c0.303-0.275,0.625-0.672,1.082-0.444c0.447,0.224,0.223,0.717,0.164,1.052c-0.277,1.632-0.701,3.23-1.412,4.734
				c-1.535,3.237-3.863,5.673-7.146,7.183c-1.752,0.805-3.594,1.282-5.49,1.399c-1.576,0.098-3.166,0.07-4.752-0.245
				c-2.852-0.565-5.352-1.831-7.639-3.555c-1.016-0.765-1.992-1.587-2.943-2.431c-0.391-0.347-0.646-0.379-1.061-0.048
				c-1.291,1.039-2.582,2.083-3.934,3.042c-2.014,1.429-4.209,2.464-6.656,2.97c-1.969,0.407-3.939,0.421-5.895,0.126
				c-2.383-0.357-4.59-1.232-6.586-2.621c-2.602-1.812-4.473-4.196-5.51-7.179c-0.412-1.187-0.598-2.456-0.854-3.694
				c-0.092-0.447,0.326-0.799,0.76-0.601c0.443,0.204,0.871,0.503,1.209,0.854c0.879,0.914,1.771,1.785,2.949,2.314
				c1.543,0.694,3.023,0.423,4.312-0.514c1.473-1.07,2.836-2.293,4.223-3.479c1.676-1.434,3.398-2.788,5.578-3.354
				c3.422-0.888,6.455-0.106,9.061,2.27C148.721,13.355,149.25,14.006,149.658,14.442z"/>
		</g>
	</g>
	<circle fill="#FFFFFF" cx="150" cy="15" r="14.043"/>
	<g>
		<path id="pinterest-circle-outline-icon_1_" fill="#010101" d="M150,2.913c3.229,0,6.264,1.257,8.547,3.541
			c2.283,2.283,3.54,5.318,3.54,8.547s-1.257,6.264-3.54,8.547c-2.283,2.283-5.318,3.541-8.547,3.541s-6.264-1.257-8.547-3.541
			c-2.283-2.283-3.54-5.318-3.54-8.547s1.257-6.264,3.54-8.547C143.736,4.17,146.771,2.913,150,2.913 M150,0
			c-8.284,0-15,6.716-15,15s6.716,15,15,15s15-6.716,15-15S158.284,0,150,0L150,0z M150.617,7.223c-4.643,0-6.982,3.328-6.982,6.104
			c0,1.681,0.636,3.175,2,3.733c0.225,0.091,0.425,0.003,0.489-0.245c0.046-0.171,0.152-0.604,0.2-0.784
			c0.065-0.245,0.04-0.331-0.141-0.544c-0.394-0.464-0.645-1.065-0.645-1.916c0-2.469,1.847-4.68,4.81-4.68
			c2.624,0,4.065,1.603,4.065,3.744c0,2.817-1.247,5.195-3.098,5.195c-1.022,0-1.787-0.845-1.542-1.882
			c0.294-1.238,0.862-2.574,0.862-3.467c0-0.8-0.429-1.467-1.317-1.467c-1.045,0-1.884,1.081-1.884,2.529
			c0,0.922,0.312,1.546,0.312,1.546s-1.069,4.53-1.257,5.324c-0.374,1.581-0.057,3.518-0.029,3.713
			c0.016,0.116,0.164,0.144,0.232,0.056c0.096-0.126,1.341-1.662,1.764-3.197c0.12-0.435,0.688-2.686,0.688-2.686
			c0.339,0.648,1.331,1.218,2.386,1.218c3.142,0,5.272-2.863,5.272-6.696C156.803,9.922,154.348,7.223,150.617,7.223z"/>
	</g>
</g>
<g>
	<g id="Xs5J9b_9_">
		<g>
			<path fill-rule="evenodd" clip-rule="evenodd" d="M209.659,14.442c0.601-0.487,1.198-0.927,1.745-1.423
				c1.439-1.303,3.063-2.303,4.97-2.674c2.87-0.559,5.541,0.024,7.828,1.884c1.495,1.216,2.867,2.584,4.317,3.855
				c1.072,0.939,2.188,1.822,3.615,2.188c1.32,0.339,2.576,0.236,3.646-0.649c0.994-0.823,1.905-1.744,2.864-2.609
				c0.303-0.275,0.626-0.672,1.082-0.444c0.447,0.224,0.223,0.717,0.164,1.052c-0.277,1.632-0.701,3.23-1.412,4.734
				c-1.534,3.237-3.863,5.673-7.146,7.183c-1.752,0.805-3.594,1.282-5.489,1.399c-1.577,0.098-3.167,0.07-4.753-0.245
				c-2.852-0.565-5.352-1.831-7.639-3.555c-1.016-0.765-1.991-1.587-2.942-2.431c-0.391-0.347-0.647-0.379-1.062-0.048
				c-1.291,1.039-2.582,2.083-3.933,3.042c-2.014,1.429-4.21,2.464-6.657,2.97c-1.968,0.407-3.939,0.421-5.895,0.126
				c-2.382-0.357-4.59-1.232-6.586-2.621c-2.602-1.812-4.472-4.196-5.509-7.179c-0.412-1.187-0.598-2.456-0.854-3.694
				c-0.092-0.447,0.326-0.799,0.76-0.601c0.442,0.204,0.871,0.503,1.208,0.854c0.879,0.914,1.772,1.785,2.95,2.314
				c1.543,0.694,3.022,0.423,4.312-0.514c1.474-1.07,2.837-2.293,4.223-3.479c1.676-1.434,3.399-2.788,5.578-3.354
				c3.422-0.888,6.456-0.106,9.062,2.27C208.721,13.355,209.251,14.006,209.659,14.442z"/>
		</g>
	</g>
	<circle fill="#FFFFFF" cx="210" cy="15" r="14.043"/>
	<g>
		<path id="twitter-5-icon_1_" fill="#010101" d="M210,2.913c6.681,0,12.087,5.406,12.087,12.087c0,6.68-5.405,12.087-12.087,12.087
			c-6.681,0-12.087-5.406-12.087-12.087C197.913,8.32,203.318,2.913,210,2.913 M210,0c-8.284,0-15,6.716-15,15s6.716,15,15,15
			s15-6.716,15-15S218.284,0,210,0L210,0z M218.213,11.068c-0.562,0.249-1.164,0.417-1.798,0.493
			c0.646-0.387,1.143-1.001,1.377-1.732c-0.605,0.359-1.275,0.619-1.988,0.76c-0.571-0.608-1.386-0.989-2.286-0.989
			c-2.021,0-3.507,1.886-3.05,3.845c-2.603-0.131-4.909-1.377-6.454-3.271c-0.82,1.407-0.425,3.248,0.97,4.18
			c-0.514-0.016-0.997-0.157-1.419-0.392c-0.033,1.451,1.006,2.807,2.512,3.11c-0.44,0.12-0.924,0.147-1.414,0.053
			c0.398,1.244,1.555,2.149,2.925,2.175c-1.316,1.032-2.975,1.492-4.636,1.296c1.386,0.888,3.032,1.407,4.8,1.407
			c5.813,0,9.098-4.91,8.899-9.314C217.263,12.247,217.794,11.696,218.213,11.068z"/>
	</g>
</g>
<g>
	<g id="Xs5J9b_10_">
		<g>
			<path fill-rule="evenodd" clip-rule="evenodd" d="M269.66,14.442c0.601-0.487,1.198-0.927,1.745-1.423
				c1.439-1.303,3.063-2.303,4.97-2.674c2.87-0.559,5.541,0.024,7.828,1.884c1.495,1.216,2.867,2.584,4.317,3.855
				c1.072,0.939,2.188,1.822,3.615,2.188c1.32,0.339,2.576,0.236,3.646-0.649c0.994-0.823,1.905-1.744,2.864-2.609
				c0.303-0.275,0.626-0.672,1.082-0.444c0.447,0.224,0.223,0.717,0.164,1.052c-0.277,1.632-0.701,3.23-1.412,4.734
				c-1.534,3.237-3.863,5.673-7.146,7.183c-1.752,0.805-3.594,1.282-5.489,1.399c-1.577,0.098-3.167,0.07-4.753-0.245
				c-2.852-0.565-5.352-1.831-7.639-3.555c-1.016-0.765-1.991-1.587-2.942-2.431c-0.391-0.347-0.647-0.379-1.062-0.048
				c-1.291,1.039-2.582,2.083-3.933,3.042c-2.014,1.429-4.21,2.464-6.657,2.97c-1.968,0.407-3.939,0.421-5.895,0.126
				c-2.382-0.357-4.59-1.232-6.586-2.621c-2.602-1.812-4.472-4.196-5.509-7.179c-0.412-1.187-0.598-2.456-0.854-3.694
				c-0.092-0.447,0.326-0.799,0.76-0.601c0.442,0.204,0.871,0.503,1.208,0.854c0.879,0.914,1.772,1.785,2.95,2.314
				c1.543,0.694,3.022,0.423,4.312-0.514c1.474-1.07,2.837-2.293,4.223-3.479c1.676-1.434,3.399-2.788,5.578-3.354
				c3.422-0.888,6.456-0.106,9.062,2.27C268.722,13.355,269.252,14.006,269.66,14.442z"/>
		</g>
	</g>
	<circle fill="#FFFFFF" cx="270.001" cy="15" r="14.043"/>
	<g>
		<path id="youtube-5-icon_1_" fill="#010101" d="M270.001,0c-8.284,0-15,6.716-15,15s6.716,15,15,15s15-6.716,15-15
			S278.285,0,270.001,0z M270.001,27.087c-6.681,0-12.087-5.406-12.087-12.087c0-6.68,5.405-12.087,12.087-12.087
			c6.68,0,12.088,5.406,12.088,12.087C282.089,21.68,276.683,27.087,270.001,27.087z M265.155,6.676h0.965l0.66,2.478l0.613-2.478
			h0.973l-1.114,3.685v2.514h-0.958v-2.514L265.155,6.676z M268.323,11.735c0,0.806,0.421,1.225,1.246,1.225
			c0.684,0,1.222-0.457,1.222-1.225V9.493c0-0.715-0.533-1.229-1.222-1.229c-0.749,0-1.246,0.495-1.246,1.229V11.735z
			 M269.198,9.569c0-0.25,0.115-0.436,0.354-0.436c0.261,0,0.372,0.18,0.372,0.436v2.127c0,0.249-0.127,0.433-0.355,0.433
			c-0.235,0-0.371-0.192-0.371-0.433V9.569L269.198,9.569z M273.09,8.303v3.471c-0.104,0.129-0.334,0.342-0.5,0.342
			c-0.182,0-0.227-0.124-0.227-0.308V8.302h-0.851v3.823c0,0.452,0.139,0.817,0.595,0.817c0.257,0,0.614-0.134,0.982-0.571v0.504
			h0.851V8.303H273.09z M271.839,17.677c0.058,0.077,0.087,0.188,0.087,0.335v2.249c0,0.139-0.023,0.239-0.07,0.3
			c-0.089,0.117-0.282,0.112-0.414,0.045c-0.062-0.031-0.126-0.083-0.192-0.153v-2.714c0.056-0.06,0.111-0.104,0.167-0.133
			C271.559,17.534,271.741,17.548,271.839,17.677z M274.565,17.579c-0.301,0-0.362,0.211-0.362,0.511v0.441h0.716v-0.441
			C274.919,17.795,274.856,17.579,274.565,17.579z M277.034,20.792c0,1.077-0.872,1.95-1.949,1.95h-10.022
			c-1.076,0-1.949-0.873-1.949-1.95v-4.925c0-1.077,0.873-1.95,1.949-1.95h10.022c1.077,0,1.949,0.873,1.949,1.95V20.792
			L277.034,20.792z M266.398,16.234h0.943v-0.857h-2.799v0.857h0.943v5.047h0.912V16.234L266.398,16.234z M269.642,16.926h-0.81
			v3.306c-0.099,0.124-0.318,0.326-0.476,0.326c-0.174,0-0.216-0.118-0.216-0.293v-3.339h-0.811v3.641
			c0,0.883,0.6,0.889,1.036,0.639c0.161-0.092,0.316-0.228,0.466-0.405v0.481h0.81V16.926z M272.759,17.963
			c0-0.59-0.196-1.092-0.789-1.092c-0.289,0-0.537,0.185-0.721,0.407v-1.901h-0.817v5.904h0.817v-0.335
			c0.227,0.282,0.473,0.39,0.77,0.39c0.539,0,0.74-0.419,0.74-0.958V17.963L272.759,17.963z M275.752,18.097
			c0-0.787-0.375-1.281-1.152-1.281c-0.73,0-1.229,0.525-1.229,1.281v1.955c0,0.784,0.396,1.347,1.168,1.347
			c0.854,0,1.214-0.508,1.214-1.347v-0.327h-0.833v0.303c0,0.379-0.021,0.609-0.362,0.609c-0.326,0-0.354-0.283-0.354-0.609v-0.822
			h1.549V18.097L275.752,18.097z"/>
	</g>
</g>
</svg>
