<?xml version="1.0" encoding="utf-8"?>
<!-- Generator: Adobe Illustrator 16.0.0, SVG Export Plug-In . SVG Version: 6.00 Build 0)  -->
<!DOCTYPE svg PUBLIC "-//W3C//DTD SVG 1.1//EN" "http://www.w3.org/Graphics/SVG/1.1/DTD/svg11.dtd">
<svg version="1.1" id="Layer_1" xmlns="http://www.w3.org/2000/svg" xmlns:xlink="http://www.w3.org/1999/xlink" x="0px" y="0px"
	 width="200px" height="200px" viewBox="0 0 200 200" enable-background="new 0 0 200 200" xml:space="preserve">
<g>
	<polygon points="97.033,137.578 84.58,140.692 73.904,146.474 69.012,156.153 62.34,166.933 70.791,163.82 86.803,160.261 
		97.033,159.372 111.264,158.927 117.492,161.151 126.387,163.82 140.176,166.933 143.732,169.156 143.732,163.82 136.172,147.363 
		128.611,143.805 121.496,137.578 111.711,135.354 109.932,132.241 115.045,132.241 116.824,130.685 116.824,128.016 
		112.377,126.681 110.152,126.681 108.375,129.128 105.482,131.796 101.48,130.462 98.59,132.908 98.59,135.132 103.908,138.023 
		101.035,139.357 	"/>
	<polygon points="95.254,130.685 93.697,129.35 89.918,129.35 86.137,129.35 86.137,130.685 89.693,133.353 89.471,131.352 
		92.141,131.352 	"/>
	<polygon points="83.246,120.677 72.125,135.799 68.346,145.584 72.793,138.913 75.795,134.688 81.021,126.681 	"/>
	<polygon points="117.047,118.454 118.383,123.568 119.717,126.681 119.717,129.35 122.83,129.35 124.83,134.688 129.279,136.911 
		135.283,141.359 127.721,133.131 124.164,126.681 121.051,123.124 	"/>
	<g>
		<path d="M127.609,83.873l7.674-0.445l3.447,2.779l4.336,4.226l2.779-0.333h2.891l-2.447-4.336l-1.889-3.781l-3.002-3.447
			l-4.004-1.334l-6.004-1.223l-7.449,1.557l-6.227,1.446l-6.115,3.335l-2.893,1.557l-3.668,0.556l1.779,11.341l1.557,8.896v4.892
			l1.334,8.896v5.115l2.891-2.891h1.779v-3.336l-3.115-5.114l1.781-4.893l-3.336-6.227l4.67,2.891l1.557,1.779l4.004,2.669
			l-2.893-3.336l6.004,0.667l-6.004-2.668l6.004,0.111l-6.672-2.891l-2.334-1.667l3.002-2.002l3.225-1.556l1.225,2.557l2.668,0.556
			l3.67-0.667l3.334-0.89l1.445-1.223l3.338,1.335l3.334,2.112l-2.225,1.668l-5.113,1.89l5.225-0.444l3.67-1.112l2.891,0.334
			l1.113-0.778l-1.113-1.779l-3.336-3.67l-2.779-2.891l-5.67-3.002l-3.67-1.112l-4.002,0.445l-3.781,0.444l-2.668,1.89l-3.67,2.558
			l-1.779-0.222l-0.891-3.114l4.227-2.446L127.609,83.873z M123.496,94.881l-0.445-1.334h1.445l1.002,1.334H123.496z
			 M115.379,93.546l3.336-1.778l3.002-1.446l6.117-0.89l3.113,1.445l4.336,1.78l-5.449,0.111l-5.559-1l-3.893,1l-2.557,0.778
			l-3.004,2.558L115.379,93.546z"/>
	</g>
	<polyline points="103.037,163.967 102.539,164.293 98.961,166.636 93.92,169.156 98.479,172.566 103.908,173.16 112.305,171.528 
		117.047,170.046 114.678,167.674 109.783,167.674 107.709,163.967 	"/>
	<polygon points="28.984,144.547 32.395,148.994 34.916,152.108 38.473,150.921 40.549,147.919 42.18,153.294 42.18,162.041 
		45.887,168.563 47.961,174.049 49.445,182.055 46.479,174.494 44.256,168.563 40.846,163.301 40.252,154.184 39.215,152.256 
		37.139,153.145 33.73,152.405 30.764,149.142 	"/>
	<polygon points="38.324,126.681 37.434,116.084 34.617,112.376 31.949,109.857 30.91,109.857 28.984,111.191 28.984,115.639 
		28.984,122.311 30.02,133.131 32.838,140.694 30.02,136.098 28.984,131.352 27.648,124.237 27.648,116.824 27.648,110.597 
		29.725,106.744 31.949,106.744 34.469,110.152 37.434,114.6 38.324,118.454 	"/>
	<polygon points="33.432,120.677 32.098,125.571 31.207,128.388 32.318,131.352 34.914,133.353 37.582,133.353 34.395,131.352 
		33.729,127.795 35.506,123.718 36.248,120.677 	"/>
	<g>
		<path d="M89.174,87.767v-3.263l-5.928-1.927h-6.377l-3.707-1.779l-4.816-0.89h-3.781l-5.338,0.742l-2.965,3.114l-5.189,5.485
			l-0.74,2.965l2.074,0.74l3.41-0.444l5.189-5.188l6.523-1.038l5.484,1.186l5.486,2.817h-4.893l-6.672,0.889l-4.596,2.373
			l-4.002,4.299l-1.039,1.927l-3.41,0.891h3.113l-3.113,2.074h2.521h2.074l2.855-2.965h2.779l-0.666-1.446l3.67-1.779l1.223,0.889
			l3.225,0.557h4.893l2.668-2.113l2.002,0.667l-0.779,2.113l-4.559,1.112h-7.449l8.229,1.445l4.559-1.445l-3.113,2.965l-2.225,1.593
			l-3.447,1.89l6.115-1.556l3.893-3.225l2.002-2.224l0.889-3.447l1.779,0.333l2.148,4.561l-0.889-4.597l-2.148-1.779l-2.891-1.63
			l2.965-2.668L89.174,87.767z M71.291,95.659h-1.539v-0.89h1.539V95.659z M75.795,93.546h-4.504h-2.945l-5.449,2.113l1.336-1.223
			l3.557-2.187l4.447-0.815h3.004l4.447,1.631L75.795,93.546z"/>
	</g>
	<polygon points="68.346,189.913 75.795,189.913 86.137,193.471 90.693,195.843 99.256,192.878 105.484,195.843 112.303,195.843 
		117.047,194.063 124.164,192.878 131.576,189.913 137.805,189.913 143.732,188.43 135.283,194.657 126.164,198.809 
		112.896,198.809 107.262,199.994 92.141,199.994 81.762,198.215 	"/>
	<polygon points="162.709,108.823 160.34,99.773 160.34,89.989 157.67,82.28 148.736,75.979 150.555,70.419 155.725,72.792 
		150.555,67.455 157.373,67.455 151.74,63.007 157.67,65.379 152.037,58.855 149.961,55.001 145.217,49.96 140.178,44.03 
		133.357,44.03 121.199,44.03 112.305,44.03 106.039,45.513 98.072,44.03 89.174,40.175 84.729,40.175 72.867,40.175 57.746,44.03 
		50.332,52.333 45.295,55.891 50.332,56.483 43.217,61.82 47.961,62.118 43.217,67.751 47.961,66.862 45.59,72.199 47.961,72.199 
		47.666,79.908 43.217,83.466 40.846,89.1 39.215,99.773 37.582,108.076 37.582,110.448 34.395,106.744 32.986,104.222 
		31.207,102.739 29.725,103.332 26.465,106.744 25.723,114.748 25.723,120.085 24.24,115.637 24.98,110.151 26.465,105.11 
		28.984,101.701 31.207,101.107 30.316,95.771 27.648,85.098 28.242,79.908 25.871,69.383 24.24,58.263 26.906,41.807 
		32.986,34.987 44.697,20.015 54.928,11.564 74.645,2.965 85.32,2.965 94.66,1.779 107.705,0 119.121,1.484 125.793,3.113 
		143.137,8.155 157.816,18.088 166.562,27.875 171.305,38.252 173.977,53.374 174.568,57.971 174.568,69.682 173.383,77.392 
		173.383,84.804 171.752,91.624 170.861,96.665 170.416,98.592 173.088,100.965 174.568,103.93 171.604,101.113 168.342,99.773 
		166.119,100.668 163.451,103.781 	"/>
	<polygon points="171.012,104.079 167.752,104.079 166.27,106.222 169.234,106.744 170.271,114.16 171.012,121.276 171.754,127.651 
		169.678,133.353 167.602,138.622 171.162,133.131 173.088,125.723 172.199,120.085 171.605,111.046 171.754,105.413 	"/>
	<polygon points="163.896,116.235 163.896,119.2 165.084,120.677 165.676,123.568 165.676,126.681 163.896,127.946 164.787,131.352 
		167.16,131.352 168.492,126.681 168.492,122.165 167.455,118.454 165.527,116.235 	"/>
	<polygon points="161.23,142.179 160.342,154.483 156.783,163.967 153.078,177.166 157.154,168.563 159.305,161.896 161.23,156.153 
		162.121,149.888 167.162,149.591 169.678,147.919 170.719,144.547 170.719,138.622 173.088,133.131 169.678,138.622 
		169.678,144.547 167.162,146.477 163.896,147.367 162.268,146.182 	"/>
	<polygon points="175.76,108.822 174.568,114.604 175.164,124.388 173.088,116.605 173.088,111.935 	"/>
</g>
</svg>
