<?xml version="1.0" encoding="utf-8"?>
<!-- Generator: Adobe Illustrator 17.0.2, SVG Export Plug-In . SVG Version: 6.00 Build 0)  -->
<!DOCTYPE svg PUBLIC "-//W3C//DTD SVG 1.1//EN" "http://www.w3.org/Graphics/SVG/1.1/DTD/svg11.dtd">
<svg version="1.1" id="Layer_1" xmlns="http://www.w3.org/2000/svg" xmlns:xlink="http://www.w3.org/1999/xlink" x="0px" y="0px"
	 width="133.394px" height="97.495px" viewBox="0 0 133.394 97.495" enable-background="new 0 0 133.394 97.495"
	 xml:space="preserve">
<polygon fill="#020202" points="27.665,28.483 16.345,41.216 13.868,56.491 13.868,67.473 22.498,84.209 22.498,76.887 
	33.742,84.209 35.835,80.548 40.54,84.209 43.157,76.365 48.91,82.117 48.91,75.319 55.709,78.979 55.709,74.794 59.892,77.932 
	59.892,73.227 67.476,80.025 67.476,73.227 67.476,59.105 69.829,65.904 69.829,76.887 72.444,73.749 72.444,78.456 80.288,76.365 
	80.288,78.456 84.996,71.133 84.996,78.456 90.748,73.749 93.364,74.794 96.502,72.703 96.502,80.025 102.778,76.365 
	106.961,80.025 118.991,70.088 118.991,54.4 115.853,41.846 109.054,29.818 97.672,22.989 87.087,20.403 96.502,29.818 
	87.611,28.248 84.473,30.865 77.674,28.772 74.012,31.91 67.476,27.202 66.429,32.955 59.892,28.248 57.276,32.433 53.093,29.818 
	51.523,33.478 48.91,29.293 44.725,31.386 43.157,26.157 47.339,20.403 "/>
</svg>
