<?xml version="1.0" encoding="utf-8"?>
<!-- Generator: Adobe Illustrator 17.0.2, SVG Export Plug-In . SVG Version: 6.00 Build 0)  -->
<!DOCTYPE svg PUBLIC "-//W3C//DTD SVG 1.1//EN" "http://www.w3.org/Graphics/SVG/1.1/DTD/svg11.dtd">
<svg version="1.1" id="Layer_1" xmlns="http://www.w3.org/2000/svg" xmlns:xlink="http://www.w3.org/1999/xlink" x="0px" y="0px"
	 width="281.177px" height="378.429px" viewBox="0 0 281.177 378.429" enable-background="new 0 0 281.177 378.429"
	 xml:space="preserve">
<g>
	<polygon fill="#231F20" points="101.346,8.481 86.36,21.844 74.041,37.084 60.579,45.72 41.148,58.42 32.385,79.756 19.05,93.902 
		14.224,110.744 16.764,124.968 24.384,139.7 27.94,139.7 30.226,134.112 32.258,143.764 37.592,132.08 45.466,115.316 
		62.23,96.012 73.152,91.186 101.346,86.36 97.028,80.772 101.346,81.28 103.124,76.122 109.728,78.74 109.728,73.152 
		118.364,76.122 120.602,82.804 125.476,78.74 128.016,87.884 131.572,86.36 135.636,87.884 135.636,91.44 135.636,93.98 
		124.46,91.44 113.284,91.44 98.552,89.408 84.201,97.028 63.055,107.696 49.276,128.016 41.304,141.986 66.04,127.254 
		43.005,155.265 28.194,166.37 22.86,179.324 25.908,164.846 29.972,145.288 28.956,141.478 23.368,140.716 15.24,125.984 
		12.446,110.998 12.446,93.902 22.352,73.406 31.242,57.404 54.356,41.402 65.532,35.052 80.518,19.558 	"/>
	<path fill="#231F20" d="M125.984,117.602l-18.034,5.334l-3.048,2.286l-6.858,6.604h-10.16H78.74c0,0-4.064,3.556-4.699,4.318
		c-0.635,0.762-8.509,10.414-8.509,10.414v16.764l5.08,6.096l5.588,6.604h10.414l2.54-2.286l3.556-1.27l9.144,3.556l-3.81-4.064
		l-3.556-5.334l8.382-2.032l5.334,2.54h5.08l7.318-0.508l2.334-2.54l1.27-2.032l1.778-2.794l4.572-1.524l-6.858,0.762l-4.826-7.874
		l-3.302-4.826l-13.462-0.508l-6.604,2.794l-3.302,6.35l-0.254,9.652v4.572l-6.604,4.826l-6.858-1.524l-2.54-9.398l-1.905-1.524
		l2.159-11.938l2.54-11.176l4.318,1.016l6.858-2.54l8.128-3.048l7.366-7.239l2.54-2.159L125.984,117.602z"/>
	<polygon fill="#231F20" points="133.604,129.286 135.636,140.462 132.334,144.272 133.985,146.812 134.746,166.038 128.524,168.91 
		130.556,174.244 135.636,176.784 139.954,175.259 142.494,169.926 138.176,166.624 139.7,142.748 138.684,141.224 139.954,129.286 
		136.652,123.444 	"/>
	<polygon fill="#231F20" points="155.702,123.444 171.196,131.572 190.246,135.382 201.676,141.986 190.246,132.715 172.974,129.54 
			"/>
	<polygon fill="#231F20" points="203.454,161.544 188.214,164.592 181.102,171.45 178.689,168.021 180.34,156.718 178.689,150.114 
		172.212,144.018 162.306,144.018 154.432,146.812 148.59,155.702 145.542,160.782 147.828,163.322 159.004,165.608 
		168.148,162.306 176.276,159.258 176.53,165.354 174.498,176.022 189.484,176.022 198.882,171.704 	"/>
	<polygon fill="#231F20" points="142.494,91.948 145.542,87.884 151.892,87.884 151.892,77.724 158.496,77.724 164.592,74.676 
		171.704,74.676 169.164,80.772 174.498,81.28 174.498,87.376 201.676,88.9 208.788,93.902 212.598,93.902 222.758,101.854 
		228.346,105.156 235.204,104.14 235.204,111.76 240.792,117.602 248.665,130.302 258.063,132.715 255.777,140.97 252.983,153.67 
		256.793,162.052 258.063,173.99 258.063,184.404 235.712,163.068 228.6,146.812 220.726,131.318 248.157,156.972 244.348,144.018 
		237.998,127.508 226.822,109.22 219.202,103.378 211.582,97.028 201.676,92.202 187.706,90.932 157.734,90.932 150.114,90.678 	"/>
	<polygon fill="#231F20" points="261.619,92.202 259.079,85.09 255.523,79.756 251.967,79.756 247.649,82.296 243.839,90.17 
		241.299,100.838 246.125,88.9 249.427,84.328 258.063,87.63 259.587,94.996 258.063,92.71 249.681,98.298 245.871,102.87 
		248.665,107.188 252.983,109.22 258.063,109.22 260.349,100.584 261.619,110.236 258.063,117.602 252.983,117.602 245.363,111.252 
		242.57,108.458 245.871,117.602 251.459,124.46 256.285,128.016 261.619,128.016 263.397,117.602 263.397,103.124 	"/>
	<polygon fill="#231F20" points="81.915,188.595 81.915,191.262 84.201,191.262 	"/>
	<polygon fill="#231F20" points="63.627,186.69 60.579,189.928 65.532,189.928 	"/>
	<polygon fill="#231F20" points="52.197,191.262 52.197,193.548 55.626,189.928 	"/>
	<polygon fill="#231F20" points="71.628,189.928 70.104,191.738 74.041,191.738 	"/>
	<polygon fill="#231F20" points="109.347,193.548 113.919,193.548 111.633,188.595 	"/>
	<polygon fill="#231F20" points="101.727,193.548 101.727,195.834 105.156,195.834 	"/>
	<polygon fill="#231F20" points="152.781,191.738 152.781,200.406 155.702,196.072 	"/>
	<polygon fill="#231F20" points="188.214,188.309 185.166,189.928 188.214,189.928 	"/>
	<polygon fill="#231F20" points="203.454,184.404 203.454,186.69 208.026,186.69 	"/>
	<polygon fill="#231F20" points="224.028,184.404 219.456,185.547 221.742,186.69 	"/>
	<polygon fill="#231F20" points="232.791,186.69 228.6,189.118 232.791,189.118 	"/>
	<polygon fill="#231F20" points="197.358,189.118 194.691,187.904 194.691,189.928 	"/>
	<g>
		<path d="M274.319,279.272v-15.621c0,0,0-9.144,0.381-8.001c0.381,1.143,3.429,4.572,3.429,4.572l-5.715-11.43l-0.381-10.668
			l9.144,8.382l-8.382-20.193l1.524-4.572l-7.62-19.05l-5.334-12.573l-3.302-5.715l-25.273-14.732l3.81,23.114l-15.24-1.905
			l-19.685-0.381l-8.89,3.81l-18.288-1.905l-18.796,11.811l-15.113-1.143l-17.145-3.81l-18.669,1.905l-15.24-6.477l-32.766,3.048
			l-4.572-6.477v-41.148l-26.289,14.732l-8.763,39.37l-8.382,14.859v15.24l3.683-1.905l-3.683,18.288l3.683-1.143l-7.493,15.24
			L0,280.034l7.62-10.668l-4.572,24.003l6.477-6.858l-3.81,21.717l-3.048,16.764l8.953-21.336l7.429-24.003l1.143,15.621v9.525
			l-8.572,20.193l11.62-12.573v17.907l-9.144,27.432l13.716-17.526l4.953,28.194l4.572-40.767l3.429-8.001l4.191,19.431v-21.336
			l4.572-3.429l2.667,12.573l1.905-16.383l2.286-8.001l5.334,16.002V301.37l3.81-1.905l-1.905,25.146l-3.429,19.812l-4.953,19.431
			v8.382l3.048,4.191l4.572-3.429l6.477-12.192l7.239-25.527l3.429-19.431l5.715-23.622v-4.953l8.763,16.383l16.383,7.62
			l12.192,5.715l15.24,4.953l7.239-1.143l12.192-3.429l12.954-8.763l13.716-8.763l10.668-9.144l6.604,21.717l3.683,14.478
			l6.096,16.383l6.096,17.907l5.715,5.715l5.715-0.762v-9.144v-12.573l-7.62-19.812l-2.286-17.526l-1.143-8.763l5.334,0.381
			l1.524,22.098l4.191-16.002l4.191,19.05l4.191-14.859l3.937,38.1l2.54,20.955l2.286-36.576l6.223,14.097v-36.957l11.049,35.052
			l-5.334-44.577l5.334,10.287l4.064,15.24V305.18v-14.478l4.572,8.382l9.144,14.859l-7.239-24.765L274.319,279.272z
			 M30.099,248.411l4.572-15.24H38.1L30.099,248.411z M38.1,300.227v-20.955h2.667L38.1,300.227z M55.626,253.745l3.048-10.668
			l4.381-2.286L55.626,253.745z M111.633,227.076h2.286l-4.572,8.001L111.633,227.076z M168.402,268.604l-20.574-5.715h-12.319
			l-12.827,1.905l-11.049,3.81l-20.955,10.668l18.669-13.716l11.255-4.953l16.558-2.667l18.542,2.667l16.51,5.334l16.002,10.287
			l3.81,3.048L168.402,268.604z M186.69,221.361l1.524-1.905l7.81,11.62L186.69,221.361z M196.024,250.316l1.333-1.905l2.921,14.478
			L196.024,250.316z"/>
	</g>
	<polygon points="55.626,89.916 41.148,89.916 35.433,84.201 32.385,79.756 23.241,84.836 19.05,93.902 26.67,86.829 35.052,93.902 
		37.338,100.965 37.338,106.299 32.004,99.06 26.289,93.902 20.955,93.902 19.05,102.108 24.765,99.441 22.86,103.886 
		20.574,103.886 20.574,106.299 24.003,113.538 33.528,108.204 34.671,113.538 30.099,120.777 22.098,120.777 19.05,110.49 
		19.05,123.444 24.384,128.016 32.004,125.349 37.338,114.681 43.815,100.203 41.148,93.902 	"/>
	<polygon fill="#231F20" points="84.201,42.672 123.952,51.308 135.636,57.912 162.052,42.672 178.689,42.672 208.026,47.244 
		230.695,57.912 252.348,67.564 260.603,77.216 263.397,89.408 260.095,68.58 245.363,53.848 219.456,32.512 186.69,8.481 
		152.781,0 130.556,0 160.02,6.604 186.69,19.812 190.5,32.512 155.702,35.052 142.494,44.704 105.156,42.672 	"/>
</g>
</svg>
