<?xml version="1.0" encoding="utf-8"?>
<!-- Generator: Adobe Illustrator 17.0.2, SVG Export Plug-In . SVG Version: 6.00 Build 0)  -->
<!DOCTYPE svg PUBLIC "-//W3C//DTD SVG 1.1//EN" "http://www.w3.org/Graphics/SVG/1.1/DTD/svg11.dtd">
<svg version="1.1" id="Layer_1" xmlns="http://www.w3.org/2000/svg" xmlns:xlink="http://www.w3.org/1999/xlink" x="0px" y="0px"
	 width="200px" height="103.495px" viewBox="0 0 200 103.495" enable-background="new 0 0 200 103.495" xml:space="preserve">
<polygon fill="#020202" points="100,27.151 100,21.357 95.365,19.396 96.523,17.175 98.013,12.086 95.365,9.753 89.571,9.753 
	84.937,7.822 69.101,10.912 52.492,19.396 36.269,30.877 27.386,46.015 23.137,59.844 20.819,71.981 24.295,83.527 29.317,96.79 
	33.179,90.471 40.132,85.856 43.222,78.541 48.243,81.241 50.174,76.071 54.81,76.98 59.251,70.008 62.147,71.981 70.26,62.931 
	72.19,56.417 72.577,66.146 77.415,55.456 77.415,59.844 83.392,56.757 89.186,59.844 89.571,55.456 97.683,59.844 96.138,51.068 
	100.387,46.015 105.407,51.682 105.407,57.771 111.202,56.417 113.905,64.987 116.995,57.771 123.562,62.931 125.106,59.844 
	131.673,62.931 135.148,62.931 144.419,70.008 144.419,65.76 152.53,71.981 156.779,76.98 159.482,74.257 163.732,81.241 
	167.594,78.541 170.298,90.471 173.388,85.856 179.181,85.856 176.864,66.918 169.911,41.619 159.869,25.718 135.535,10.526 
	122.789,7.822 108.497,7.822 103.477,11.298 105.021,14.533 100,16.204 102.704,19.396 101.546,23.477 102.318,28.931 100,30.877 
	"/>
</svg>
